<?xml version="1.0" encoding="UTF-8" standalone="no"?>
<svg
   xmlns:dc="http://purl.org/dc/elements/1.1/"
   xmlns:cc="http://creativecommons.org/ns#"
   xmlns:rdf="http://www.w3.org/1999/02/22-rdf-syntax-ns#"
   xmlns:svg="http://www.w3.org/2000/svg"
   xmlns="http://www.w3.org/2000/svg"
   xmlns:xlink="http://www.w3.org/1999/xlink"
   version="1.0"
   width="874"
   height="365"
   id="svg2">
  <metadata
     id="metadata119">
    <rdf:RDF>
      <cc:Work
         rdf:about="">
        <dc:format>image/svg+xml</dc:format>
        <dc:type
           rdf:resource="http://purl.org/dc/dcmitype/StillImage" />
        <dc:title></dc:title>
      </cc:Work>
    </rdf:RDF>
  </metadata>
  <defs
     id="defs4" />
  <g
     id="g2618"
     style="stroke:#000000;stroke-width:0.1">
    <path
       d="M 93.035919,12.9298 C 105.82234,5.81604 120.33511,1.7411 134.95119,1.13774 142.6497,1.5097 150.39426,2.37196 157.63268,5.46 c 14.27507,5.34614 26.08657,16.28205 33.47027,29.51693 8.17992,13.53419 11.80069,29.27488 13.51557,44.84356 3.78038,51.55484 -15.3129,103.33382 -47.88361,142.96314 -12.81362,12.79645 -28.59325,23.6672 -46.69515,26.99803 -14.978176,2.14404 -31.19569,-1.06154 -43.241084,-10.51166 -7.460419,-5.64074 -10.478394,-15.43199 -9.852524,-24.49249 6.622238,9.35092 17.456009,15.82846 29.033432,16.09088 10.482223,0.50025 20.894376,-4.28937 27.950636,-11.93358 11.84444,-12.7875 13.03389,-34.36049 1.91654,-47.96585 -5.08524,-5.90526 -11,-11.20161 -17.878025,-14.9364 -6.903687,-4.07287 -14.879578,-5.84799 -22.742722,-6.90381 -14.547149,-0.93083 -29.625397,1.70596 -42.434097,8.86221 C 20.375305,165.02291 11.25116,177.55054 8.407715,191.53576 5.486984,202.39462 6.548477,213.75497 7.702728,224.78628 2.939728,212.17037 1.02951,198.75602 0,185.38122 l 0,-9.75518 C 1.675018,126.72758 22.040985,79.02405 54.811737,42.87649 66.07251,31.20949 78.635376,20.52531 93.035919,12.9298 z"
       id="path14" />
    <path
       d="m 262.5504,22.01749 c 17.16711,0.35787 34.46834,-0.08 51.2047,-4.32896 -12.50658,44.01422 -25.34475,87.93488 -37.92801,131.9276 1.5023,-1.04569 2.93295,-2.19129 4.31784,-3.38961 15.52855,-13.84727 30.5321,-28.2796 46.29011,-41.87056 7.28193,-6.04101 14.78057,-12.76083 24.3579,-14.65728 4.38099,-1.07059 9.55049,-0.8133 12.97833,2.4492 7.9393,7.04172 7.13632,20.97525 -0.85088,27.69092 -4.19079,3.87616 -10.52383,4.45271 -15.83674,3.01018 -4.4523,-1.1 -6.71874,-5.52884 -10.57321,-7.63236 -6.12981,-0.20888 -11.39176,3.78198 -16,7.37587 -9.66268,8.05183 -18.97822,16.51912 -28.68583,24.5163 -0.22705,1.27301 1.0515,2.35182 1.48527,3.51866 9.71472,17.32281 19.31038,34.71286 29.02066,52.03825 3.44182,5.68166 7.00342,11.68727 12.6514,15.44892 3.09161,2.19947 7.47475,1.67373 10.25928,-0.77816 5.07406,-4.36757 8.88171,-10.12077 11.34265,-16.32449 2.9485,-0.0156 5.89918,-0.0228 8.85321,0.009 -3.89864,9.94538 -8.39513,19.86808 -15.39639,28.05582 -4.85019,6.02309 -11.93932,11.1944 -19.99523,10.9679 -6.83462,0.2684 -13.11601,-3.58455 -17.58436,-8.48302 -7.24207,-8.239 -12.23658,-18.08417 -17.5849,-27.57779 -7.65027,-13.56262 -15.20215,-27.17992 -22.83109,-40.75383 -6.83589,24.0609 -13.19433,48.2576 -20.14073,72.28767 -8.00597,-0.0357 -16.0112,-0.003 -24.01588,-0.0184 15.83445,-56.15518 31.40916,-112.38345 47.18362,-168.55559 2.4245,-9.22111 5.96382,-18.38742 5.78815,-28.05754 0.1239,-3.53523 -2.18952,-7.12913 -5.77794,-7.83998 -4.85162,-1.08556 -9.88251,-0.33838 -14.8056,-0.5204 0.77262,-2.83225 1.53384,-5.66734 2.27444,-8.50806 z"
       id="path18" />
    <path
       d="m 472.71875,89.12548 c -2.39539,0.0231 -4.77391,0.21103 -7.125,0.5 -8.48506,0.90506 -16.74553,3.55749 -24.21875,7.65625 -15.623,8.72624 -27.01771,23.37838 -35.15625,39.03125 -9.43586,18.42009 -12.70897,39.81586 -9.6875,60.25 2.26267,14.95256 10.19429,29.58352 23.40625,37.5 10.73766,6.52227 23.97493,6.9828 36.0625,4.96875 14.48041,-2.18622 27.66804,-9.80508 38.0625,-19.9375 8.91356,-9.24392 16.2236,-20.06453 21.15625,-31.9375 6.75483,-16.72762 9.16777,-35.28061 6.6875,-53.15625 -1.9125,-13.91709 -8.6508,-27.49245 -19.9375,-36.125 -8.35336,-6.3113 -18.86996,-8.85023 -29.25,-8.75 z m 1.09375,8.3125 c 5.44441,-0.23334 10.91861,1.04948 15,4.8125 6.20106,5.72011 7.99587,14.46595 8.9375,22.5 1.32991,18.75334 -1.71843,37.64484 -7.625,55.4375 -4.22162,12.24439 -9.24622,24.41185 -16.96875,34.90625 -5.95687,8.25339 -14.79225,14.94146 -25.03125,16.5 -6.75743,0.98283 -14.37526,-0.30983 -19.3125,-5.375 -6.47858,-6.14987 -7.76368,-15.57499 -8.53125,-24.03125 -0.96201,-21.04885 3.41988,-42.16246 11.5,-61.5625 4.02061,-9.95025 8.7697,-19.75029 15.53125,-28.15625 5.06993,-6.14099 11.42757,-11.61809 19.21875,-13.84375 2.31311,-0.63539 4.80652,-1.08144 7.28125,-1.1875 z"
       id="path26" />
    <path
       d="m 586.52339,22.05703 c 17.06754,0.20499 34.3208,0.11253 50.9267,-4.38483 -9.96628,36.35955 -20.67064,72.51904 -30.62842,108.88065 8.54486,-11.52364 17.78012,-23.11244 30.42345,-30.36971 9.42576,-5.56022 20.81715,-8.46925 31.69472,-6.32536 7.77035,1.47885 14.96881,6.53853 18.29801,13.81372 2.72725,5.67262 2.98297,12.15848 2.27404,18.31413 -1.65161,16.557 -8.56861,31.86139 -14.01532,47.39869 -4.73079,13.03379 -9.77063,25.96134 -14.1104,39.13302 -1.48932,5.19127 -3.58966,10.69306 -2.10222,16.12387 1.23245,3.8969 6.14569,4.26224 9.39189,2.91815 3.37586,-1.6893 6.43033,-4.13095 8.63014,-7.22088 4.75071,-6.13648 8.82402,-12.93067 10.75652,-20.51148 3.18529,0.006 6.37251,0.0109 9.56769,-0.0154 -2.89116,12.97034 -9.59454,25.36475 -20.16429,33.63176 -7.77216,6.16856 -18.62857,8.35893 -28.09658,5.2585 -8.13734,-2.78657 -13.27632,-11.2778 -13.52264,-19.64827 -0.57355,-8.81634 2.30632,-17.32288 4.80739,-25.64565 4.80403,-14.4517 10.5336,-28.57385 15.8,-42.85958 5.06948,-13.0325 10.37126,-26.48674 10.38524,-40.67845 0.0642,-4.0051 -2.74872,-7.81981 -6.75195,-8.56099 -9.56964,-1.66855 -19.18067,2.41291 -26.58286,8.27285 -10.46634,8.27718 -18.14909,19.53694 -24.4624,31.16281 -10.02873,17.06908 -16.1693,36.05249 -21.37074,55.05485 -3.80376,13.23382 -7.52835,26.48989 -11.40752,39.70178 -8.12668,0.002 -16.25159,0 -24.37518,0 11.40295,-40.5 22.56652,-81.06734 33.91197,-121.58348 5.93393,-21.74144 12.25964,-43.37662 17.93472,-65.1876 0.9194,-4.55644 3.05184,-9.28408 1.35704,-13.92129 -0.39239,-2.46347 -2.88699,-3.65854 -5.12265,-3.89783 -5.3009,-0.81439 -10.68861,-0.25799 -16.02328,-0.39589 0.93161,-2.79652 1.76822,-5.62359 2.5769,-8.45892 z"
       id="path22" />
    <path
       d="m 797.75,89.09423 c -0.5803,0.002 -1.14,0.0313 -1.71875,0.0625 -14.28011,0.32675 -27.91774,6.84932 -37.9375,16.875 -11.57291,11.58213 -19.70579,26.23311 -25.4375,41.46875 -5.80238,16.39294 -7.52914,34.18739 -5.1875,51.40625 2.08467,13.25738 7.48425,26.86806 18.46875,35.21875 8.99728,6.71025 21.17802,7.13743 31.6875,4.34375 14.72369,-4.02352 26.46649,-15.06517 34.8125,-27.46875 0.51642,8.10715 1.92079,16.74113 7.3125,23.15625 5.14895,5.86354 13.87711,7.1982 21.0625,4.84375 6.77327,-2.14489 12.32982,-7.00204 16.625,-12.53125 6.99455,-8.5993 11.63584,-18.89001 14.75,-29.46875 -2.89314,-0.0225 -5.77708,0.003 -8.65625,0.0625 -2.39389,9.30419 -7.38782,17.70265 -12.90625,25.46875 -3.04126,3.45102 -6.58289,8.28073 -11.8125,7.4375 -3.54616,-0.85544 -4.80783,-4.95772 -5.15625,-8.15625 -0.7708,-9.40442 0.8441,-18.84637 3.40625,-27.875 9.45975,-33.38498 19.12519,-66.70228 28.5625,-100.09375 -8.15666,-0.0292 -16.31677,0.005 -24.46875,-0.0312 -2.93808,10.13953 -6.09717,20.2282 -8.78125,30.4375 -0.1441,-9.55531 -4.17973,-18.93201 -11.0625,-25.5625 -6.06433,-6.3454 -14.85806,-9.62116 -23.5625,-9.59375 z m 2.625,11.8125 c 5.09122,-0.15989 10.26171,1.09954 14.125,4.5625 6.21491,5.60516 8.21545,14.23152 9.15625,22.21875 2.30966,25.97204 -4.70606,52.08763 -16.78125,74.96875 -5.51258,10.06915 -13.07483,20.14957 -24.375,23.96875 -6.881,2.29718 -15.21335,2.57375 -21.5,-1.46875 -7.32274,-4.62485 -9.00948,-13.9498 -9.71875,-21.9375 -0.6868,-14.84323 1.44227,-29.73431 5.125,-44.09375 4.24458,-15.06324 9.46161,-30.25792 18.75,-43.03125 4.96182,-6.78626 11.86057,-12.64934 20.21875,-14.5625 1.63039,-0.33904 3.30293,-0.5717 5,-0.625 z"
       id="path30" />
    <path
       d="m 60.5,285.59496 809,0"
       id="path2640"
       style="fill:none;stroke-width:1" />
  </g>
  <g
     style="font-size:56.73864746px;font-weight:bold;letter-spacing:7.70123911px;font-family:Arial"
     id="text2642">
    <path
       d="m 74.18404,363.70129 0,-40.60814 27.84742,0 0,6.86959 -19.645592,0 0,9.61188 16.957831,0 0,6.8696 -16.957831,0 0,17.25707 -8.201828,0"
       id="path2644" />
    <path
       d="m 116.55032,363.70129 0,-40.60814 17.26264,0 c 4.34103,0 7.4906,0.36937 9.44872,1.108 1.97654,0.72023 3.55594,2.01289 4.73822,3.87799 1.18221,1.86516 1.77332,3.99806 1.77336,6.39869 0,3.04702 -0.89595,5.56772 -2.68776,7.56209 -1.79187,1.97595 -4.47039,3.22245 -8.03557,3.73949 1.77334,1.03415 3.23267,2.16984 4.378,3.4071 1.16374,1.23728 2.72467,3.4348 4.68281,6.59258 l 4.95989,7.9222 -9.80895,0 -5.9297,-8.83629 c -2.1059,-3.15778 -3.54676,-5.14294 -4.32258,-5.95549 -0.77588,-0.83099 -1.5979,-1.39422 -2.46609,-1.6897 -0.86823,-0.31392 -2.24444,-0.47088 -4.12862,-0.4709 l -1.66254,0 0,16.95238 -8.20183,0 m 8.20183,-23.43417 6.06825,0 c 3.93463,0 6.39148,-0.16617 7.37055,-0.4986 0.97903,-0.33238 1.74564,-0.90484 2.29984,-1.71739 0.55415,-0.81251 0.83124,-1.82818 0.83127,-3.047 0,-1.3665 -0.36948,-2.46527 -1.10835,-3.29629 -0.72046,-0.84943 -1.74569,-1.38497 -3.07569,-1.6066 -0.66504,-0.0923 -2.66008,-0.13847 -5.98512,-0.1385 l -6.40075,0 0,10.30438"
       id="path2646" />
    <path
       d="m 165.23423,363.70129 0,-40.60814 30.11955,0 0,6.86959 -21.91773,0 0,9.00248 20.39374,0 0,6.84189 -20.39374,0 0,11.05229 22.69357,0 0,6.84189 -30.89539,0"
       id="path2648" />
    <use
       transform="translate(45.608225,0)"
       xlink:href="#path2648"
       id="use2650" />
    <path
       d="m 280.11345,363.70129 0,-40.27575 8.20183,0 0,33.43386 20.39373,0 0,6.84189 -28.59556,0"
       id="path2652" />
    <path
       d="m 322.0364,363.70129 0,-40.60814 8.20183,0 0,40.60814 -8.20183,0"
       id="path2654" />
    <path
       d="m 345.75459,323.09315 16.23741,0 c 3.21419,0 5.6064,0.13853 7.17659,0.4155 1.58862,0.25857 3.00176,0.81257 4.23946,1.66199 1.2561,0.8495 2.2998,1.9852 3.13111,3.4071 0.83122,1.4035 1.24686,2.98239 1.24689,4.73669 0,1.90209 -0.51727,3.64719 -1.55169,5.2353 -1.01604,1.58815 -2.40148,2.77925 -4.15634,3.57329 2.4753,0.72022 4.37797,1.94825 5.70803,3.68409 1.33,1.73588 1.995,3.77644 1.99504,6.12169 0,1.84668 -0.43414,3.64718 -1.30232,5.4015 -0.84977,1.73587 -2.02278,3.13009 -3.51903,4.18269 -1.47784,1.03414 -3.30662,1.67123 -5.48635,1.91129 -1.367,0.14774 -4.66435,0.24008 -9.89207,0.27701 l -13.82673,0 0,-40.60814 m 8.20182,6.75879 0,9.39029 5.37553,0 c 3.19573,0 5.18153,-0.0462 5.95741,-0.13851 1.40389,-0.16617 2.50301,-0.64631 3.29736,-1.4404 0.81276,-0.8125 1.21915,-1.87433 1.21918,-3.18549 0,-1.25571 -0.351,-2.27136 -1.05294,-3.047 -0.68351,-0.79403 -1.70873,-1.27416 -3.07568,-1.44039 -0.81281,-0.0923 -3.1496,-0.13847 -7.01034,-0.1385 l -4.71052,0 m 0,16.14907 0,10.85839 7.59224,0 c 2.95559,0 4.83055,-0.0831 5.6249,-0.2493 1.21916,-0.22159 2.20744,-0.75713 2.96485,-1.6066 0.77582,-0.86792 1.16374,-2.02209 1.16377,-3.46249 0,-1.21879 -0.29558,-2.25292 -0.88668,-3.1024 -0.59115,-0.84945 -1.45012,-1.46808 -2.57692,-1.8559 -1.10838,-0.38778 -3.52829,-0.58168 -7.25973,-0.5817 l -6.62243,0"
       id="path2656" />
    <use
       transform="translate(277.91589,0)"
       xlink:href="#path2646"
       id="use2658" />
    <path
       d="m 479.78125,363.70129 -8.92226,0 -3.54673,-9.22409 -16.2374,0 -3.35278,9.22409 -8.70058,0 15.82176,-40.60814 8.67288,0 16.26511,40.60814 m -15.10134,-16.06597 -5.59719,-15.06879 -5.48636,15.06879 11.08355,0"
       id="path2660" />
    <use
       transform="translate(375.3391,0)"
       xlink:href="#path2646"
       id="use2662" />
    <path
       d="m 549.1908,363.70129 0,-17.09088 -14.87966,-23.51726 9.61497,0 9.55956,16.06597 9.36561,-16.06597 9.44872,0 -14.93508,23.57266 0,17.03548 -8.17412,0"
       id="path2664" />
    <path
       d="m 604.55196,350.48841 7.98015,-0.7756 c 0.48028,2.67767 1.45008,4.64436 2.90943,5.9 1.4778,1.25574 3.4636,1.8836 5.95741,1.8836 2.64156,0 4.62736,-0.55399 5.95741,-1.662 1.34847,-1.12645 2.02272,-2.43759 2.02275,-3.93339 0,-0.96026 -0.28636,-1.77279 -0.85898,-2.4376 -0.5542,-0.68325 -1.53324,-1.27418 -2.93714,-1.7728 -0.96059,-0.33238 -3.1496,-0.92331 -6.56701,-1.7728 -4.39648,-1.08951 -7.4814,-2.42834 -9.25476,-4.01649 -2.4938,-2.23444 -3.7407,-4.95826 -3.7407,-8.17149 0,-2.06823 0.58189,-3.99799 1.74566,-5.7893 1.18224,-1.80968 2.87249,-3.18544 5.07073,-4.12728 2.2167,-0.94176 4.88599,-1.41266 8.00787,-1.4127 5.09841,0 8.93146,1.11727 11.49918,3.3517 2.58612,2.23449 3.94386,5.21685 4.0732,8.94708 l -8.20183,0.3601 c -0.351,-2.0867 -1.10837,-3.58249 -2.27212,-4.4874 -1.14533,-0.92329 -2.87251,-1.38496 -5.18157,-1.385 -2.38297,0 -4.2487,0.48941 -5.59719,1.46811 -0.86822,0.6279 -1.30233,1.46812 -1.30232,2.52069 0,0.9603 0.40639,1.78207 1.2192,2.4653 1.03445,0.86796 3.54672,1.77282 7.53681,2.7146 3.99006,0.94182 6.93643,1.92055 8.83914,2.93619 1.92111,0.99722 3.41738,2.37298 4.48883,4.12729 1.08985,1.73588 1.63479,3.88725 1.63482,6.45409 0,2.32681 -0.64657,4.50587 -1.93961,6.53719 -1.29312,2.03133 -3.1219,3.5456 -5.48636,4.5428 -2.36452,0.97873 -5.3109,1.46809 -8.83914,1.46809 -5.13538,0 -9.07928,-1.18186 -11.83169,-3.54559 -2.75241,-2.38219 -4.39648,-5.84468 -4.93217,-10.38748"
       id="path2666" />
    <use
       transform="translate(113.71546,0)"
       xlink:href="#path2664"
       id="use2668" />
    <use
       transform="translate(91.216455,0)"
       xlink:href="#path2666"
       id="use2670" />
    <path
       d="m 752.59873,363.70129 0,-33.73855 -12.05336,0 0,-6.86959 32.28085,0 0,6.86959 -12.02566,0 0,33.73855 -8.20183,0"
       id="path2672" />
    <use
       transform="translate(620.61454,0)"
       xlink:href="#path2648"
       id="use2674" />
    <path
       d="m 831.34616,363.70129 0,-40.60814 12.27504,0 7.37055,27.7 7.28744,-27.7 12.30274,0 0,40.60814 -7.61994,0 0,-31.96576 -8.06328,31.96576 -7.89703,0 -8.03557,-31.96576 0,31.96576 -7.61995,0"
       id="path2676" />
  </g>
</svg>
