<svg xmlns="http://www.w3.org/2000/svg" viewBox="0 0 1480 580"><g id="Layer_2" data-name="Layer 2"><g id="Layer_2-2" data-name="Layer 2"><path d="M16.12,473.39V382.54H35.59A28.76,28.76,0,0,1,45,384a18.06,18.06,0,0,1,7.38,5A19.5,19.5,0,0,1,57,397.28a52.28,52.28,0,0,1,1.28,13,65.08,65.08,0,0,1-.7,10.33,21.88,21.88,0,0,1-3,7.92,19.09,19.09,0,0,1-7.13,6.95q-4.45,2.49-11.71,2.49H29.1v35.47Zm13-78.6v30.88h6.24a13.2,13.2,0,0,0,6.11-1.15,7.26,7.26,0,0,0,3.18-3.19,11.73,11.73,0,0,0,1.21-4.72c.12-1.87.19-4,.19-6.25,0-2.13-.05-4.15-.13-6.06a13.2,13.2,0,0,0-1.14-5,7.25,7.25,0,0,0-3.06-3.32,12,12,0,0,0-5.85-1.15ZM103.17,446H77.46v8.8a6.29,6.29,0,0,0,1.72,4.72,6.41,6.41,0,0,0,4.65,1.66q3.69,0,4.9-2.17a11.8,11.8,0,0,0,1.46-4.34h13q0,8.55-5.22,13.78a18.14,18.14,0,0,1-6.1,4.21,20.16,20.16,0,0,1-8,1.53,19.86,19.86,0,0,1-10.37-2.55,17.58,17.58,0,0,1-6.56-6.76A17.78,17.78,0,0,1,65,459a48,48,0,0,1-.51-7.27V430.39a47.93,47.93,0,0,1,.51-7.27,17.78,17.78,0,0,1,1.91-5.87,17.51,17.51,0,0,1,6.56-6.76,19.86,19.86,0,0,1,10.37-2.56,20.6,20.6,0,0,1,8.08,1.53,18.21,18.21,0,0,1,6.17,4.22,20.92,20.92,0,0,1,5.09,14.41ZM77.46,435.75H90.19v-7.4q0-3.71-1.72-5.55a6.76,6.76,0,0,0-9.29,0,7.92,7.92,0,0,0-1.72,5.55Zm35.26,37.64V408.7h13v6.89a39.53,39.53,0,0,1,7.76-5.61,19.82,19.82,0,0,1,9.42-2.05v13.78a10.5,10.5,0,0,0-3.94-.76,15.39,15.39,0,0,0-4.4.7,11.48,11.48,0,0,0-4.26,2.36,12.28,12.28,0,0,0-3.31,4.34A15.37,15.37,0,0,0,125.7,435v38.41Zm34.62-90.85h13v72.6q0,3.71,1.33,5c.89.89,2.57,1.47,5,1.72v12.25a41.57,41.57,0,0,1-8-.7,14,14,0,0,1-6.11-2.74,11.93,11.93,0,0,1-3.88-5.43,26.49,26.49,0,0,1-1.33-9.25ZM220,473.39v-6.64h-.25a24.19,24.19,0,0,1-5.16,5.49q-2.59,1.9-7.31,1.91a16.15,16.15,0,0,1-4.65-.7,12.08,12.08,0,0,1-4.52-2.62,12.48,12.48,0,0,1-3.5-5.16,24.16,24.16,0,0,1-1.33-8.74,45.93,45.93,0,0,1,.89-9.64,15.28,15.28,0,0,1,3.31-7,13.8,13.8,0,0,1,6.23-4A31.92,31.92,0,0,1,213.77,435h1.4a7.57,7.57,0,0,1,1.4.13,7.46,7.46,0,0,0,1.53.13,16.28,16.28,0,0,1,1.9.12V428.6a9.85,9.85,0,0,0-1.4-5.48q-1.4-2.17-5.09-2.17a7.28,7.28,0,0,0-4.64,1.66,7.89,7.89,0,0,0-2.74,4.84h-12.6q.51-8.67,5.86-14a18.36,18.36,0,0,1,6.11-4,20.79,20.79,0,0,1,8-1.47,22.52,22.52,0,0,1,7.64,1.28,17.58,17.58,0,0,1,6.24,3.83,18.85,18.85,0,0,1,4.07,6.38,24,24,0,0,1,1.53,8.93v45Zm0-27.82a21.74,21.74,0,0,0-3.56-.38,12.72,12.72,0,0,0-7.19,2q-3,2-3,7.21a9.49,9.49,0,0,0,1.78,6,5.93,5.93,0,0,0,5,2.3,6.4,6.4,0,0,0,5.16-2.17,9.18,9.18,0,0,0,1.84-6.12Zm22.53,27.82V408.7h13V415h.26a18.4,18.4,0,0,1,4.9-5,12.56,12.56,0,0,1,7.31-2,14.88,14.88,0,0,1,4.84.83,11.25,11.25,0,0,1,4.33,2.75,13.73,13.73,0,0,1,3.05,4.91,20.47,20.47,0,0,1,1.15,7.33v49.64h-13V428.6a8.68,8.68,0,0,0-1.66-5.61,5.71,5.71,0,0,0-4.71-2q-3.69,0-5.09,2.29a12.94,12.94,0,0,0-1.4,6.64v43.51Zm75.34,0v-5.87c-.85.93-1.65,1.81-2.41,2.61a13.89,13.89,0,0,1-2.55,2.11,12.12,12.12,0,0,1-3.18,1.4,15.38,15.38,0,0,1-4.2.51q-8.14,0-11.33-6.12a17.19,17.19,0,0,1-1.65-5.36,56.72,56.72,0,0,1-.51-8.55V429.5a101.53,101.53,0,0,1,.38-10.34,12.34,12.34,0,0,1,6-9.57c1.61-1.1,4-1.66,7.26-1.66a13.35,13.35,0,0,1,6.8,1.73,15.52,15.52,0,0,1,5.16,4.91h.25v-32h13v90.85ZM305,452.33a11.79,11.79,0,0,0,1.53,6.38,5.28,5.28,0,0,0,4.83,2.43,5.74,5.74,0,0,0,4.71-2.24,9,9,0,0,0,1.78-5.8V428a7.08,7.08,0,0,0-1.84-5,6.09,6.09,0,0,0-4.65-2q-3.69,0-5,2.29A10.41,10.41,0,0,0,305,428.6Zm61,21.06V382.54h13V424h.26l19-41.47h13l-17.69,36.37,21,54.48H400.72L386,433.07l-7,13.14v27.18Zm50.78-43a47.93,47.93,0,0,1,.51-7.27,17.29,17.29,0,0,1,8.46-12.63,22.3,22.3,0,0,1,20.75,0,17.29,17.29,0,0,1,8.46,12.63,47.93,47.93,0,0,1,.51,7.27V451.7a48,48,0,0,1-.51,7.27,17.29,17.29,0,0,1-8.46,12.63,22.38,22.38,0,0,1-20.75,0A17.29,17.29,0,0,1,417.27,459a48,48,0,0,1-.51-7.27Zm13,23.35q0,3.7,1.72,5.55a6.76,6.76,0,0,0,9.29,0q1.72-1.85,1.72-5.55V428.35q0-3.71-1.72-5.55a6.76,6.76,0,0,0-9.29,0q-1.72,1.84-1.72,5.55ZM465,473.39V382.54h13V415h.25a18.54,18.54,0,0,1,4.9-5,12.6,12.6,0,0,1,7.32-2,15,15,0,0,1,4.84.83,11.21,11.21,0,0,1,4.32,2.75,13.75,13.75,0,0,1,3.06,4.91,20.71,20.71,0,0,1,1.14,7.33v49.64h-13V428.6a8.68,8.68,0,0,0-1.65-5.61,5.74,5.74,0,0,0-4.71-2q-3.69,0-5.09,2.29a12.84,12.84,0,0,0-1.4,6.64v43.51Zm74.07,0v-6.64h-.26a24.39,24.39,0,0,1-5.15,5.49q-2.61,1.9-7.32,1.91a16.15,16.15,0,0,1-4.65-.7,12,12,0,0,1-4.51-2.62,12.39,12.39,0,0,1-3.5-5.16,23.93,23.93,0,0,1-1.34-8.74,46.61,46.61,0,0,1,.89-9.64,15.38,15.38,0,0,1,3.31-7,13.84,13.84,0,0,1,6.24-4A31.81,31.81,0,0,1,532.83,435h1.4a7.57,7.57,0,0,1,1.4.13,7.46,7.46,0,0,0,1.53.13,16.44,16.44,0,0,1,1.91.12V428.6a9.93,9.93,0,0,0-1.4-5.48q-1.41-2.17-5.09-2.17a7.3,7.3,0,0,0-4.65,1.66,7.89,7.89,0,0,0-2.74,4.84h-12.6q.51-8.67,5.86-14a18.36,18.36,0,0,1,6.11-4,20.81,20.81,0,0,1,8-1.47,22.51,22.51,0,0,1,7.63,1.28,17.4,17.4,0,0,1,6.24,3.83,18.85,18.85,0,0,1,4.07,6.38,24,24,0,0,1,1.53,8.93v45Zm0-27.82a21.84,21.84,0,0,0-3.57-.38,12.72,12.72,0,0,0-7.19,2q-3,2-3,7.21a9.49,9.49,0,0,0,1.78,6,5.94,5.94,0,0,0,5,2.3,6.39,6.39,0,0,0,5.15-2.17,9.19,9.19,0,0,0,1.85-6.12Zm88.19,1.92v5.61a20.22,20.22,0,0,1-1.59,8,21.91,21.91,0,0,1-4.39,6.7,21.2,21.2,0,0,1-6.55,4.66,19.16,19.16,0,0,1-8.09,1.72,28.92,28.92,0,0,1-7.5-1,17.78,17.78,0,0,1-6.88-3.57,19.73,19.73,0,0,1-5-6.57,23.23,23.23,0,0,1-2-10.27v-50a22.14,22.14,0,0,1,1.53-8.29,19.63,19.63,0,0,1,4.33-6.64,20.13,20.13,0,0,1,6.68-4.4,22.46,22.46,0,0,1,8.59-1.59q9.17,0,14.89,6a21.31,21.31,0,0,1,4.39,7,23.54,23.54,0,0,1,1.59,8.74v5.1h-13v-4.34a10.55,10.55,0,0,0-2.16-6.63,7,7,0,0,0-5.86-2.81q-4.83,0-6.42,3a16,16,0,0,0-1.6,7.59v46.44a12.12,12.12,0,0,0,1.72,6.64c1.15,1.78,3.2,2.68,6.18,2.68a9.31,9.31,0,0,0,2.73-.45,8,8,0,0,0,2.74-1.47,7.82,7.82,0,0,0,1.91-2.8,11.39,11.39,0,0,0,.76-4.47v-4.46Zm8.66-17.1a47.93,47.93,0,0,1,.51-7.27,17.21,17.21,0,0,1,8.46-12.63,22.28,22.28,0,0,1,20.74,0,17.51,17.51,0,0,1,6.56,6.76,17.78,17.78,0,0,1,1.91,5.87,47.93,47.93,0,0,1,.51,7.27V451.7a48,48,0,0,1-.51,7.27,17.78,17.78,0,0,1-1.91,5.87,17.58,17.58,0,0,1-6.56,6.76,22.36,22.36,0,0,1-20.74,0A17.21,17.21,0,0,1,636.43,459a48,48,0,0,1-.51-7.27Zm13,23.35q0,3.7,1.72,5.55a6.76,6.76,0,0,0,9.29,0q1.71-1.85,1.71-5.55V428.35q0-3.71-1.71-5.55a6.76,6.76,0,0,0-9.29,0q-1.73,1.84-1.72,5.55Zm35.25,19.65V408.7h13V415h.26a18.4,18.4,0,0,1,4.9-5,12.57,12.57,0,0,1,7.32-2,14.87,14.87,0,0,1,4.83.83,11.25,11.25,0,0,1,4.33,2.75,13.73,13.73,0,0,1,3.05,4.91,20.47,20.47,0,0,1,1.15,7.33v49.64H710V428.6a8.68,8.68,0,0,0-1.66-5.61,5.71,5.71,0,0,0-4.71-2c-2.46,0-4.15.76-5.09,2.29a12.94,12.94,0,0,0-1.4,6.64v43.51Zm51.16,0V418.91H729V408.7h6.36v-8.8a20.25,20.25,0,0,1,1.4-8,15.4,15.4,0,0,1,3.82-5.42,12.92,12.92,0,0,1,5.28-3.06,21.34,21.34,0,0,1,6.18-.9h6v12.25h-5.86c-2.54,0-3.82,1.49-3.82,4.47v9.44H758v10.21h-9.68v54.48ZM799.46,446H773.75v8.8a6.28,6.28,0,0,0,1.71,4.72,6.41,6.41,0,0,0,4.65,1.66q3.69,0,4.9-2.17a11.62,11.62,0,0,0,1.46-4.34h13q0,8.55-5.22,13.78a18.28,18.28,0,0,1-6.11,4.21,20.16,20.16,0,0,1-8,1.53,19.86,19.86,0,0,1-10.37-2.55,17.58,17.58,0,0,1-6.56-6.76,17.78,17.78,0,0,1-1.91-5.87,48.09,48.09,0,0,1-.5-7.27V430.39a48,48,0,0,1,.5-7.27,17.78,17.78,0,0,1,1.91-5.87,17.51,17.51,0,0,1,6.56-6.76,19.86,19.86,0,0,1,10.37-2.56,20.6,20.6,0,0,1,8.08,1.53,18.11,18.11,0,0,1,6.17,4.22,20.88,20.88,0,0,1,5.1,14.41Zm-25.71-10.21h12.72v-7.4q0-3.71-1.71-5.55a6.77,6.77,0,0,0-9.3,0q-1.71,1.84-1.71,5.55ZM809,473.39V408.7h13v6.89a39.28,39.28,0,0,1,7.77-5.61,19.75,19.75,0,0,1,9.41-2.05v13.78a10.5,10.5,0,0,0-3.94-.76,15.33,15.33,0,0,0-4.39.7,11.6,11.6,0,0,0-4.27,2.36,12.4,12.4,0,0,0-3.31,4.34A15.52,15.52,0,0,0,822,435v38.41ZM881.93,446H856.22v8.8a6.25,6.25,0,0,0,1.72,4.72,6.37,6.37,0,0,0,4.64,1.66q3.69,0,4.9-2.17a11.62,11.62,0,0,0,1.46-4.34h13q0,8.55-5.22,13.78a18.28,18.28,0,0,1-6.11,4.21,20.16,20.16,0,0,1-8,1.53,19.86,19.86,0,0,1-10.37-2.55A17.21,17.21,0,0,1,843.75,459a48,48,0,0,1-.51-7.27V430.39a47.93,47.93,0,0,1,.51-7.27,17.21,17.21,0,0,1,8.46-12.63,19.86,19.86,0,0,1,10.37-2.56,20.6,20.6,0,0,1,8.08,1.53,18.25,18.25,0,0,1,6.18,4.22,20.92,20.92,0,0,1,5.09,14.41Zm-25.71-10.21h12.72v-7.4q0-3.71-1.71-5.55a6.76,6.76,0,0,0-9.29,0q-1.73,1.84-1.72,5.55Zm35.25,37.64V408.7h13V415h.26a18.4,18.4,0,0,1,4.9-5,12.57,12.57,0,0,1,7.32-2,14.87,14.87,0,0,1,4.83.83,11.25,11.25,0,0,1,4.33,2.75,13.73,13.73,0,0,1,3,4.91,20.47,20.47,0,0,1,1.15,7.33v49.64h-13V428.6a8.68,8.68,0,0,0-1.66-5.61,5.71,5.71,0,0,0-4.71-2c-2.46,0-4.15.76-5.09,2.29a12.94,12.94,0,0,0-1.4,6.64v43.51Zm63.25-18.63a6.29,6.29,0,0,0,1.72,4.72,6.39,6.39,0,0,0,4.65,1.66q3.69,0,4.9-2.17a11.8,11.8,0,0,0,1.46-4.34h13q0,8.55-5.22,13.78a18.14,18.14,0,0,1-6.1,4.21,20.16,20.16,0,0,1-8,1.53,19.89,19.89,0,0,1-10.38-2.55A17.29,17.29,0,0,1,942.25,459a48,48,0,0,1-.51-7.27V430.39a47.93,47.93,0,0,1,.51-7.27,17.78,17.78,0,0,1,1.91-5.87,17.56,17.56,0,0,1,6.55-6.76,19.89,19.89,0,0,1,10.38-2.56,20.6,20.6,0,0,1,8.08,1.53,18.21,18.21,0,0,1,6.17,4.22q5.08,5.73,5.09,14.92h-13c0-2.63-.57-4.57-1.72-5.8a6.76,6.76,0,0,0-9.29,0,7.92,7.92,0,0,0-1.72,5.55Zm70.89-8.8H999.9v8.8a6.29,6.29,0,0,0,1.72,4.72,6.39,6.39,0,0,0,4.65,1.66q3.69,0,4.9-2.17a11.8,11.8,0,0,0,1.46-4.34h13q0,8.55-5.21,13.78a18.28,18.28,0,0,1-6.11,4.21,20.16,20.16,0,0,1-8,1.53,19.92,19.92,0,0,1-10.38-2.55A17.29,17.29,0,0,1,987.43,459a48,48,0,0,1-.51-7.27V430.39a47.93,47.93,0,0,1,.51-7.27,17.78,17.78,0,0,1,1.91-5.87,17.56,17.56,0,0,1,6.55-6.76,19.92,19.92,0,0,1,10.38-2.56,20.6,20.6,0,0,1,8.08,1.53,18.21,18.21,0,0,1,6.17,4.22,20.92,20.92,0,0,1,5.09,14.41ZM999.9,435.75h12.73v-7.4q0-3.71-1.72-5.55a6.76,6.76,0,0,0-9.29,0,7.92,7.92,0,0,0-1.72,5.55Zm58.93-40.19v-13h13v13Zm0,77.83V408.7h13v64.69Zm23.67,0V408.7h13V415h.26a18.51,18.51,0,0,1,4.89-5,12.6,12.6,0,0,1,7.32-2,14.93,14.93,0,0,1,4.84.83,11.32,11.32,0,0,1,4.33,2.75,13.73,13.73,0,0,1,3.05,4.91,20.47,20.47,0,0,1,1.15,7.33v49.64h-13V428.6a8.68,8.68,0,0,0-1.66-5.61,5.71,5.71,0,0,0-4.71-2q-3.69,0-5.09,2.29a12.94,12.94,0,0,0-1.4,6.64v43.51Zm73.94,0V382.54h13v38.92h16V382.54h13v90.85h-13V432.94h-16v40.45Zm91-27.43h-25.71v8.8a6.25,6.25,0,0,0,1.72,4.72,6.37,6.37,0,0,0,4.64,1.66c2.46,0,4.1-.72,4.9-2.17a11.65,11.65,0,0,0,1.47-4.34h13q0,8.55-5.22,13.78a18.18,18.18,0,0,1-6.11,4.21,20.12,20.12,0,0,1-8,1.53,19.86,19.86,0,0,1-10.37-2.55,17.29,17.29,0,0,1-8.46-12.63,48,48,0,0,1-.51-7.27V430.39a47.93,47.93,0,0,1,.51-7.27,17.29,17.29,0,0,1,8.46-12.63,19.86,19.86,0,0,1,10.37-2.56,20.65,20.65,0,0,1,8.09,1.53,18.3,18.3,0,0,1,6.17,4.22,20.92,20.92,0,0,1,5.09,14.41Zm-25.71-10.21h12.73v-7.4a7.92,7.92,0,0,0-1.72-5.55,6.76,6.76,0,0,0-9.29,0q-1.73,1.84-1.72,5.55Zm34.49-53.21h13v72.6q0,3.71,1.34,5c.89.89,2.56,1.47,5,1.72v12.25a41.43,41.43,0,0,1-8-.7,13.9,13.9,0,0,1-6.11-2.74,11.86,11.86,0,0,1-3.88-5.43,26.47,26.47,0,0,1-1.34-9.25Zm48,44.28a6.53,6.53,0,0,0-2.1-5,6.86,6.86,0,0,0-4.52-1.66,5.79,5.79,0,0,0-4.71,2,6.88,6.88,0,0,0-1.65,4.53,7.5,7.5,0,0,0,.89,3.51q.89,1.73,4.58,3.12l7.64,3.07q7.25,2.81,10,7.65a21.21,21.21,0,0,1,2.73,10.59,19.63,19.63,0,0,1-1.46,7.59,20.24,20.24,0,0,1-4,6.19,18.18,18.18,0,0,1-6.11,4.21,19.43,19.43,0,0,1-7.76,1.53,18.74,18.74,0,0,1-13.24-5,18.31,18.31,0,0,1-4.32-6.06,21.74,21.74,0,0,1-1.79-8.49h12.22a12.43,12.43,0,0,0,1.85,5q1.46,2.29,5.15,2.29a7.64,7.64,0,0,0,5-1.85,6.34,6.34,0,0,0,2.22-5.16,7.6,7.6,0,0,0-1.39-4.6,11.09,11.09,0,0,0-5.1-3.31l-6.23-2.3a21.24,21.24,0,0,1-9.61-6.83,17.53,17.53,0,0,1-3.5-11,18.79,18.79,0,0,1,1.53-7.59,18.35,18.35,0,0,1,4.2-6.07,17.19,17.19,0,0,1,6-3.89,20.2,20.2,0,0,1,7.38-1.34,18.8,18.8,0,0,1,7.32,1.41,16.61,16.61,0,0,1,5.79,4,19,19,0,0,1,3.82,6.06,20,20,0,0,1,1.4,7.47Zm21.25-31.26v-13h13v13Zm0,77.83V408.7h13v64.69Zm23.67,0V408.7h13V415h.26a18.54,18.54,0,0,1,4.9-5,12.6,12.6,0,0,1,7.32-2,14.87,14.87,0,0,1,4.83.83,11.25,11.25,0,0,1,4.33,2.75,13.89,13.89,0,0,1,3.06,4.91,20.71,20.71,0,0,1,1.14,7.33v49.64h-13V428.6a8.62,8.62,0,0,0-1.66-5.61,5.7,5.7,0,0,0-4.7-2c-2.47,0-4.16.76-5.1,2.29a12.94,12.94,0,0,0-1.4,6.64v43.51Zm49.51,0V382.54h13V436.9h.26l15.65-28.2h13L1425.1,435l18.58,38.41h-14.12l-11.71-27.95-6.24,9.83v18.12Zm49.51-77.83v-13h13v13Zm0,77.83V408.7h13v64.69Z" style="fill:#002855"/><path id="path14" d="M1139.37,505.4a12.82,12.82,0,0,1,5.7-1.61,8.78,8.78,0,0,1,7.65,4.61,14.72,14.72,0,0,1,1.84,6.11A27.91,27.91,0,0,1,1148,534a12.4,12.4,0,0,1-6.36,3.67,7.82,7.82,0,0,1-5.89-1.43,3.85,3.85,0,0,1-1.34-3.33,5.12,5.12,0,0,0,4,2.19,5,5,0,0,0,3.81-1.63,5.13,5.13,0,0,0,.26-6.53,8.77,8.77,0,0,0-2.43-2,8,8,0,0,0-3.1-.94,10.55,10.55,0,0,0-5.78,1.2,6.93,6.93,0,0,0-3.32,4.57,12.54,12.54,0,0,0-.1,4.53,19.65,19.65,0,0,1-1-5.37v-1.33a28.7,28.7,0,0,1,7.46-18.08A20.82,20.82,0,0,1,1139.37,505.4Z" style="fill:#009245"/><path d="M1162.45,506.63a26,26,0,0,0,7-.59c-1.71,6-3.46,12-5.17,18,.2-.14.4-.3.59-.46,2.11-1.89,4.16-3.85,6.3-5.7a7.85,7.85,0,0,1,3.32-2,1.93,1.93,0,0,1,1.77.33,2.6,2.6,0,0,1-.12,3.78,2.35,2.35,0,0,1-2.16.41c-.6-.15-.91-.76-1.44-1a3.5,3.5,0,0,0-2.17,1c-1.32,1.1-2.59,2.25-3.91,3.34,0,.17.14.32.2.48l3.95,7.09a6.29,6.29,0,0,0,1.73,2.1,1.13,1.13,0,0,0,1.39-.11,5.69,5.69,0,0,0,1.55-2.22h1.2a13,13,0,0,1-2.09,3.82,3.56,3.56,0,0,1-2.73,1.5,3.2,3.2,0,0,1-2.39-1.16,21.33,21.33,0,0,1-2.4-3.75c-1-1.85-2.07-3.71-3.11-5.55-.93,3.27-1.79,6.57-2.74,9.84h-3.27c2.16-7.65,4.28-15.31,6.43-23a14.28,14.28,0,0,0,.79-3.82,1.06,1.06,0,0,0-.79-1.07,12.37,12.37,0,0,0-2-.07c.11-.38.21-.77.31-1.16Zm28.62,9.14c-.32,0-.65,0-1,.07a8.86,8.86,0,0,0-3.29,1,12.58,12.58,0,0,0-4.79,5.32,13.7,13.7,0,0,0-1.32,8.21,6.49,6.49,0,0,0,8.1,5.78,9.61,9.61,0,0,0,5.18-2.72,13.92,13.92,0,0,0,2.88-4.35,14.2,14.2,0,0,0,.91-7.24,7.5,7.5,0,0,0-2.71-4.92A6.56,6.56,0,0,0,1191.07,515.77Zm.15,1.14a2.77,2.77,0,0,1,2,.65,4.76,4.76,0,0,1,1.21,3.07,19.6,19.6,0,0,1-1,7.55,17.28,17.28,0,0,1-2.31,4.75,5.37,5.37,0,0,1-3.41,2.25,3.07,3.07,0,0,1-2.63-.74,5,5,0,0,1-1.16-3.27,19.6,19.6,0,0,1,1.57-8.38,15.12,15.12,0,0,1,2.11-3.84,5.48,5.48,0,0,1,2.62-1.88A4.18,4.18,0,0,1,1191.22,516.91Zm15.35-10.27a25.25,25.25,0,0,0,6.94-.6c-1.36,4.95-2.82,9.88-4.17,14.83a14.33,14.33,0,0,1,4.14-4.14,6.31,6.31,0,0,1,4.32-.86,3.44,3.44,0,0,1,2.49,1.88,4.55,4.55,0,0,1,.31,2.5,28.63,28.63,0,0,1-1.91,6.45c-.64,1.78-1.33,3.54-1.92,5.33a4.17,4.17,0,0,0-.29,2.2c.17.53.84.58,1.28.4a3.23,3.23,0,0,0,1.18-1,7.78,7.78,0,0,0,1.46-2.79h1.3a8,8,0,0,1-2.74,4.58,4.16,4.16,0,0,1-3.83.71,2.9,2.9,0,0,1-1.84-2.67A9.74,9.74,0,0,1,1214,530c.65-2,1.43-3.9,2.15-5.84a15.57,15.57,0,0,0,1.41-5.54,1.16,1.16,0,0,0-.92-1.17,4.72,4.72,0,0,0-3.62,1.13,13.62,13.62,0,0,0-3.33,4.24,30.54,30.54,0,0,0-2.91,7.5c-.52,1.8-1,3.61-1.55,5.41h-3.32c1.55-5.52,3.07-11,4.61-16.56.81-3,1.67-5.91,2.45-8.88a3.5,3.5,0,0,0,.18-1.89.71.71,0,0,0-.7-.53,15.83,15.83,0,0,0-2.18-.06c.13-.38.24-.76.35-1.15Zm28.77,9.13h-.23a7.61,7.61,0,0,0-5.17,2.3,15.81,15.81,0,0,0-3.47,5.64,15,15,0,0,0-.7,7,7.33,7.33,0,0,0,2.51,4.8,5.1,5.1,0,0,0,4.32.59,8.78,8.78,0,0,0,4.74-3.74,5.25,5.25,0,0,0,1,3.15,2.69,2.69,0,0,0,2.86.66,4.79,4.79,0,0,0,2.27-1.7,11.52,11.52,0,0,0,2-4h-1.18a10.83,10.83,0,0,1-1.76,3.47c-.41.47-.9,1.13-1.61,1-.48-.11-.65-.67-.7-1.11a10.82,10.82,0,0,1,.46-3.79c1.29-4.55,2.61-9.09,3.89-13.63h-3.33c-.4,1.38-.83,2.76-1.19,4.15a5,5,0,0,0-1.51-3.48,4.43,4.43,0,0,0-3.21-1.31Zm.36,1.61a2.71,2.71,0,0,1,1.92.62,4.67,4.67,0,0,1,1.25,3,18.6,18.6,0,0,1-2.29,10.21,6.44,6.44,0,0,1-3.32,3.26,3.47,3.47,0,0,1-2.92-.2,3.73,3.73,0,0,1-1.33-3,20.58,20.58,0,0,1,.7-6,18.36,18.36,0,0,1,2.55-5.86,4.9,4.9,0,0,1,2.76-2A5.05,5.05,0,0,1,1235.7,517.38Zm-100.77,25.15h110.18M1136.8,553.17v-5.53h3.79v.93h-2.67v1.31h2.3v.94h-2.3v2.35h-1.12m5.77,0v-5.53h2.35a4,4,0,0,1,1.29.15,1.23,1.23,0,0,1,.64.53,1.58,1.58,0,0,1,.24.87,1.5,1.5,0,0,1-.36,1,1.78,1.78,0,0,1-1.1.51,2.64,2.64,0,0,1,.6.46,6.44,6.44,0,0,1,.64.9l.67,1.08h-1.33l-.81-1.21a7.23,7.23,0,0,0-.59-.81.89.89,0,0,0-.34-.23,1.84,1.84,0,0,0-.56-.06h-.22v2.31h-1.12m1.12-3.19h.82a4.64,4.64,0,0,0,1-.07.67.67,0,0,0,.31-.24.73.73,0,0,0,.11-.41.64.64,0,0,0-.15-.45.66.66,0,0,0-.42-.22c-.09,0-.36,0-.81,0h-.87V550m5.51,3.19v-5.53h4.1v.93h-3v1.23h2.77v.93h-2.77v1.51h3.09v.93h-4.21m6.21,0v-5.53h4.1v.93h-3v1.23h2.77v.93h-2.77v1.51h3.09v.93h-4.21m9.43,0v-5.49H1166v4.56h2.78v.93h-3.9m5.71,0v-5.53h1.12v5.53h-1.12m3.23-5.53H1176a7.47,7.47,0,0,1,1,.05,1.42,1.42,0,0,1,.58.23,1.58,1.58,0,0,1,.43.46,1.31,1.31,0,0,1,.17.65,1.19,1.19,0,0,1-.22.71,1.22,1.22,0,0,1-.56.49,1.47,1.47,0,0,1,.78.5,1.33,1.33,0,0,1,.27.83,1.62,1.62,0,0,1-.18.74,1.5,1.5,0,0,1-.48.57,1.56,1.56,0,0,1-.75.26c-.18,0-.63,0-1.34,0h-1.89v-5.53m1.12.92v1.28h.73c.44,0,.71,0,.81,0a.78.78,0,0,0,.45-.2.58.58,0,0,0,.17-.43.64.64,0,0,0-.14-.42.64.64,0,0,0-.42-.19,9.55,9.55,0,0,0-1,0h-.64m0,2.2v1.48h1a5.11,5.11,0,0,0,.77,0,.64.64,0,0,0,.4-.22.65.65,0,0,0,.16-.47.72.72,0,0,0-.12-.42.65.65,0,0,0-.35-.25,3.46,3.46,0,0,0-1-.08h-.9m5.52,2.41v-5.53h2.35a3.91,3.91,0,0,1,1.28.15,1.25,1.25,0,0,1,.65.53,1.58,1.58,0,0,1,.24.87,1.5,1.5,0,0,1-.36,1,1.78,1.78,0,0,1-1.1.51,2.64,2.64,0,0,1,.6.46,6.44,6.44,0,0,1,.64.9l.67,1.08h-1.34l-.8-1.21a8.88,8.88,0,0,0-.59-.81.89.89,0,0,0-.34-.23,1.88,1.88,0,0,0-.56-.06h-.23v2.31h-1.11m1.11-3.19h.83a4.45,4.45,0,0,0,1-.07.65.65,0,0,0,.32-.24.73.73,0,0,0,.11-.41.64.64,0,0,0-.15-.45.66.66,0,0,0-.42-.22c-.09,0-.36,0-.81,0h-.88V550m10.51,3.19h-1.22l-.48-1.26h-2.21l-.46,1.26h-1.18l2.15-5.53h1.18l2.22,5.53M1190,551l-.76-2.05-.75,2.05H1190m3.71,2.19v-5.53H1196a3.91,3.91,0,0,1,1.28.15,1.25,1.25,0,0,1,.65.53,1.58,1.58,0,0,1,.24.87,1.46,1.46,0,0,1-.37,1,1.75,1.75,0,0,1-1.09.51,2.64,2.64,0,0,1,.6.46,6.59,6.59,0,0,1,.63.9l.68,1.08h-1.34l-.8-1.21a8.88,8.88,0,0,0-.59-.81.89.89,0,0,0-.34-.23,1.88,1.88,0,0,0-.56-.06h-.23v2.31h-1.11m1.11-3.19h.83a4.52,4.52,0,0,0,1-.07.65.65,0,0,0,.32-.24.73.73,0,0,0,.11-.41.64.64,0,0,0-.15-.45.66.66,0,0,0-.42-.22c-.09,0-.36,0-.82,0h-.87V550m6.69,3.19v-2.33l-2-3.2h1.31l1.3,2.19,1.28-2.19h1.29l-2,3.21v2.32h-1.11m7.54-1.8,1.09-.11a1.32,1.32,0,0,0,.39.81,1.21,1.21,0,0,0,.81.25,1.24,1.24,0,0,0,.81-.22.69.69,0,0,0,.28-.54.48.48,0,0,0-.12-.33.83.83,0,0,0-.4-.24c-.13,0-.43-.13-.89-.24a3.12,3.12,0,0,1-1.26-.55,1.45,1.45,0,0,1-.51-1.11,1.39,1.39,0,0,1,.24-.79,1.43,1.43,0,0,1,.69-.56,2.72,2.72,0,0,1,1.09-.2,2.29,2.29,0,0,1,1.56.46,1.59,1.59,0,0,1,.56,1.22l-1.12,0a.91.91,0,0,0-.31-.61,1.06,1.06,0,0,0-.7-.19,1.26,1.26,0,0,0-.77.2.41.41,0,0,0-.17.34.44.44,0,0,0,.16.34,3.22,3.22,0,0,0,1,.37,4.86,4.86,0,0,1,1.2.4,1.44,1.44,0,0,1,.61.56,1.6,1.6,0,0,1,.23.88,1.66,1.66,0,0,1-1,1.51,3.29,3.29,0,0,1-1.21.2,2.42,2.42,0,0,1-1.61-.49,2.1,2.1,0,0,1-.67-1.41m8,1.8v-2.33l-2-3.2h1.31l1.3,2.19,1.28-2.19h1.28l-2,3.21v2.32H1217m4.47-1.8,1.09-.11a1.38,1.38,0,0,0,.39.81,1.53,1.53,0,0,0,1.63,0,.71.71,0,0,0,.27-.54.52.52,0,0,0-.11-.33.88.88,0,0,0-.4-.24c-.14,0-.43-.13-.9-.24a3.12,3.12,0,0,1-1.26-.55,1.45,1.45,0,0,1-.51-1.11,1.39,1.39,0,0,1,.24-.79,1.43,1.43,0,0,1,.69-.56,2.72,2.72,0,0,1,1.09-.2,2.32,2.32,0,0,1,1.57.46,1.61,1.61,0,0,1,.55,1.22l-1.12,0a.87.87,0,0,0-.31-.61,1.06,1.06,0,0,0-.7-.19,1.21,1.21,0,0,0-.76.2.39.39,0,0,0-.18.34.42.42,0,0,0,.17.34,3.13,3.13,0,0,0,1,.37,4.82,4.82,0,0,1,1.21.4,1.5,1.5,0,0,1,.61.56,1.6,1.6,0,0,1,.22.88,1.62,1.62,0,0,1-1,1.51,3.25,3.25,0,0,1-1.21.2,2.42,2.42,0,0,1-1.61-.49,2.1,2.1,0,0,1-.67-1.41m7.74,1.8v-4.6h-1.64v-.93h4.4v.93h-1.64v4.6h-1.12m4.53,0v-5.53h4.1v.93h-3v1.23h2.77v.93h-2.77v1.51h3.09v.93h-4.21m6.2,0v-5.53h1.67l1,3.77,1-3.77h1.68v5.53h-1v-4.36l-1.1,4.36h-1.07l-1.1-4.36v4.36h-1" style="fill:#333"/><path d="M1366.85,534.66h1.23a.45.45,0,0,1,.21.12l.76,1c.37.47,2.49,2.76,3.1,3.44.06.05.09,0,.09-.07,0-.3,0-1.34,0-2.6a6.05,6.05,0,0,0,0-1c0-.2-.08-.43-.6-.57-.19-.05-.26-.12-.26-.21s.12-.09.25-.09h.79c.36,0,.68,0,.93,0s.22,0,.22.11,0,.15-.22.19c-.43.11-.57.22-.61.71,0,.33-.1,2.34-.1,3.8,0,.41.06,1.13.06,1.32s-.06.21-.14.21a1.22,1.22,0,0,1-.45-.33c-.16-.21-.34-.45-.6-.77-.9-1.07-2.53-2.89-3.4-3.92,0-.05-.11,0-.11,0,0,.26,0,.53,0,1.28,0,.95,0,2.26,0,2.6a.71.71,0,0,0,.6.7c.19,0,.24.11.24.17s-.12.14-.3.14-.64-.06-1-.06h-.68c-.16,0-.25,0-.25-.1s.1-.14.2-.17c.44-.15.64-.19.68-.9s.18-3,.18-3.82c0-.35,0-.44-.08-.47a1,1,0,0,0-.78-.44c-.11,0-.21-.09-.21-.16S1366.65,534.66,1366.85,534.66Z" style="fill:#002855"/><path d="M1377.43,534.75l.42,1.17c.5,1.41,1.21,3.28,1.38,3.69.31.78.48.86.88,1q.24.06.24.15c0,.07-.07.14-.31.14s-.83,0-1.22,0h-.73c-.25,0-.3-.07-.3-.12s.06-.13.24-.16c.44-.09.42-.28.38-.47a12.84,12.84,0,0,0-.52-1.59s-.06-.1-.3-.1c-.63,0-1.39,0-1.58,0,0,0-.08.06-.1.09a6.82,6.82,0,0,0-.49,1.61c0,.12.06.29.48.41.16.05.26.11.26.18s-.15.13-.28.13h-.76c-.35,0-.83,0-1,0s-.23,0-.23-.11.06-.14.22-.19c.48-.16.6-.2.87-.82s1.3-3.35,1.7-4.3l.08-.24a1.09,1.09,0,0,1,0-.17c.07-.1.21-.3.27-.41s.12-.12.16-.12S1377.36,534.55,1377.43,534.75Zm.25,3.13c-.16-.47-.63-1.85-.73-2s-.06-.05-.08,0c-.18.46-.67,1.77-.74,2.06,0,0,0,.06.06.06h1.47S1377.69,537.92,1377.68,537.88Z" style="fill:#002855"/><path d="M1385.07,534.67a1.33,1.33,0,0,0,.67-.16c.07,0,.1-.07.14-.07s.1.08,0,.22a5.49,5.49,0,0,0-.21,1.13c0,.08-.09.19-.16.19s-.12-.07-.15-.3c-.06-.51-.19-.57-.75-.57h-1.31s-.08.1-.08.13v2.26c0,1.13,0,2,0,2.42s.09.57.7.67c.12,0,.25.11.25.17s-.17.13-.27.13-.76,0-1.13,0-1,.06-1.13.06-.28,0-.28-.11.09-.15.18-.17c.65-.16.68-.31.71-1s.07-2.5.07-3.24v-1.13a.12.12,0,0,0-.09-.12c-.18,0-1-.05-1.13-.05a.85.85,0,0,0-.68.22,2.29,2.29,0,0,0-.3.5c-.1.2-.16.21-.2.21s-.11-.12-.11-.21a9.44,9.44,0,0,0,.15-1.29c0-.06.08-.17.14-.17s.07.07.16.16a.61.61,0,0,0,.34.17c.24,0,1.13.06,2.21.06Z" style="fill:#002855"/><path d="M1387.66,535.62c0-.45,0-.59-.56-.69-.22,0-.28-.11-.28-.17s.11-.12.26-.12h2.09c.17,0,.26,0,.26.12s-.1.14-.26.16c-.56.11-.56.35-.56.6a24.34,24.34,0,0,0-.06,2.7c0,.65,0,1.21,0,1.51,0,.53.07.7.67.83.18,0,.26.1.26.17s-.15.12-.26.12c-.47,0-1.13-.05-1.43-.05h-.76c-.2,0-.26-.07-.26-.15s.09-.12.29-.16c.47-.11.5-.26.56-.7s0-1.34,0-2.16C1387.69,537.12,1387.68,536,1387.66,535.62Z" style="fill:#002855"/><path d="M1397.16,537.67a3.25,3.25,0,0,1-1.33,2.74,3.5,3.5,0,0,1-1.92.56,3.33,3.33,0,0,1-2.48-1.08,3.16,3.16,0,0,1-.8-2.17,3.11,3.11,0,0,1,1.24-2.55,3.42,3.42,0,0,1,2-.67,3.18,3.18,0,0,1,3.31,3Zm-4.8-2.3a3,3,0,0,0-.72,2.26c0,1.42,1,3,2.5,3a1.59,1.59,0,0,0,1.21-.44,3.12,3.12,0,0,0,.8-2.26,3.46,3.46,0,0,0-1.13-2.6,2.39,2.39,0,0,0-1.4-.52A2,2,0,0,0,1392.36,535.37Z" style="fill:#002855"/><path d="M1398.46,534.66h1.24a.45.45,0,0,1,.21.12l.76,1c.37.47,2.49,2.76,3.1,3.44.06.05.1,0,.1-.07,0-.3,0-1.34,0-2.6a6.05,6.05,0,0,0,0-1c0-.2-.09-.43-.6-.57-.2-.05-.27-.12-.27-.21s.13-.09.26-.09h.78c.36,0,.69,0,.94,0s.22,0,.22.11-.06.15-.23.19c-.42.11-.57.22-.61.71,0,.33-.1,2.34-.1,3.8,0,.41.07,1.13.07,1.32s-.07.21-.15.21a1.12,1.12,0,0,1-.44-.33l-.6-.77c-.9-1.07-2.53-2.89-3.4-3.92,0-.05-.12,0-.12,0,0,.26,0,.53,0,1.28,0,.95,0,2.26,0,2.6a.71.71,0,0,0,.61.7c.19,0,.24.11.24.17s-.13.14-.31.14-.64-.06-1-.06h-.68c-.17,0-.25,0-.25-.1s.09-.14.19-.17c.45-.15.64-.19.68-.9s.18-3,.18-3.82c0-.35,0-.44-.07-.47a1.13,1.13,0,0,0-.79-.44c-.11,0-.21-.09-.21-.16S1398.27,534.66,1398.46,534.66Z" style="fill:#002855"/><path d="M1409.05,534.75l.42,1.17c.5,1.41,1.21,3.28,1.37,3.69.32.78.49.86.89,1,.16,0,.25.09.25.15s-.08.14-.32.14-.82,0-1.22,0h-.73c-.25,0-.3-.07-.3-.12s.06-.13.24-.16c.44-.09.41-.28.39-.47a14.82,14.82,0,0,0-.53-1.59s-.06-.1-.3-.1c-.63,0-1.39,0-1.57,0s-.09.06-.11.09a6.82,6.82,0,0,0-.49,1.61c0,.12.06.29.48.41.16.05.26.11.26.18s-.14.13-.28.13h-.75c-.35,0-.85,0-1,0s-.23,0-.23-.11.06-.14.22-.19c.48-.16.6-.2.87-.82s1.3-3.35,1.7-4.3l.09-.24a1.41,1.41,0,0,1,.06-.15l.28-.42q.09-.12.15-.12S1409,534.55,1409.05,534.75Zm.25,3.13c-.15-.47-.63-1.85-.73-2s-.06-.05-.08,0c-.17.46-.67,1.77-.74,2.06,0,0,0,.06.06.06h1.47S1409.31,537.92,1409.3,537.88Z" style="fill:#002855"/><path d="M1413.09,534.67h2c.23,0,.25,0,.25.1s-.08.14-.21.17c-.57.12-.61.24-.63.37-.06.45-.07,1.42-.07,2.83a14.31,14.31,0,0,0,.07,1.93.54.54,0,0,0,.33.36,5.26,5.26,0,0,0,.88.05h.69a.51.51,0,0,0,.35-.17,3.32,3.32,0,0,0,.57-.67c.1-.16.19-.2.24-.2s.08.1,0,.26a7.79,7.79,0,0,0-.29,1c0,.09-.2.16-.24.16s-1-.06-2.93-.06c-.61,0-1.09,0-1.27,0s-.28,0-.28-.1.08-.16.24-.18c.52-.1.65-.28.69-.67,0-.23,0-1.65,0-3v-1.41c0-.31,0-.42-.51-.51-.18,0-.26-.11-.26-.17S1412.88,534.67,1413.09,534.67Z" style="fill:#002855"/><path d="M1421,534.67h2c.23,0,.25,0,.25.1s-.08.14-.21.17c-.57.12-.62.24-.64.37-.05.45-.06,1.42-.06,2.83,0,.72,0,1.62.06,1.93a.58.58,0,0,0,.34.36,5.14,5.14,0,0,0,.88.05h.68a.53.53,0,0,0,.36-.17,3.61,3.61,0,0,0,.57-.67c.1-.16.19-.2.24-.2s.07.1,0,.26c-.11.34-.2.7-.28,1,0,.09-.2.16-.24.16s-1-.06-2.92-.06c-.62,0-1.11,0-1.28,0s-.27,0-.27-.1.07-.16.22-.18c.53-.1.65-.28.71-.67,0-.23,0-1.65,0-3v-1.41c0-.31-.06-.42-.51-.51-.19,0-.26-.11-.26-.17S1420.79,534.67,1421,534.67Z" style="fill:#002855"/><path d="M1427.42,535.62c0-.45,0-.59-.57-.69-.22,0-.28-.11-.28-.17s.11-.12.26-.12h2.09c.17,0,.26,0,.26.12s-.1.14-.26.16c-.53.11-.56.35-.56.6s-.06.86-.06,2.7v1.51c0,.53.07.7.68.83.17,0,.25.1.25.17s-.15.12-.26.12c-.47,0-1.13-.05-1.43-.05h-.76c-.19,0-.26-.07-.26-.15s.09-.12.29-.16c.47-.11.51-.26.56-.7s.05-1.34.05-2.16C1427.45,537.12,1427.43,536,1427.42,535.62Z" style="fill:#002855"/><path d="M1434.14,537.36s0,.06,0,.07a1.71,1.71,0,0,1,1.18,1.58,1.62,1.62,0,0,1-.79,1.42,3.37,3.37,0,0,1-1.7.44c-.26,0-1.2,0-1.64,0h-.63c-.15,0-.29-.05-.29-.13s.15-.13.25-.15c.65-.13.67-.26.71-.56s.06-1.24.06-3.13a10.75,10.75,0,0,0,0-1.5c0-.22-.09-.31-.57-.37-.13,0-.25-.09-.25-.17s.12-.12.25-.12h.64c.32,0,1.21-.07,1.6-.07a2.74,2.74,0,0,1,1.35.29,1.39,1.39,0,0,1,.48,1.92,1.41,1.41,0,0,1-.58.53Zm-.57.51a2.17,2.17,0,0,0-1-.2,1.1,1.1,0,0,0-.4.08.55.55,0,0,0-.07.31c0,.25,0,1.55,0,1.87a.86.86,0,0,0,.15.32,1.08,1.08,0,0,0,.64.33,1.4,1.4,0,0,0,1.4-1.41v-.06a1.38,1.38,0,0,0-.76-1.23Zm-.9-3a2.83,2.83,0,0,0-.4.08.46.46,0,0,0-.11.16c0,.15,0,.56,0,2.1a.13.13,0,0,0,.11.13,3.36,3.36,0,0,0,1.29-.24,1.24,1.24,0,0,0-.85-2.23Z" style="fill:#002855"/><path d="M1440.3,537.54s-.24.12-.32.17a.13.13,0,0,0,0,.14,14.26,14.26,0,0,0,1.48,2.19,1.48,1.48,0,0,0,.91.57.18.18,0,0,1,.16.14s-.08.09-.14.11a1.54,1.54,0,0,1-.57.08,1.77,1.77,0,0,1-1.3-.62c-.32-.45-.81-1.19-1.19-1.81a2.28,2.28,0,0,0-.36-.46,1.56,1.56,0,0,0-.64-.13.13.13,0,0,0-.11.11c0,.17,0,1.4,0,1.92s.12.54.56.65c.16,0,.23.12.23.16s-.18.13-.25.13c-.38,0-.62-.06-1.23-.06l-.8,0c-.1,0-.26,0-.26-.14s.08-.1.21-.15c.43-.13.56-.2.61-.56s.06-1.35.06-2a24.35,24.35,0,0,0-.06-2.6c-.06-.32-.11-.37-.57-.48-.14,0-.22-.08-.22-.16s.07-.11.25-.11h.57c.35,0,1-.05,1.57-.05a2.42,2.42,0,0,1,1.58.41,1.57,1.57,0,0,1-.16,2.49Zm-.57-2.27a1.47,1.47,0,0,0-.92-.36,2.24,2.24,0,0,0-.44.07s-.1.17-.11.2c0,.34-.06,2.14,0,2.34a.2.2,0,0,0,.14.13,2.79,2.79,0,0,0,1.17-.24,1.42,1.42,0,0,0,.61-1.17,1.5,1.5,0,0,0-.48-.94Z" style="fill:#002855"/><path d="M1446.25,534.75l.42,1.17c.51,1.41,1.22,3.28,1.38,3.69.31.78.48.86.89,1,.15,0,.24.09.24.15s-.08.14-.32.14-.82,0-1.21,0h-.74c-.25,0-.29-.07-.29-.12s.05-.13.23-.16c.45-.09.42-.28.39-.47a12.89,12.89,0,0,0-.53-1.59s0-.1-.3-.1c-.63,0-1.38,0-1.57,0,0,0-.09.06-.11.09a6.37,6.37,0,0,0-.48,1.61c0,.12,0,.29.47.41.16.05.26.11.26.18s-.14.13-.28.13H1444c-.35,0-.84,0-1,0s-.24,0-.24-.11.06-.14.23-.19c.47-.16.6-.2.87-.82s1.29-3.35,1.69-4.3a2.18,2.18,0,0,0,.09-.24.69.69,0,0,1,.07-.15l.27-.42c.06-.08.11-.12.16-.12S1446.19,534.55,1446.25,534.75Zm.25,3.13c-.15-.47-.63-1.85-.73-2s0-.05-.08,0c-.17.46-.66,1.77-.74,2.06,0,0,0,.06.06.06h1.47S1446.51,537.92,1446.5,537.88Z" style="fill:#002855"/><path d="M1453.73,537.54s-.24.12-.32.17a.12.12,0,0,0,0,.14,13.52,13.52,0,0,0,1.47,2.19,1.5,1.5,0,0,0,.92.57.2.2,0,0,1,.16.14s-.09.09-.15.11a1.52,1.52,0,0,1-.56.08,1.71,1.71,0,0,1-1.3-.62c-.33-.45-.81-1.19-1.2-1.81a2.28,2.28,0,0,0-.36-.46,1.56,1.56,0,0,0-.64-.13.13.13,0,0,0-.11.11V540c0,.41.12.54.57.65.16,0,.22.12.22.16s-.18.13-.24.13c-.38,0-.62-.06-1.23-.06-.21,0-.7,0-.81,0s-.26,0-.26-.14.09-.1.21-.15c.43-.13.57-.2.61-.56s.06-1.35.06-2a24.35,24.35,0,0,0-.06-2.6c0-.32-.11-.37-.56-.48-.14,0-.23-.08-.23-.16s.07-.11.26-.11h.56c.35,0,1.06-.05,1.57-.05a2.39,2.39,0,0,1,1.58.41,1.58,1.58,0,0,1,.54,1.18A1.56,1.56,0,0,1,1453.73,537.54Zm-.6-2.27a1.44,1.44,0,0,0-.91-.36,2.13,2.13,0,0,0-.44.07s-.11.17-.12.2c0,.34-.05,2.14,0,2.34a.19.19,0,0,0,.14.13,2.79,2.79,0,0,0,1.17-.24,1.43,1.43,0,0,0,.61-1.17,1.52,1.52,0,0,0-.43-.94Z" style="fill:#002855"/><path d="M1455.87,534.64c.17,0,.68.05,1.13.05h.78c.15,0,.22,0,.22.1s-.07.15-.22.18c-.33.08-.28.2-.16.45s.81,1.36,1.22,2.06c0,0,.09,0,.11,0,.24-.35,1-1.53,1.2-1.94s.11-.46-.28-.56c-.15,0-.22-.13-.22-.2s.12-.08.22-.08h.63c.33,0,.92,0,1.08,0s.19,0,.19.09-.09.14-.24.19a1.78,1.78,0,0,0-1,.73c-.45.57-1,1.41-1.28,1.88a1.77,1.77,0,0,0-.21.57,19.62,19.62,0,0,0,.06,2c0,.21.14.33.67.46.18,0,.25.11.25.18s-.09.11-.29.11l-.88,0c-.56,0-1.21.06-1.35.06s-.23,0-.23-.1.06-.15.26-.19c.52-.11.61-.31.63-.45,0-.4,0-1.44,0-1.95a1.56,1.56,0,0,0-.1-.37,23,23,0,0,0-1.18-2c-.44-.7-.56-.81-1-.9-.18,0-.26-.12-.26-.19S1455.71,534.64,1455.87,534.64Z" style="fill:#002855"/><path d="M1390.07,550.44a3.28,3.28,0,0,1-1.33,2.72,3.54,3.54,0,0,1-1.92.57,3.34,3.34,0,0,1-2.48-1.09,3.25,3.25,0,0,1,.44-4.71,3.34,3.34,0,0,1,2-.67,3.18,3.18,0,0,1,3.32,3Zm-4.8-2.31a3,3,0,0,0-.73,2.26c0,1.43,1,3.06,2.51,3.06a1.59,1.59,0,0,0,1.21-.44,3.1,3.1,0,0,0,.8-2.27,3.47,3.47,0,0,0-1.13-2.6,2.38,2.38,0,0,0-1.39-.52A2,2,0,0,0,1385.27,548.13Z" style="fill:#002855"/><path d="M1393.89,547.45h1.54a.13.13,0,0,1,.12.11v1c0,.13,0,.26-.12.26s-.16-.09-.22-.3c-.15-.44-.26-.56-.57-.62q-.72,0-1.44,0a.21.21,0,0,0-.16.13c0,.25,0,1.47,0,2.1,0,.24,0,.36.09.36h1.33c.24,0,.38-.12.51-.44,0-.14.11-.24.19-.24s.1.1.1.21-.06.45-.06.62v.75c0,.12-.05.24-.14.24s-.11-.07-.15-.23c-.09-.35-.21-.4-.39-.45s-.42,0-.64,0a5.21,5.21,0,0,0-.79,0s-.07.08-.07.11c0,.27,0,1.53,0,1.79s0,.48.62.6c.16,0,.25.1.25.18s-.09.12-.29.12-.56,0-.91,0-1,.06-1.19.06-.26-.05-.26-.11.09-.15.25-.19c.5-.12.54-.33.56-.47s.07-1,.07-2.87v-1.69c0-.25-.17-.49-.56-.57-.2,0-.25-.1-.25-.17s.12-.12.26-.12h1.1Z" style="fill:#002855"/><path d="M1401.45,547.45H1403a.15.15,0,0,1,.13.11,7.53,7.53,0,0,0,0,1c0,.13,0,.26-.13.26s-.15-.09-.22-.3c-.14-.44-.25-.56-.57-.62q-.72,0-1.44,0a.18.18,0,0,0-.15.13c0,.25,0,1.47,0,2.1,0,.24,0,.36.09.36H1402c.2,0,.39-.12.51-.44.06-.14.1-.24.2-.24s.09.1.09.21-.06.45-.06.62v.75c0,.12,0,.24-.15.24s-.1-.07-.14-.23c-.1-.35-.22-.4-.39-.45s-.43,0-.64,0a5.34,5.34,0,0,0-.8,0,.36.36,0,0,0-.06.11c0,.27,0,1.53,0,1.79s0,.48.63.6c.15,0,.25.1.25.18s-.1.12-.29.12-.57,0-.92,0-1,.06-1.18.06-.26-.05-.26-.11.09-.15.25-.19c.49-.12.56-.33.56-.47s.07-1,.07-2.87v-1.69c0-.25-.17-.49-.57-.57-.18,0-.24-.1-.24-.17s.13-.12.27-.12h1.1Z" style="fill:#002855"/><path d="M1405.28,548.41c0-.45,0-.57-.57-.69-.21-.05-.28-.12-.28-.17s.11-.13.26-.13h2.1c.16,0,.26,0,.26.13s-.11.13-.26.16c-.57.11-.57.35-.57.61a26.77,26.77,0,0,0-.06,2.69c0,.66,0,1.21,0,1.52,0,.52.08.69.68.82.17,0,.26.09.26.17s-.16.13-.27.13c-.47,0-1.13-.06-1.42-.06h-.77c-.19,0-.26-.07-.26-.14s.09-.13.29-.17c.47-.1.51-.26.57-.7s0-1.33,0-2.15C1405.31,549.88,1405.29,548.73,1405.28,548.41Z" style="fill:#002855"/><path d="M1408.22,547.42h1.23a.42.42,0,0,1,.21.13c.15.17.39.47.76,1s2.5,2.76,3.11,3.43c0,.06.09,0,.09-.07.05-.29,0-1.34,0-2.6a7.63,7.63,0,0,0,0-1c0-.19-.09-.43-.61-.56-.19-.06-.26-.13-.26-.21s.12-.1.25-.1h.79c.36,0,.69,0,.94,0s.21,0,.21.1-.06.15-.22.19c-.42.12-.57.22-.61.71,0,.33-.1,2.35-.1,3.81,0,.4.07,1.13.07,1.32s-.07.2-.15.2a1.3,1.3,0,0,1-.45-.32c-.16-.21-.34-.46-.6-.77-.9-1.07-2.53-2.9-3.4-3.92,0-.05-.11,0-.11,0,0,.26,0,.52,0,1.27,0,1,0,2.26,0,2.6a.69.69,0,0,0,.6.7c.2.05.24.12.24.17s-.12.14-.3.14-.64-.05-1-.05h-.68c-.13,0-.25,0-.25-.1s.1-.14.2-.17c.44-.14.64-.18.67-.9s.19-3,.19-3.81c0-.36,0-.45-.08-.48a1.06,1.06,0,0,0-.78-.44c-.11,0-.21-.09-.21-.16S1408,547.42,1408.22,547.42Z" style="fill:#002855"/><path d="M1416.23,547.43h2c.23,0,.25,0,.25.11s-.08.13-.21.17c-.57.12-.61.23-.63.37-.06.45-.07,1.41-.07,2.83,0,.73,0,1.62.07,1.93a.56.56,0,0,0,.33.36,4.34,4.34,0,0,0,.88.06,4.59,4.59,0,0,0,.69,0,.59.59,0,0,0,.35-.18,3.32,3.32,0,0,0,.57-.67c.1-.15.19-.2.24-.2s.07.11,0,.26a8.22,8.22,0,0,0-.29,1c0,.1-.21.17-.24.17s-1-.06-2.93-.06c-.61,0-1.09,0-1.27,0s-.28,0-.28-.11.08-.15.24-.18c.52-.1.65-.28.69-.66s0-1.66,0-3v-1.41c0-.32-.06-.41-.51-.51-.19,0-.27-.1-.27-.17S1416,547.43,1416.23,547.43Z" style="fill:#002855"/><path d="M1425,547.5l.42,1.17c.51,1.42,1.22,3.28,1.38,3.69.31.78.48.86.89,1,.15,0,.24.08.24.15s-.08.14-.32.14-.82,0-1.21,0h-.74c-.25,0-.3-.07-.3-.12s.06-.13.24-.15c.44-.09.41-.28.39-.47a14.11,14.11,0,0,0-.53-1.59s-.06-.11-.29-.11a15.48,15.48,0,0,0-1.58,0s-.09.06-.11.09a6.82,6.82,0,0,0-.49,1.61c0,.12.06.28.48.4.16.05.26.11.26.19s-.14.12-.28.12l-.75,0c-.35,0-.84,0-1,0s-.23,0-.23-.11.06-.14.22-.18c.48-.16.61-.21.87-.82s1.31-3.35,1.7-4.3l.09-.25a.47.47,0,0,1,.06-.15l.27-.41c.07-.1.11-.12.16-.12S1424.89,547.32,1425,547.5Zm.25,3.13c-.15-.47-.63-1.86-.73-2s-.06-.05-.08,0c-.17.47-.66,1.78-.74,2.06a.06.06,0,0,0,0,.07h1.49s0,0,0-.08Z" style="fill:#002855"/><path d="M1428.74,547.42H1430a.36.36,0,0,1,.21.13c.15.17.38.47.76,1s2.49,2.76,3.1,3.43c.06.06.1,0,.1-.07,0-.29,0-1.34,0-2.6,0-.32,0-.68-.05-1s-.08-.43-.6-.56c-.19-.06-.27-.13-.27-.21s.13-.1.26-.1h.78c.37,0,.69,0,.94,0s.22,0,.22.1-.05.15-.23.19c-.42.12-.56.22-.6.71,0,.33-.11,2.35-.11,3.81,0,.4.07,1.13.07,1.32s-.07.2-.14.2a1.3,1.3,0,0,1-.45-.32c-.17-.21-.35-.46-.6-.77-.9-1.07-2.52-2.9-3.4-3.92,0-.05-.11,0-.11,0,0,.26,0,.52,0,1.27,0,1,0,2.26,0,2.6a.69.69,0,0,0,.6.7c.19.05.24.12.24.17s-.13.14-.31.14-.64-.05-1-.05h-.68c-.13,0-.25,0-.25-.1s.1-.14.19-.17c.46-.14.64-.18.68-.9s.18-3,.18-3.81c0-.36,0-.45-.07-.48a1,1,0,0,0-.79-.44c-.1,0-.21-.09-.21-.16S1428.54,547.42,1428.74,547.42Z" style="fill:#002855"/><path d="M1441.9,548.29a3.14,3.14,0,0,1,.88,2.11,3.23,3.23,0,0,1-1.52,2.75,4.54,4.54,0,0,1-2.26.53c-.39,0-1.26,0-1.88-.06h-.54c-.15,0-.3-.07-.3-.14s.09-.14.22-.15c.64-.07.68-.25.71-1,0-.46,0-.78,0-1.31s0-1.65,0-2.41,0-.75-.6-.84c-.11,0-.23-.07-.23-.14s.1-.14.24-.14h.32c.47,0,1.56-.07,2.35-.07A3.91,3.91,0,0,1,1441.9,548.29Zm-3.67-.56a.2.2,0,0,0-.1.12c0,.15,0,.94,0,1.8V551c0,.66,0,1.23,0,1.65a.79.79,0,0,0,.21.44,1.71,1.71,0,0,0,.76.25,2.92,2.92,0,0,0,1.7-.62,3.08,3.08,0,0,0,1-2.37,2.91,2.91,0,0,0-1-2.15,3.3,3.3,0,0,0-2-.57,1.38,1.38,0,0,0-.6.1Z" style="fill:#002855"/><rect x="1366.38" y="560.07" width="95.09" height="2.94" style="fill:#002855"/><path d="M1428.45,499.72l-2.26,0a3.29,3.29,0,0,1,1.46,1.51c1.19,1.91.51,4.95-1.83,5.65C1430.55,508.73,1432.46,501.76,1428.45,499.72Z" style="fill:#002855"/><path d="M1402.14,506.87c-2.34-.72-3-3.75-1.83-5.66a3.08,3.08,0,0,1,1.51-1.49h-2.26C1395.54,501.73,1397.39,508.74,1402.14,506.87Z" style="fill:#002855"/><path d="M1366.38,494.05v1.81l27.29.39a2.94,2.94,0,0,0,.46,1c.49.63.81.65.81.65h14.66a5.47,5.47,0,0,0,.16.7h-12.45a1.63,1.63,0,0,0,1.66,1.07h2.79a3.35,3.35,0,0,1,3,0h0a1.28,1.28,0,0,1,.25.15,3.77,3.77,0,0,1,1,.92l0,.05c1.76,2,2.46,4.7,3,7.31.24-2.32.14-4.48,1.7-6,.84-.82,1.89,0,2,1.09.19.8.17,3.07-.91,3.06a2.39,2.39,0,0,1-.67-2.44c.22-.74.84-.74.86.12s-.3,1-.57.15c-.18.53.23,1.84.73,1.16.71-1.41-.39-4-1.62-1.84-1.61,3.32-1,7.46-1.13,11.15-1-3.51-1.14-7.2-2.86-10.64v0a13.66,13.66,0,0,0-1.51-2.33,2.54,2.54,0,0,0-3.59-.31,2.65,2.65,0,0,0-.37.38c-1,1.45-.49,4.38,1.61,4.33,1.82-.13,2.38-4,.12-3.84a1.23,1.23,0,0,0-.07,2.27c-.42-.12-.53-1.36.07-1.46,1.19-.2.89,2.37-.05,2.26-2-.2-1.58-3.46,0-3.76,3-.37,3,5.55,0,5.43a3.55,3.55,0,0,1,3.66,2.66c-1.53-2.2-5.44-3.06-6.79-.26-.28.39-.52,2.1.42,1,3.15-3.18,6.51.74,7.12,4.12-.51-.73-.92-1.52-1.46-2.23-3.06-4.13-6.74.86-4.93,2,.66-.14.68-.91,1.7-1.13,1.89-.4,3.27,1.49,3.86,3.19a2.92,2.92,0,0,0-2.05-.73,3.24,3.24,0,0,0-2.26,1.57c-.18.37-.39,1.13.17,1.18.89,0,1.35-1,2.21-1.13a2.45,2.45,0,0,1,3,1.67l0,.14c.31,1.36.23,3,.92,4.17-2.74-.86-.27-6.93-4.42-5.44-.38.14.56.72.75,1.33a12.25,12.25,0,0,1,.31,1.58,3.27,3.27,0,0,0,1.19,2.57c.11.07.07.15.07.15h-.86a1.08,1.08,0,0,0-1.06,1.08v.44a1.08,1.08,0,0,0,1,1.13h16.88a1.07,1.07,0,0,0,1.05-1.09v-.5a1.07,1.07,0,0,0-1.05-1.09h-.86s0-.07.06-.15a3.27,3.27,0,0,0,1.2-2.57A10.76,10.76,0,0,1,1423,519c.18-.61,1.13-1.19.75-1.32-4.15-1.5-1.7,4.57-4.42,5.43.69-1.2.61-2.83.91-4.17a2.45,2.45,0,0,1,2.93-1.85l.15,0c.86.17,1.31,1.13,2.21,1.13.56-.06.35-.8.17-1.18a3.24,3.24,0,0,0-2.27-1.57,2.86,2.86,0,0,0-2,.73c.57-1.69,2-3.59,3.85-3.19,1,.22,1.07,1,1.7,1.13,1.81-1.13-1.87-6.14-4.92-2-.57.7-1,1.49-1.47,2.22.61-3.4,4-7.29,7.13-4.11.94,1.05.69-.65.42-1.05-1.36-2.82-5.27-1.94-6.79.26a3.54,3.54,0,0,1,3.66-2.66c-3,.12-3-5.8,0-5.43,1.59.3,2,3.56,0,3.76-.94.1-1.23-2.48,0-2.26.56.1.49,1.34.07,1.46,1.13-.31.83-2.16-.07-2.27-2.27-.1-1.7,3.71.12,3.85,2.1,0,2.58-2.88,1.61-4.34a2.56,2.56,0,0,0-3.58-.44,2.22,2.22,0,0,0-.38.37c-3.17,4.06-3.17,8.66-4.38,13-.1-3.69.51-7.83-1.13-11.15-1.23-2.21-2.33.42-1.63,1.84.51.68.92-.63.74-1.17-.26.86-.61.84-.57-.14s.66-.81.87-.12a2.52,2.52,0,0,1-.67,2.44c-1.08,0-1.1-2.27-.92-3.06.15-1.13,1.19-1.91,2-1.09,1.52,1.5,1.43,3.67,1.67,6,.52-2.6,1.22-5.29,3-7.3a5.15,5.15,0,0,1,.67-.65,3.39,3.39,0,0,1,2.22-.84,3.34,3.34,0,0,1,1.7.44h2.6a1.79,1.79,0,0,0,1.66-1.13h-12.47a4.18,4.18,0,0,0,.16-.7h14.66s.33,0,.82-.65a3,3,0,0,0,.45-1l27.3-.39v-1.8Zm50.35,2.16a.87.87,0,0,1-.65.68l-.9.19h0l.49-.79a1,1,0,0,1,.5-.39c.31-.09.56,0,.55.31Zm-2.12.29.18-.91a.94.94,0,0,1,.34-.57c.26-.2.56-.17.63.08a.9.9,0,0,1-.39.92l-.77.5Zm.2,1.37a1,1,0,0,1-.75.9c-1.13.21-1.44-1.48-.4-1.56,0,.28-.37.56-.14.87a.44.44,0,0,0,.76-.43c-.09-.36-.63-.6-.35-1.06a1.42,1.42,0,0,1,.86,1.28Zm-.88,3.87a4.12,4.12,0,0,0,.86-.09,7.5,7.5,0,0,0-.86,2.14h0a7.43,7.43,0,0,0-.88-2.12,3.61,3.61,0,0,0,.87.07Zm-.35-1.63c.11-.29.24-.56.35-.86h0l.36.86a1,1,0,0,1,0,.64c-.1.32-.36.46-.57.3a.88.88,0,0,1-.15-.94Zm0-4.77c.11-.3.24-.57.35-.87h0l.36.87a1,1,0,0,1,0,.64c-.1.31-.36.45-.57.29a.86.86,0,0,1-.15-.93Zm-1.47-.2c.08-.25.37-.29.63-.08a.93.93,0,0,1,.33.54c.07.3.13.61.18.92h0c-.25-.17-.51-.33-.76-.51a.85.85,0,0,1-.39-.87Zm-.42.78a1,1,0,0,1,.5.38c.17.26.33.53.49.79h0l-.9-.19a.86.86,0,0,1-.65-.68c0-.26.22-.4.55-.3Zm-4.46,4.4-.35-.61h3.44a2.84,2.84,0,0,0,.45.64Zm3.55-2.36c-.16-.21,0-.47.29-.56a.86.86,0,0,1,.63,0l.85.36h0l-.85.37A.85.85,0,0,1,1410.78,498Zm.37,1.39a.87.87,0,0,1,.65-.68l.9-.19h0c-.16.27-.32.53-.49.79a.92.92,0,0,1-.5.39c-.36.1-.6,0-.59-.31Zm1.58,1.19c-.26.21-.57.17-.63-.08a.87.87,0,0,1,.37-.87l.77-.51h0c0,.31-.12.61-.18.92A1,1,0,0,1,1412.73,500.54ZM1408.26,517c-.4,0-.24.69-.82.12-.47-.29-.14-.87.13-1.13,1-1.21,3.51-1.44,4.53-.38,1.48,1.77.8,4.78,1.49,7,.07.16.2.24.23.45-1.34-.5-1.65-2.05-1.73-3.75a9.23,9.23,0,0,0-.17-2c-.16-.88-.57-.71-1.09-.26s-1.7.81-2.33.39C1408.42,517.25,1408.39,517,1408.26,517Zm2.39-3.66a5,5,0,0,1,1.38-3.51,2,2,0,0,1,1.89-.24,2,2,0,0,1,1.9.24,5.09,5.09,0,0,1,1.38,3.51,3.64,3.64,0,0,1,0,.57h-.19a1.85,1.85,0,0,1,0-.23,2.7,2.7,0,0,0-.81-1.52c-.57-.57-1.3.33-1.89-.2a.39.39,0,1,0-.78,0c-.57.53-1.3-.35-1.89.2a2.63,2.63,0,0,0-.8,1.52.45.45,0,0,1,0,.23h-.18a2,2,0,0,1,0-.55Zm-.63,6.56a6.8,6.8,0,0,0,.45,1.76,8.33,8.33,0,0,0,.78,1.4c-.57.08-.89-.45-1.14-.81a4.93,4.93,0,0,1-1.09-2.83,1.67,1.67,0,0,1,0-.63c.09-.23.85-.25,1,0s0,.88,0,1.17Zm10,3.84c.3,0,.6,0,.89,0h0a.51.51,0,0,1,.35.65.49.49,0,0,1-.11.2c-.13.12-.48.11-.78.11h-13a1.55,1.55,0,0,1-.78-.11.51.51,0,0,1,0-.73.55.55,0,0,1,.21-.12h0c.29,0,.59,0,.89,0H1420Zm-2.18-5c.15-.19.92-.18,1,.06a1.62,1.62,0,0,1,0,.62,4.93,4.93,0,0,1-1.09,2.83c-.28.36-.57.89-1.17.81a8.39,8.39,0,0,0,.79-1.4,7.1,7.1,0,0,0,.44-1.76c0-.3-.12-1,0-1.15Zm2.41-2.78c.27.27.6.85.13,1.13-.56.57-.42-.09-.81-.12-.14,0-.17.29-.25.35-.65.42-1.8,0-2.33-.39s-.93-.62-1.09.26a9.92,9.92,0,0,0-.16,2c-.09,1.69-.39,3.24-1.74,3.74,0-.21.16-.29.23-.46.69-2.16,0-5.17,1.49-6.94,1-1,3.53-.81,4.53.4Zm-5-9.13c1.5.37,2,1.84,2,3.4h-.2c-.13-.89-.37-1.95-1.44-2-.64,0-1.32.28-1.79-.26-.47.57-1.13.26-1.78.26-1.07.07-1.32,1.13-1.45,2h-.19c0-1.54.56-3,2-3.4a8.71,8.71,0,0,0,2.76,0Zm.45-6.38c-.09.25-.37.29-.63.08a.92.92,0,0,1-.34-.56l-.18-.92h0l.77.51a.87.87,0,0,1,.36.89Zm.41-.78a1,1,0,0,1-.5-.38l-.49-.79h0l.9.19a.87.87,0,0,1,.65.68c0,.26-.25.4-.57.3Zm0-1.51-.86-.37h0l.84-.36a1,1,0,0,1,.63,0c.32.1.45.36.29.56a.85.85,0,0,1-.9.17Zm4.8,1.66-.34.53h-3.54a4,4,0,0,0,.44-.56Z" style="fill:#002855"/><polygon points="1422.04 527.25 1421.86 526.56 1405.98 526.56 1405.8 527.25 1366.38 527.25 1366.38 527.93 1461.47 527.93 1461.47 527.25 1422.04 527.25" style="fill:#002855"/><path d="M1376.27,510.13c0-1.62-.09-1.8-1.28-2.09-.32-.08-.47-.26-.47-.44s.33-.27.62-.27,1,.06,1.85.06c1.13,0,1.62-.08,2.16-.08.22,0,.44.16.44.34s-.24.31-.39.34c-1.08.29-1.13.5-1.18,1.47-.06.76-.06,2.83-.06,4.09V517c0,.89.29,1.06,1.4,1.35.35.09.48.23.48.37s-.39.37-.61.37-1.52-.08-2.15-.08-1.75.12-2.09.12-.49-.14-.49-.29.22-.34.46-.44c1-.34,1.13-.51,1.17-.89s.13-3.18.13-4.74Z" style="fill:#002855"/><path d="M1393.31,514.12c-.26-2.46-1.55-4.31-4.15-4.57-1.26-.21-3.2.14-3.63,1.45,2-1.57,4.62-.69,5.29,2,1,2.86-1.45,6.88-4.33,4.73-2.19-1.92-2.07-5.91-1.29-8.34a9.77,9.77,0,0,1,6.91-6.36c-6.12.25-11.61,6.89-9,13a5.72,5.72,0,0,0,7.65,3A5,5,0,0,0,1393.31,514.12Z" style="fill:#002855"/><path d="M1449,506.86a6.71,6.71,0,0,0-4.64,2.06,6.49,6.49,0,0,0-1.7,4.39v.06H1440v-8.6l-9.19,10.66,7.2,0v8.92l2-1.57v-7.27h3.1a6.19,6.19,0,0,0,1.44,2.26,6.4,6.4,0,0,0,10.92-4.4v-.18a6.22,6.22,0,0,0-6.07-6.37Zm-14.8,6.47,3.66-4.26,0,4.3Zm17.54,4.46a3.25,3.25,0,0,1-2.26.87,4.14,4.14,0,0,1-3.36-1.77,6.54,6.54,0,0,1-1.23-3.82,5.87,5.87,0,0,1,1.38-4.13,3.91,3.91,0,0,1,2.43-1.13c2.21,0,4.49,2,4.49,5.46,0,2.71-.94,4-1.47,4.52Z" style="fill:#002855"/><path d="M1338.59,557.36h-3.93v1.06h1.39v4.49h1.15v-4.49h1.39Zm-7.29,4-.68.85a3,3,0,0,0,2.06.82,1.68,1.68,0,0,0,1.86-1.67v0c0-.86-.52-1.28-1.49-1.66s-1.06-.5-1.06-.82h0c0-.29.25-.48.65-.48a2,2,0,0,1,1.18.51l.64-.87a2.64,2.64,0,0,0-1.79-.68,1.65,1.65,0,0,0-1.82,1.62v0c0,1,.61,1.33,1.6,1.71.79.3,1,.47,1,.75h0c0,.32-.27.55-.72.55a2.19,2.19,0,0,1-1.38-.63m-1-4h-1.15v5.55h1.15Zm-3.57,1a.83.83,0,0,1,1,.89h0a.85.85,0,0,1-.93.89h-.64V558.4Zm.08-1H1325v5.55h1.15v-1.69h.65a1.9,1.9,0,0,0,2.08-1.94v0a1.83,1.83,0,0,0-2-1.9m-6.19,2.74c0-1.09.55-1.77,1.32-1.77s1.33.69,1.33,1.78v.06c0,1.09-.55,1.78-1.32,1.78s-1.33-.69-1.33-1.79Zm-1.18,0v.09A2.56,2.56,0,0,0,1322,563a2.59,2.59,0,0,0,2.52-2.83v-.1a2.53,2.53,0,1,0-5,0m-.52-2.74h-1.15v5.55h1.15Zm-3.69,0h-1.15v5.55h3.39v-1h-2.24v-4.5Zm-4.83,0h-1.31l1.81,3.36v2.19h1.16v-2.2l1.81-3.35h-1.27l-1.11,2.18Zm-6.08,0h-1.06v5.55h1.13v-3.35l2.2,3.35h1v-5.55h-1.13v3.24Zm-1.79,0h-1.15v5.55h1.15Zm-6.34,2.74v.08a2.55,2.55,0,0,0,2.57,2.81,3.2,3.2,0,0,0,2-.69v-2.57h-2.1v1h1v1a1.43,1.43,0,0,1-.83.23c-.81,0-1.44-.65-1.44-1.79v-.06c0-1,.6-1.75,1.4-1.75a1.59,1.59,0,0,1,1.15.48l.68-.9a2.67,2.67,0,0,0-4.41,2.17m-3.75-2.74h-1.06v5.55h1.13v-3.35l2.2,3.35h1v-5.55h-1.13v3.24Zm-1.79,0h-1.15v5.55h1.15Zm-4.85,4-.68.85a3,3,0,0,0,2,.82,1.69,1.69,0,0,0,1.87-1.67v0c0-.86-.53-1.28-1.49-1.66s-1.06-.5-1.06-.82h0c0-.29.25-.48.64-.48a2,2,0,0,1,1.19.51l.64-.87a2.64,2.64,0,0,0-1.8-.68,1.64,1.64,0,0,0-1.81,1.62v0c0,1,.61,1.33,1.59,1.71.8.3,1,.47,1,.75h0c0,.32-.27.55-.72.55a2.16,2.16,0,0,1-1.38-.63m-3-4h-1.15v5.55h3.4v-1h-2.25Zm-1.72,0h-3.58v5.55h3.61v-1h-2.47v-1.23h2.15v-1h-2.15v-1.2h2.44Zm-5.46,5.55h1.15v-5.55h-1.15v2.23h-1.82v-2.23h-1.15v5.55h1.15v-2.26h1.82Zm66.8-2.74c0,1.09-.55,1.78-1.32,1.78s-1.34-.69-1.34-1.79v-.06c0-1.09.55-1.77,1.33-1.77s1.33.69,1.33,1.78v.06Zm1.19,0v-.1a2.53,2.53,0,1,0-5,0v.09a2.56,2.56,0,0,0,2.51,2.82,2.59,2.59,0,0,0,2.52-2.83" style="fill:#333"/><path d="M1338.78,532.21c-2.21-4.87-7.18-5.58-10.29-7.6-1.49-1-2.09-2.92-2.33-4.55-1.46.15-3.9.17-5.07-2.79-.91-2.33-.53-6.19-3.6-9.46a11.48,11.48,0,0,0-9.36-3.73c3.85,2.58,2.33,6.47-.47,6.47-3.9,0-5-4.7-10.69-4.7a5.94,5.94,0,0,0-3.17.88c3.19.41,4,3,5,5.4a6.05,6.05,0,0,0,4.3,3.56,5.58,5.58,0,0,1-2.44.48c-2.52,0-4.27-1.33-6.08-3.19-1.58-1.64-3.36-3.19-6.33-3.19a5.81,5.81,0,0,0-3,.73c1.63.25,4,1.23,4,3,0,1.48-1.64,2-3,.63a8.33,8.33,0,0,0-6-2.76,4.59,4.59,0,0,0-2.86.86c2.83.33,4.51,2.15,6.26,6.21,1,2.29,2.4,4.45,6,4.49,1.62,0,3.91-.75,5.26.54s.84,2.83,1.43,4.13c.73,1.64,2.25,2.48,5.23,2.64-2.47,2.06-8.37.82-10.38-1.29.27,5.28,4.43,10,12.7,7.79,1.44-.39,2.46-.17,3,1.29.75,2,2.55,2.32,4.25,2.11,3.89-.48,6.19.31,8.43,3,.49-4.42-2.67-7-4.66-8.26a3.74,3.74,0,0,1-2.1-3.37,7.78,7.78,0,0,0,5,2.49c3.21.45,5.51,1.35,6.72,3.07.36-4.86-4.74-6-5.37-8a6.52,6.52,0,0,0,4.46,1.31c2.23-.17,4.94-1.92,6.94,1.5,2.56-1.66,5.9-1.06,8.15.39m-33.53,19.31H1311v-5.75h-5.75Zm0-51.73H1311v-5.74h-5.75Zm5.75,25.86h-5.75v-5.74H1311Z" style="fill:#333"/><path d="M1099.79,510.33c.64-.1.63.71.64.83a17.65,17.65,0,0,1,.06,1.82v19.8c0,1.56,0,7.34,0,7.53,0,1.36.46,1.74,1.51,1.86,2.44.27,1.42,1.3,1.13,1.33a5.27,5.27,0,0,1-1.39-.06c-.3-.06-2.17-.08-2.78-.09a33.12,33.12,0,0,0-4.11.21c-.55.11-1.22,0-1.36-.38a.6.6,0,0,1,.46-.84,4.9,4.9,0,0,0,.9-.06c.54-.14,1.72-.52,1.91-1a7.11,7.11,0,0,0,.08-2.09V516.07a4.29,4.29,0,0,0-.37-2.34,2.58,2.58,0,0,0-.84-.52c-.66-.18-1,.2-1.39,0a.89.89,0,0,1-.26-.29c-.15-.28.12-.63.26-.73a8.8,8.8,0,0,1,2-.49C1097.13,511.43,1099.49,510.41,1099.79,510.33Zm-67.67,2.79a12.37,12.37,0,0,1,2.55.12l8.57-.12c6.06,0,8.22,2.48,9.41,4.43a9.44,9.44,0,0,1,.26,7.59,9.16,9.16,0,0,1-4,4.23c-.71.36-3.45,1.62-7.68,0a3.32,3.32,0,0,0-1.82-.47,8.52,8.52,0,0,0-.18,2.93v6.31a8.08,8.08,0,0,0,.26,2.81c.33.52,1.47.87,3,.91a.87.87,0,0,1,.58,1.12c-.26.58-1.5.57-2.25.4a39.53,39.53,0,0,0-8.17.09c-.7.09-1.7-.31-1.51-1a.88.88,0,0,1,.87-.67c1.06,0,2.35-.26,2.67-.72a4.53,4.53,0,0,0,.29-2.18v-21a9.59,9.59,0,0,0-.06-2c-.26-1-1-.94-1.94-1.16-.33-.07-.82.07-1.07-.08a.8.8,0,0,1-.29-1.19C1031.71,513.26,1032,513.24,1032.12,513.12Zm13.74,2.32c2.62,1,6.92,9.61-1.09,12.57a6.93,6.93,0,0,1-4.46-.38c-.33-.14-.76-.26-.89-.58a6.35,6.35,0,0,1-.21-2.29c0-1.34,0-8.15,0-8.26a1.49,1.49,0,0,1,.45-1.19C1041.64,513.68,1045.35,515.24,1045.86,515.44Zm26.4,8a8.29,8.29,0,0,1,2.78,5,1.46,1.46,0,0,1-.29,1.25c-.84.63-3.15.4-4.61.4h-7.93c-1.24,0-3.9-.15-4.06.12-.75,1.17-.23,4,.12,5.24a8.41,8.41,0,0,0,5,5.85,7.39,7.39,0,0,0,1,.32,2,2,0,0,0,.35.09,13.35,13.35,0,0,0,2.81.22,7.3,7.3,0,0,0,.92-.08c.46-.11.95-.15,1.39-.29a11,11,0,0,0,2.93-1.45c.54-.39,1.1-1.41,1.85-1.16.5.3.15.94-.2,1.45a8.15,8.15,0,0,1-2.4,2.12,13.94,13.94,0,0,1-3.65,1.59,13.26,13.26,0,0,1-7.85-.52c-.58-.29-1.2-.56-1.74-.9a10.61,10.61,0,0,1-4.43-6A12.62,12.62,0,0,1,1054,531a12.15,12.15,0,0,1,3.8-6.95,12,12,0,0,1,4.28-2.26C1062.8,521.58,1068.73,520.08,1072.26,523.43Zm21-.9c.9,1.11.07,2.63-.78,3.19a2.07,2.07,0,0,1-1.88.06c-.42-.16-1.93-1.4-2.61-1.63a2.42,2.42,0,0,0-1.94.41c-1.48.93-1.89,2.63-2.37,4.57a25.78,25.78,0,0,0-.12,3.16V538c0,1.21-.14,2.7.38,3.41a2.57,2.57,0,0,0,2.23.84c2,0,2,.29,2,.72,0,.23-.3.52-.7.59-.22,0-4.45-.31-5.32-.29-1.1,0-3.78.21-4.09.2-.61,0-1.26.09-1.27-.67,0-.2.21-.37.37-.46s.59,0,.87-.12c.89-.22,1.44-.32,1.77-1.13a24,24,0,0,0,.14-3.5V528a5.24,5.24,0,0,0,0-1c-.07-.35.06-.72,0-1-.2-.52-.58-.61-1.16-.61-1.91,0-.87-1-.61-1.16s.33-.09.49-.15a8.56,8.56,0,0,0,3.22-2,4.34,4.34,0,0,1,.84-.7.59.59,0,0,1,.37,0,.72.72,0,0,1,.38.44v2.69c0,.27-.07.76.06.93l0,.06c.42-.1.64-.58.9-.84a18.63,18.63,0,0,1,2.2-2.06,7.43,7.43,0,0,1,2.09-1C1089,521.45,1091.75,520.71,1093.22,522.53Zm-23,2.38c.38.54.93,1.76.4,2.57a2.62,2.62,0,0,1-1.44.82,11.93,11.93,0,0,1-2.73.29l-7,0c-.3,0-.73.05-.9-.08s-.29-.47-.2-.79a6.36,6.36,0,0,1,.69-1.79,7.91,7.91,0,0,1,3.88-3.07C1065.61,522,1069.26,523.5,1070.26,524.91ZM1102.68,542a1.72,1.72,0,0,1-1.72-1.73,1.71,1.71,0,0,1,1.72-1.72,1.72,1.72,0,0,1,1.22,2.94A1.64,1.64,0,0,1,1102.68,542Zm0-.2a1.54,1.54,0,1,0-1.08-.45A1.47,1.47,0,0,0,1102.68,541.79Zm0-.67V541h-.14l0,0a.41.41,0,0,1,0-.14v-.57h.11a.31.31,0,0,1,.15,0,.3.3,0,0,1,.09.1l.14.29a1.93,1.93,0,0,0,.2.39.26.26,0,0,0,.18,0h.28V541a.12.12,0,0,1-.11,0,1.27,1.27,0,0,1-.2-.35l-.08-.15-.09-.14-.1-.09a.35.35,0,0,0-.12,0,1.09,1.09,0,0,0,.28-.11.5.5,0,0,0,.15-.17.42.42,0,0,0,.06-.21.53.53,0,0,0-.06-.24.44.44,0,0,0-.2-.18,1,1,0,0,0-.39-.06h-.84v.1h.14a.1.1,0,0,1,0,0s0,.07,0,.14v1.34a.25.25,0,0,1,0,.11l0,0h-.16v.1Zm-.21-1.66a.19.19,0,0,1,0-.08.05.05,0,0,1,0,0h.15a.41.41,0,0,1,.27.1.39.39,0,0,1,.1.29.48.48,0,0,1-.09.29.46.46,0,0,1-.37.12h-.13Z" style="fill:#333;fill-rule:evenodd"/><path d="M1026.1,528.06A16.15,16.15,0,1,1,1010,511.91a16.15,16.15,0,0,1,16.15,16.15Zm-16.74-15.72c-.3-.2-.27,1.64-.27,1.64s.13,4.18,0,5.35a8.61,8.61,0,0,1-1,2.9,41.9,41.9,0,0,1-2.67,3.75,8.38,8.38,0,0,0-1.81,4.74,10.4,10.4,0,0,0,2,5.55c1,1.2,2.91,3.27,3.38,2.67.26-.34-.94-1.83-1.64-2.91a12.73,12.73,0,0,1-1.64-5.21,11.37,11.37,0,0,1,1.77-5.31,13,13,0,0,0,1.94-3.81,49.34,49.34,0,0,0,.23-6.92c0-1.07-.06-2.24-.36-2.44Zm-.81,2c-.3-.14-.3.53-.26.86s-.07,1.24,0,2.24a3.2,3.2,0,0,1-.83,2.34,10.93,10.93,0,0,1-2.61,2.17,22.12,22.12,0,0,0-4.64,4,6.84,6.84,0,0,0-1.67,4.48,9,9,0,0,0,2.2,6.15,13.12,13.12,0,0,0,4.88,3c.77.27,1.47.5,1.64.17s-.57-.61-1.3-1a11.2,11.2,0,0,1-3.11-2.68,7,7,0,0,1-1.87-4.54,7.46,7.46,0,0,1,1.3-4.58,56.65,56.65,0,0,1,4.31-4.91c.87-.87,2-2.1,2.14-3.57s.2-3,.2-3.35,0-.73-.34-.86Zm12.65,14.93c-.54-3.43-4.14-5.65-6.83-7.33-1.17-.73-3.07-1.69-3.31-3.23a13.94,13.94,0,0,1-.12-1.94c0-.25,0-.5,0-.76s-.36.08-.54-.2c-.45-.71-.28.21-.23.58a22.78,22.78,0,0,1,.22,2.61,20.69,20.69,0,0,1-.7,4.89c-1,3.78-1.75,7.65-.79,11.52a14.19,14.19,0,0,0,.81,2.35c.1.22.3.86.59.93a5.3,5.3,0,0,1,2.62,1.12c.51.48.89.22,1.49,0a11.45,11.45,0,0,0,4.7-3.16,8.75,8.75,0,0,0,2.13-7.36m-1.93,3.46a7.33,7.33,0,0,1-1.95,3.73,6.87,6.87,0,0,1-2.52,2.09c-.35.13.07-.57.12-.65a15.32,15.32,0,0,1,1-1.27,7.66,7.66,0,0,0,1.25-2,8.66,8.66,0,0,0-.7-7.75,15.65,15.65,0,0,0-3-3.19,12.86,12.86,0,0,1-1.52-1.43c-.11-.13-1-1.33-.74-1.5.09-.06,2.1,2,2.32,2.21.82.63,1.68,1.2,2.44,1.91a10.9,10.9,0,0,1,2.7,3.31,8.57,8.57,0,0,1,.58,4.56m-8,7.61c-.17,0-.06.73.24,1.1s.82.59.88.44-.37-.23-.69-.59-.22-.94-.43-.95Zm-1.18-.12c-.15,0-.15.41-.15.92s0,.94.15.94.16-.42.16-.94C1010.21,541.12,1010.26,540.2,1010.05,540.2Zm-1,.21c-.19,0-.12.55-.38.84s-.67.39-.61.52.51-.06.78-.39.36-1,.21-1Z" style="fill:#41436d;fill-rule:evenodd"/><rect width="1480" height="580" style="fill:none"/></g><g id="Layer_1-2" data-name="Layer 1"><path d="M1459.13,369.59V256.18h-8.81l3.86-14.79,5-1.33-32.28-1.27-10.18,4.89,1,1.27v11.41h-1V323h-7.11V244.22h-4.73l-.48-5.54,2.53-9.65,5-2.45L1383.36,225l-8.26,8.15.82,1.4v9.92h-.82v72.26l-1.9.05v-4.68h-3.81V263.5h-.69v-14l-27.37-3.81,6.23,6.57.1,11h-6.88v55.34l-3.16.08v4.32c-13.43.13-34.58.38-61.73.75V291.94h-17.41l-9-7.27-1.16-60.2h-3.48V216l-2-1.16-1.74.58V203h-2.61c-.1-11.21-8.41-10.47-8.41-10.47v-4.37c0-.89-.71-1.43-1.75-1.45,0-.64,0-2.62,0-2.62H1230v-2h-1.75v-2H1226v2h-1.74v2H1226v2.62a1.51,1.51,0,0,0-1.45,1.45c0,.85,0,4.37,0,4.37s-8.55-1-8.7,10.47a12.11,12.11,0,0,1-2.91,0l.29,12.79-1.74-.87-2.61,1.46v7.85h-3.19l-.87,59.91-9.29,7.85h-16.83l.09,20.11h-9.63v.45l-.54,7.91h-10.3v2h-2.17v-3.61h-5.41l.54-3.85-8.67-.22v-3.62h-6l.54-5.65-10.84-.68v-2.49h-7l-.54,1.81h-1.63V308l-2.71-.46-1.08,7.69h-6l-1.08,3.17H1103v-1.59h-7.58l-4.88,1.13v-2.71h-6.78v2.9l-8.91.14-.59-4.22-5.93-.4v-7.92h-1.09l-5.42-.45v-5.42h-2.43V296.9l-9.22-.23v3.17H1046v-9.56l-2.07-2v-24l-2.51-5.65-.94-18.84V223l-1.39-4-1.55,4-1.13,14.88-7.52-71.57-.75-3,.38-1.51v-3l-.38-2.64V154.3l-.75-1.13.38-.76-.38-1.88v-2.26l-.75-1.51-.63-2.15.16-1.15-.78-1.53v-2H1027v-1.5h-1.63v-3h-1.76v3h-1.5V140h1.5V142l-1.13,2.08.38.76-.75,2.26.37,1.13-.75,1.88v1.51l.38,1.51-.38,1.5v1.51l-.37,1.51.37.75-.37,1.51-.75,1.88L1021,163v1.13l-5.45,73.83L1014.37,223l-1.27-4-1.47,4V239.8l-.77,19.59-1.5,4.9-.32,24-1.81,2-16.6-16.5h-.79l-16.6,16.5-1.82-2-.31-24-1.51-4.9-.76-19.59V223l-1.47-4-1.27,4-1.19,14.88-5.45-73.83V163l.37-1.13-.75-1.88-.38-1.51.38-.75-.38-1.51v-1.51l-.37-1.5.37-1.51v-1.51l-.75-1.88.38-1.13-.75-2.26.37-.76L956.83,142V140h1.5v-1.5h-1.5v-3h-1.76v3h-1.63V140h1.63v2l-.78,1.53.15,1.15-.62,2.15-.75,1.51v2.26l-.38,1.88.38.76-.75,1.13v1.88l-.38,2.64v3l.38,1.51-.76,3-7.51,71.57L942.92,223l-1.56-4L940,223V239.8L939,258.64l-2.5,5.65v24l-2.07,2v33.24l-4.36,0v1.17l-7,.5v2.17h-4.33v-8.52l-7.59.16-.54-3.67L903,315h-1.08l-1.08-2.84-6,.17v-4.68H865.63v6.52l-6.51.17v8h-.19V242.49l-7.76-4.24V222.69s2.56-22.61-19.06-26.88c-.58-4.44-.71-7.07-.71-7.07s6.1-5.17-3.53-7.78v-6.37s4-2.63,0-5l-1.7-9.94-1.82,9.94s-4.05,1.9,0,5V181s-8.43,1.52-3.53,7.78c-.33,4.81-.71,7.07-.71,7.07s-19.08,3.06-19.06,26.88c-.11,2.33,0,15.56,0,15.56l-7,4.24v13.44H773.53V233.3s-.45-5.47-8.47-7.07a12,12,0,0,0-1.41-2.83V153.64l4.85-4.24v-3.54l-3.86-1.06,0-5,5.56-1.41v-2.13l-6.53-1.41s.37-50-45.88-55.09c-.92-5.84-1.41-14.15-1.41-14.15s5.42-3-4.23-5.66c0-4.67-.1-6.25,0-7.78,8,0,8.81-13.23,0-13.44,0-.05,0-6.42,0-6.42h4.56V30.1h-4.56V24.8h-2.22v5.3h-4.56v2.26h4.56s0,6.49,0,6.42c-8.81.21-8,13.45,0,13.44.09,1.53,0,3.11,0,7.78-9.65,2.67-4.24,5.66-4.24,5.66s-.48,8.31-1.41,14.15c-45.81,5.47-45.87,55.09-45.87,55.09l-6.53,1.41v2.13l5.56,1.41-.14,5-3.74,1.06v3.54l4.85,4.24V223.4a11.68,11.68,0,0,0-1.42,2.83c-8,1.6-8.46,7.07-8.46,7.07v22.63H628V242.49L621,238.25s.11-13.23,0-15.56c0-23.82-19.06-26.88-19.06-26.88s-.37-2.26-.7-7.07c4.89-6.26-3.53-7.78-3.53-7.78v-6.37c4-3.05,0-5,0-5l-1.82-9.94-1.71,9.94c-4,2.32,0,5,0,5V181c-9.63,2.61-3.53,7.78-3.53,7.78s-.12,2.63-.7,7.07c-21.63,4.27-19.06,26.88-19.06,26.88v15.56l-7.76,4.24v70.77h-.57v-4.35h-6v-2h-4.33v-8h-16.8v2.84l-5.42.67v3.85l-3.79.16-.54,2.18h-4.34l-.54-1v-.33l-1.08-.17-6.51.17-.54.67-5.42.16-.54,2.85-6,.5v4.51l-6.5.5.54,1h-5.42v2.18l-1.62.16-7,.34v1.17l-3.92.83,0-3.75-.54-55.17h-2.06l-.07-8h-.54v-1.61h-.53V251.4h-.54c-1-2.11-1-2.73-3.2-3.75-.61-.6,0-.23-1.07-.53v.53h-1.07v.54a3.58,3.58,0,0,1-2.67,1.07V235.33H460.8v-5.89c-1.34-1.14-1.73-2.69-2.67-4.29h-.53v-1.07h-.54l-.53-1.07h-1.07c-.18-.35-.36-.71-.53-1.07l-4.28-2.14c-1,1.55-2.76,1.6-4.28,2.68V223l-2.13,1.61v1.07l-1.61,1.07v1.07l-1.07.54c-.17.71-.35,1.43-.53,2.14h-.54l.54,4.82h-3.74v13.39c-2.63-.18-2.65-1.13-4.81-1.6-.83,1.26-1.55.85-2.14,1.6-.18.54-.36,1.08-.53,1.61l-1.07.54V253l-1.07.53v10.18H425V341.6q-9.11.36-17.29.72l-1-6.05h-2.16l-1.07-3.62-12.38.45v6.78H390v3.17h-4.3l-.54-6.1h-8.61v2.48h-5.38l-1.08-4.52-.53-.23-1.37-.21a5.92,5.92,0,0,0-.92-3.79L363.52,328c-5.36-5.53-6.45-7.34-9.62-17.14l-1.6-1.07-.54-1.07L347,307.65c-8.24-2.26-9.15-3.11-15.5-8.57,0-.18-2.34-3.23-4.27-3.75-.69-.59-4.31-.41-5.88,0a5.72,5.72,0,0,1-2.77.4c-7-1.53-15.13-.68-19.15-5.23a2.78,2.78,0,0,0-4.27,0c-11.44,5-23.83,5.58-24.59,4.83a4.54,4.54,0,0,0-.94-.63c-3.74-1-4.42,1.71-6,3.84a98.35,98.35,0,0,1-14,7.64c-.16.07-.39.75-.39.93-.35,0-.81-.25-1.07,0s.12.4,0,.54c-1,1.28-3.44.16-4.81,1.07a7.14,7.14,0,0,0-2.67,3.75c-.16.51.38,1.22,0,1.6-.12.13-.39-.1-.53,0-.92.66-.7,2.15-1.07,3.22-1.2,3.48-5.15,8.63-7,10.18-1.63,1.39-3.21,2.85-4.81,4.28-1.54,2.4.22,6.88-.41,10.17h-.91v-2H215.69l-.54-7.91v-.45H203.86v-2l-2.15,0V314.56H185v8.82l-7,.45.53,6.56-1.61.22v2h-4.3l-3.23,2.71v2l-4.84.68-.54,5.42-4.3.68v1.36h-7.54l.54,2h-9.14v.68l-.54,3.62h-1l-.14-.17c-3.47-2-3.77-1.95-5.18-6.13H117.67c-2.06,0-6-.56-7.45.32-1.91,1.21.3,4.52-1,6.78-.86,1.51-2.11.54-3.88,1.29l-.65,1h-3.24l-1.3,1.29q-.09.48-.15,1c-17.9.48-32.24.8-37.94.8v-4.29H51.4V358H41.24v-.54H40.17c-.18-.36-.36-.71-.53-1.07l-3.21-.54v-.53H34.29v-.54h-1.6v-.53l-5.35,1.07v.53l-3.74.54-.53,1.07q-1.87,1.6-3.74,3.22V366M1453.39,241.55l-3.77,14.63h-.32l.84-14Zm-6.91,1.41,2.94-.6-.79,13.82h-2.3Zm-43.58,1.26.94-3.59.32,3.59Zm3.12-14.78-1.85,7.17-.51-6Zm-6.73,3.3,3.69-1.81.68,7.67-1.45,5.62h-3Z" style="fill:none;stroke:#002855;stroke-linejoin:round;stroke-width:4.2519683837890625px"/></g></g></svg>