<?xml version="1.0" standalone="no"?>
<!DOCTYPE svg PUBLIC "-//W3C//DTD SVG 20010904//EN"
 "http://www.w3.org/TR/2001/REC-SVG-20010904/DTD/svg10.dtd">
<svg version="1.0" xmlns="http://www.w3.org/2000/svg"
 width="1000.000000pt" height="1000.000000pt" viewBox="0 0 1000.000000 1000.000000"
 preserveAspectRatio="xMidYMid meet">
<metadata>
Created by potrace 1.14, written by Peter Selinger 2001-2017
</metadata>
<g transform="translate(0.000000,1000.000000) scale(0.100000,-0.100000)"
fill="#000000" stroke="none">
<path d="M5321 9269 c-89 -11 -198 -37 -232 -54 -37 -20 -63 -19 -55 0 4 12 0
14 -22 8 -14 -3 -33 -5 -42 -4 -62 11 -115 0 -193 -39 -45 -23 -93 -52 -108
-66 l-25 -24 -93 20 c-105 23 -131 34 -131 55 0 8 -7 15 -16 15 -8 0 -12 -4
-9 -10 3 -6 -1 -7 -10 -3 -13 4 -14 8 -4 14 10 6 6 10 -12 17 -14 6 -31 17
-38 26 -13 15 -15 15 -28 -4 -8 -11 -18 -18 -23 -15 -22 13 -34 -32 -36 -132
-2 -58 -7 -110 -12 -115 -4 -4 -132 -10 -283 -11 l-274 -3 -70 -31 c-38 -16
-77 -33 -85 -37 -57 -25 -126 -81 -178 -147 -85 -106 -101 -155 -82 -244 7
-33 -4 -60 -36 -88 -86 -76 -121 -159 -133 -312 -13 -166 0 -194 102 -230 37
-13 75 -33 85 -45 19 -23 77 -39 152 -40 56 -1 146 -33 142 -50 -1 -7 5 -19
15 -27 17 -14 17 -14 -1 -9 -17 6 -17 4 3 -26 20 -32 22 -33 81 -30 33 2 60 1
60 -2 0 -6 -71 -39 -107 -50 -13 -4 -23 -14 -23 -21 0 -13 -38 -41 -45 -33
-19 22 -42 87 -34 99 5 8 9 19 9 26 0 16 -73 30 -78 14 -2 -6 -10 -11 -18 -11
-22 0 -53 -79 -51 -127 0 -23 4 -41 7 -40 3 1 15 -8 27 -20 21 -21 80 -43 115
-43 10 0 41 -10 69 -22 40 -18 47 -24 32 -29 -17 -7 -17 -8 0 -8 9 -1 17 -6
17 -13 0 -6 8 -4 19 6 11 10 25 15 30 11 6 -3 11 -2 11 4 0 17 52 61 97 83 23
11 47 26 54 34 13 16 35 18 44 4 3 -5 0 -8 -7 -5 -22 8 -53 -28 -70 -80 -22
-65 -16 -68 11 -5 12 27 25 50 30 50 5 0 15 -10 24 -22 15 -23 15 -23 22 14 4
21 5 44 2 52 -4 9 2 17 13 21 26 8 41 -2 33 -22 -4 -11 -3 -14 6 -9 7 5 10 15
7 23 -7 18 49 73 75 73 12 0 16 -5 13 -14 -11 -29 15 -24 45 9 44 49 82 66
118 56 70 -20 93 -49 56 -70 -30 -17 80 -41 177 -38 89 2 118 -6 101 -27 -6
-7 -6 -17 -1 -26 5 -8 6 -18 3 -23 -3 -5 4 -15 14 -22 44 -31 60 -162 26 -210
-25 -35 -77 -194 -127 -389 -20 -77 -52 -173 -70 -215 -19 -42 -37 -87 -41
-101 -4 -14 -42 -91 -84 -173 -101 -197 -123 -240 -160 -317 -16 -36 -41 -85
-55 -110 -80 -149 -276 -591 -276 -622 0 -8 -4 -18 -9 -23 -10 -12 -68 -157
-123 -310 -90 -250 -162 -551 -153 -635 3 -25 7 -63 10 -85 2 -22 10 -73 16
-112 7 -40 9 -76 6 -80 -4 -3 -31 5 -59 20 -29 14 -79 34 -111 43 -32 10 -69
29 -82 42 -13 13 -29 21 -35 17 -6 -4 -10 -3 -9 2 4 15 -19 58 -37 73 -14 12
-16 12 -9 1 5 -10 4 -12 -3 -7 -7 4 -17 16 -23 28 -8 15 -8 19 0 14 21 -14 10
12 -26 59 -20 27 -49 79 -65 117 -62 155 -167 267 -295 317 l-78 30 2 38 c2
21 12 59 23 85 21 48 27 123 11 132 -17 11 -88 152 -95 190 -4 20 -10 44 -13
52 -3 9 1 14 12 14 14 0 15 6 10 33 -17 78 -75 123 -188 144 -84 17 -107 27
-107 47 0 16 82 51 140 61 93 15 230 142 265 245 34 100 61 361 45 435 -6 28
-11 56 -12 63 -1 6 -7 12 -14 12 -7 0 -18 9 -24 20 -13 24 -54 42 -138 60
-122 25 -246 -8 -343 -92 -106 -92 -116 -101 -169 -173 -108 -143 -131 -215
-111 -349 10 -67 9 -70 -15 -93 l-24 -22 -46 34 c-51 39 -80 43 -127 18 -43
-22 -54 -39 -61 -98 -9 -75 -49 -188 -82 -231 -42 -54 -108 -154 -128 -192 -9
-17 -50 -69 -91 -114 -109 -121 -110 -160 -6 -244 88 -72 88 -76 1 -209 -22
-33 -49 -78 -61 -100 -48 -90 -112 -195 -120 -195 -4 0 -11 -9 -14 -21 -4 -11
-29 -60 -57 -107 -84 -146 -109 -208 -102 -256 4 -22 13 -49 22 -58 47 -55
175 -95 201 -64 8 9 20 16 27 16 8 0 14 4 14 10 0 5 -7 7 -15 4 -23 -9 -19 -2
36 57 47 50 186 248 182 259 -1 3 11 23 27 45 16 22 54 83 85 135 52 88 73
120 157 238 l31 44 21 -25 c11 -14 30 -27 41 -29 13 -2 31 -25 53 -67 39 -78
41 -127 12 -311 -36 -229 -26 -683 18 -800 5 -14 10 -99 11 -190 2 -175 9
-217 46 -291 27 -52 115 -136 153 -146 14 -3 37 -12 51 -19 14 -8 31 -14 36
-14 16 0 108 -79 132 -114 32 -45 46 -148 33 -249 -16 -130 -18 -276 -3 -289
7 -5 15 -25 19 -43 6 -36 61 -105 83 -105 9 0 11 -8 8 -23 -4 -12 -3 -27 1
-33 15 -22 58 -44 87 -44 16 0 50 -10 74 -21 38 -16 50 -18 73 -8 21 9 31 9
42 0 9 -8 48 -11 108 -10 131 2 288 36 516 110 67 22 127 37 133 33 8 -4 9
-34 5 -93 -13 -153 -15 -347 -6 -407 5 -33 15 -90 21 -129 6 -38 13 -131 15
-205 4 -152 10 -238 17 -260 27 -82 32 -129 31 -280 -1 -202 -20 -425 -50
-583 l-6 -28 78 3 79 3 22 95 c27 117 43 323 36 447 l-6 93 284 -6 c200 -5
305 -3 354 5 39 6 111 13 161 15 50 2 106 8 125 14 59 18 128 32 157 32 25 0
27 -3 26 -39 -1 -21 -4 -43 -8 -50 -4 -6 -4 -31 0 -56 4 -29 2 -50 -6 -59 -8
-11 -9 -25 -1 -52 9 -31 8 -41 -6 -56 -9 -10 -13 -21 -10 -25 4 -3 0 -17 -8
-29 -10 -16 -13 -37 -9 -70 4 -39 2 -50 -17 -70 -22 -23 -43 -55 -54 -84 -4
-8 -15 -33 -26 -56 -10 -23 -19 -44 -19 -48 0 -3 283 -6 629 -6 494 0 630 3
634 13 3 6 25 60 50 118 24 58 53 115 64 126 14 14 25 46 33 94 7 41 20 108
30 149 45 188 24 559 -36 645 -8 11 -14 29 -14 40 0 11 -13 47 -29 80 -65 136
-123 276 -117 282 8 8 -48 108 -84 150 -15 17 -36 55 -45 85 -10 29 -25 62
-35 73 -9 11 -25 36 -35 55 -10 19 -22 44 -28 55 -6 11 -26 52 -45 90 -19 39
-42 79 -52 90 -20 22 -90 154 -90 168 0 6 -17 46 -39 91 -21 44 -44 99 -50
121 -7 22 -16 49 -21 60 -23 55 -32 120 -30 225 1 63 4 129 6 145 2 17 6 55 9
85 7 76 23 165 42 230 30 105 133 300 158 300 8 0 12 -6 10 -12 -3 -8 4 -14
19 -14 19 -1 24 3 24 23 0 13 5 30 11 36 8 8 11 -1 11 -37 0 -55 18 -98 60
-144 31 -35 85 -48 59 -14 -7 9 -2 7 12 -6 26 -23 59 -22 59 2 0 6 9 22 19 36
l19 25 7 -28 c4 -15 12 -27 19 -27 6 0 0 -9 -14 -20 -24 -19 -24 -20 -3 -20
12 0 23 6 26 13 2 6 8 9 12 5 4 -4 -2 -20 -14 -36 -12 -17 -21 -34 -21 -39 0
-5 -12 -20 -26 -34 -33 -31 -87 -119 -113 -185 -23 -59 -43 -189 -43 -284 -1
-76 18 -213 32 -240 9 -18 36 -125 45 -179 2 -13 27 -72 56 -130 29 -58 60
-124 69 -146 9 -22 54 -105 100 -185 45 -80 101 -176 122 -215 22 -38 53 -92
69 -120 73 -126 216 -439 253 -550 35 -108 66 -224 66 -248 0 -13 7 -44 16
-68 33 -94 45 -192 44 -359 -1 -91 -5 -185 -8 -209 -8 -48 1 -44 -157 -85 -48
-13 -175 -63 -185 -73 -3 -3 63 -3 145 0 138 4 165 8 329 51 l179 46 221 0
c225 0 256 -3 366 -44 128 -48 157 -56 199 -55 l46 1 -50 15 c-133 40 -279 91
-340 118 -27 12 -69 30 -92 40 -24 10 -43 21 -43 25 0 4 -28 18 -62 30 -247
87 -315 159 -396 416 -23 71 -44 145 -47 164 -4 19 -9 43 -11 53 -4 10 1 20
13 24 10 4 38 24 62 45 47 41 126 88 147 88 42 0 257 179 404 336 76 81 151
149 111 101 -7 -10 -11 -17 -7 -17 3 0 104 99 224 220 122 123 226 220 236
220 9 0 32 16 50 35 43 45 67 45 94 -2 30 -54 128 -153 151 -153 4 0 16 -9 25
-19 15 -16 15 -22 5 -39 -10 -15 -10 -24 -1 -34 12 -15 -6 -36 -88 -97 -48
-37 -90 -80 -90 -95 0 -5 10 0 23 11 12 11 42 31 67 46 25 14 67 46 94 71 27
25 55 46 63 46 7 0 13 5 13 10 0 15 64 12 96 -5 16 -8 36 -12 45 -10 9 3 22
-2 30 -11 12 -15 8 -22 -39 -64 -28 -25 -52 -52 -52 -58 0 -17 13 -15 36 6 45
41 91 70 101 64 10 -7 33 -46 33 -56 0 -3 -16 -6 -36 -6 -22 0 -33 -4 -29 -10
11 -18 -17 -41 -44 -38 -22 3 -26 -1 -26 -22 0 -20 -5 -25 -22 -23 -15 2 -21
-2 -17 -11 6 -14 -52 -50 -66 -41 -4 3 -11 -5 -14 -18 -6 -21 -7 -21 -19 7
l-13 30 -21 -23 -21 -22 -15 21 c-19 27 -53 20 -98 -20 -25 -23 -36 -27 -50
-19 -13 6 -19 6 -19 0 0 -6 -7 -8 -15 -5 -9 4 -38 -16 -77 -53 -70 -67 -164
-119 -183 -103 -9 7 -21 7 -39 0 -17 -6 -26 -6 -26 0 0 6 -4 10 -8 10 -5 0 -9
-6 -9 -12 0 -7 -3 -23 -7 -35 -6 -18 -3 -23 9 -23 9 0 19 9 22 20 7 27 42 26
89 -2 29 -17 40 -19 55 -10 10 7 29 12 41 12 22 -1 22 -1 5 -15 -11 -7 -25
-11 -32 -9 -7 3 -16 1 -20 -5 -3 -6 -14 -11 -24 -11 -9 0 -27 -14 -40 -30 -12
-17 -26 -28 -31 -25 -5 3 -17 -2 -27 -12 -10 -10 -40 -28 -66 -41 -26 -13 -47
-30 -47 -38 0 -12 -35 -34 -60 -38 -3 -1 -26 -15 -52 -31 -63 -40 -64 -58 -4
-35 25 9 37 -2 16 -15 -5 -3 -10 -15 -10 -27 0 -16 3 -18 13 -9 9 7 17 7 23 1
12 -12 60 8 259 105 72 35 182 82 245 104 63 21 138 49 165 61 28 12 142 59
255 105 275 112 272 110 336 151 76 49 114 54 162 20 22 -15 71 -33 113 -42
135 -30 230 10 286 120 26 50 27 55 28 251 2 257 18 336 116 557 26 59 44 109
41 112 -3 4 0 6 7 6 7 0 10 4 7 9 -3 5 -1 22 5 39 13 38 -6 109 -51 186 -16
30 -30 59 -30 66 0 24 -51 80 -87 95 -20 8 -54 32 -77 53 -45 42 -63 47 -286
84 -107 18 -169 23 -299 21 -221 -2 -346 -26 -494 -92 -26 -12 -52 -19 -57
-16 -11 7 -89 -45 -90 -59 0 -5 8 -2 18 7 10 10 22 17 27 17 7 0 -30 -31 -100
-83 -37 -27 -171 -161 -244 -242 -30 -33 -52 -55 -48 -50 5 10 -132 14 -163 5
-9 -3 -16 3 -18 18 -2 13 -9 21 -15 19 -7 -3 -11 -10 -9 -17 2 -8 -3 -10 -13
-6 -9 3 -23 6 -31 6 -8 0 -14 6 -13 13 7 36 -58 97 -102 97 -10 0 -21 5 -24
10 -4 6 -10 8 -15 5 -8 -5 -37 8 -84 40 -17 11 -38 18 -48 17 -10 -2 -18 1
-18 7 0 6 -12 17 -27 25 -16 8 -26 18 -23 22 3 4 -5 9 -17 10 -19 3 -23 -1
-23 -21 0 -14 5 -25 10 -25 14 0 12 -38 -2 -43 -7 -2 -21 0 -32 5 -10 6 -29 8
-42 5 -13 -2 -29 2 -35 9 -6 8 -25 14 -41 14 -35 0 -68 16 -86 42 -14 19 -42
25 -42 8 0 -16 -30 -12 -36 5 -9 23 -69 85 -82 85 -7 0 -12 6 -12 13 0 13 -56
50 -79 51 -17 1 -28 26 -12 26 6 0 11 7 11 16 0 10 -6 14 -15 10 -8 -3 -15 -1
-15 5 0 13 -16 29 -53 52 -26 17 -55 70 -49 90 1 4 -3 7 -8 7 -6 0 -10 6 -10
14 0 16 -24 28 -43 20 -7 -2 -22 4 -32 16 -10 11 -24 20 -32 20 -7 0 -13 5
-13 10 0 6 5 10 10 10 6 0 10 4 10 10 0 5 -7 7 -16 3 -13 -5 -15 -2 -9 17 5
16 4 21 -6 18 -8 -3 -15 -17 -17 -31 -3 -22 -8 -27 -33 -27 -23 0 -29 -4 -29
-20 0 -18 -4 -20 -34 -15 -27 5 -36 3 -45 -12 -9 -16 -12 -16 -21 -3 -8 13
-11 13 -19 1 -6 -9 -14 -11 -26 -3 -24 13 -53 4 -60 -19 -3 -10 -12 -16 -19
-13 -20 8 -57 -28 -59 -58 -1 -21 -11 -32 -38 -46 l-37 -19 4 70 c5 73 17 102
89 212 11 17 22 32 25 35 3 3 29 37 57 75 28 39 70 85 92 103 39 32 57 41 47
23 -3 -5 1 -12 9 -15 13 -5 14 -2 5 15 -16 29 7 45 209 147 204 101 196 98
187 83 -8 -13 10 -13 39 -1 l20 9 -20 0 c-17 1 -17 3 -5 11 20 13 43 13 35 0
-4 -6 2 -7 17 -1 13 4 22 12 21 17 -2 11 36 33 57 33 13 1 13 0 0 -9 -11 -8
-7 -9 15 -4 17 3 35 12 40 19 6 6 27 18 47 25 31 12 41 12 63 0 14 -7 23 -15
21 -17 -2 -3 -14 0 -25 7 -12 6 -26 8 -32 5 -6 -4 16 -19 48 -35 53 -25 87
-31 53 -10 -8 6 -11 10 -6 10 5 0 40 -22 76 -49 37 -27 78 -52 91 -56 30 -8
51 -16 113 -44 38 -17 46 -25 35 -32 -10 -7 -6 -8 14 -3 23 5 27 3 27 -15 0
-12 6 -20 13 -18 6 1 11 -5 9 -13 -2 -8 0 -12 3 -8 4 4 24 -4 44 -17 19 -14
48 -25 63 -25 38 0 140 -28 152 -41 11 -12 5 -11 -39 7 -11 5 -13 2 -9 -11 5
-12 15 -16 36 -13 50 8 142 -17 171 -46 14 -14 32 -26 39 -26 7 1 2 7 -12 16
-25 15 -25 15 10 8 38 -7 160 -43 251 -75 31 -10 65 -19 75 -20 15 -1 13 -3
-6 -10 -24 -8 -24 -8 5 -7 86 1 120 -3 105 -12 -11 -7 -6 -10 20 -9 19 0 46
-2 60 -5 14 -3 81 -19 150 -34 144 -33 227 -67 259 -108 20 -26 28 -28 98 -31
55 -2 87 -9 111 -23 29 -18 33 -18 28 -4 -3 9 -9 28 -12 42 -4 15 -16 38 -28
51 -23 25 -146 91 -171 91 -9 0 -78 21 -153 46 -75 25 -181 54 -235 65 -55 11
-115 26 -135 34 -62 22 -260 85 -272 85 -22 0 -262 92 -352 134 -115 55 -196
88 -313 127 -150 50 -334 153 -335 187 0 7 5 10 10 7 15 -9 12 3 -9 33 -10 15
-26 39 -35 54 l-16 27 -23 -23 c-23 -23 -134 -63 -145 -52 -3 3 2 6 11 6 9 0
17 5 17 10 0 6 -10 9 -22 8 -13 -2 -24 0 -26 4 -8 20 -79 90 -116 115 -56 37
-106 80 -100 86 3 2 9 19 14 36 8 28 5 36 -21 66 -17 19 -28 38 -26 42 8 12
-47 88 -63 88 -7 0 -14 8 -16 18 -3 25 -18 41 -160 171 -118 109 -182 152
-269 182 -25 8 -57 26 -71 39 -15 14 -32 25 -38 25 -6 0 -69 9 -140 20 -71 11
-144 20 -162 20 l-34 0 0 68 c0 72 24 284 39 342 5 19 30 100 56 180 26 80 58
181 71 224 38 126 60 179 161 391 53 110 111 232 129 270 19 39 41 90 50 115
48 132 147 441 177 550 19 69 51 179 70 245 32 109 70 260 99 390 6 28 19 75
28 105 10 30 27 102 39 160 34 163 31 159 106 154 56 -3 65 0 86 22 21 23 22
27 10 57 -7 18 -17 46 -22 63 -9 29 -109 132 -213 218 -26 21 -55 54 -64 73
-15 31 -15 35 5 61 23 32 68 41 153 30 30 -3 144 -7 253 -7 179 -1 209 2 310
25 137 31 203 63 273 130 71 69 104 138 104 222 0 65 -20 132 -40 132 -6 0
-34 25 -62 56 -71 77 -106 92 -225 99 -54 4 -123 11 -153 17 -66 13 -116 11
-190 -8 -30 -8 -73 -14 -96 -14 -24 0 -54 -4 -68 -10 -14 -5 -88 -14 -163 -20
-291 -22 -383 -40 -383 -75 0 -22 -6 -19 -58 24 -26 21 -63 47 -82 56 -19 10
-37 21 -40 25 -16 23 -147 71 -260 96 -71 15 -292 17 -399 3z m214 -88 c22 -5
67 -12 100 -16 54 -7 57 -9 31 -16 -16 -4 -33 -6 -38 -3 -4 3 -16 1 -25 -5
-13 -7 0 -9 49 -8 50 2 64 5 56 14 -7 9 0 11 29 6 21 -3 42 -10 48 -14 5 -6
-4 -7 -23 -3 -20 4 -32 2 -32 -4 0 -10 82 -32 120 -32 10 0 22 -5 25 -11 4 -6
13 -8 21 -5 7 3 16 1 19 -4 4 -6 17 -10 29 -10 13 0 29 -7 36 -15 7 -8 18 -15
26 -15 7 0 16 -5 19 -10 4 -7 -3 -9 -22 -5 -15 3 -22 2 -15 -1 17 -8 15 -27
-3 -20 -11 4 -15 -2 -15 -20 0 -26 -14 -46 -40 -56 -26 -10 -322 8 -329 20 -9
14 -190 9 -199 -5 -13 -20 -51 -8 -74 23 -36 48 -95 97 -101 82 -3 -9 -14 -4
-36 16 -39 37 -39 49 -1 44 37 -6 39 9 4 22 -23 9 -24 12 -13 26 12 14 29 16
119 10 58 -3 134 -11 170 -16 74 -11 116 -13 108 -4 -4 3 -21 7 -40 9 -51 4
-88 16 -82 26 7 11 27 11 79 0z m-397 -31 c-13 -21 -38 -27 -38 -10 0 8 26 24
48 29 1 1 -3 -8 -10 -19z m2006 7 c55 -7 101 -16 102 -22 2 -5 -4 -19 -12 -30
-15 -20 -15 -20 -34 3 -10 13 -28 25 -40 27 -11 2 -25 7 -30 10 -6 3 -31 3
-56 -1 -33 -5 -44 -10 -40 -20 8 -21 -8 -17 -22 6 -16 26 -42 26 -49 0 -5 -21
-42 -36 -119 -49 -27 -5 -62 -14 -79 -19 -32 -11 -131 -40 -180 -53 -16 -4
-66 -15 -110 -24 -44 -9 -88 -21 -97 -26 -45 -23 -83 -1 -66 37 13 28 43 38
96 32 20 -3 48 -1 62 5 14 5 41 13 60 16 20 4 35 12 35 20 0 13 108 40 285 71
30 6 69 14 85 19 39 12 89 12 209 -2z m-2159 -17 c6 -4 28 -11 50 -14 39 -7
95 -49 95 -71 0 -6 11 -22 25 -35 29 -27 33 -45 8 -32 -10 5 -36 10 -58 11
-22 1 -69 9 -105 18 -36 9 -72 17 -80 18 -8 1 -33 5 -55 9 -22 4 -68 12 -103
18 -74 12 -71 22 17 68 51 27 62 29 126 23 39 -3 75 -9 80 -13z m2395 -26 c17
-15 28 -29 26 -32 -3 -3 -1 -11 6 -19 6 -7 8 -17 4 -20 -10 -10 -41 11 -41 28
0 8 -2 16 -5 19 -50 50 -43 68 10 24z m-1540 6 c0 -5 -2 -10 -4 -10 -3 0 -8 5
-11 10 -3 6 -1 10 4 10 6 0 11 -4 11 -10z m373 -108 c13 -12 20 -13 29 -4 18
18 28 15 28 -8 0 -14 -7 -20 -24 -20 -25 0 -76 35 -76 51 0 11 16 4 43 -19z
m1213 -59 c15 -6 20 -33 5 -33 -5 0 -12 6 -15 13 -3 6 -5 3 -5 -8 2 -38 -1
-58 -8 -52 -3 4 -12 2 -19 -4 -10 -8 -15 -4 -19 18 -9 39 -21 59 -35 55 -15
-3 -76 24 -85 38 -10 16 13 20 28 5 9 -8 24 -15 34 -15 17 1 17 2 -2 15 -18
14 -16 15 28 14 27 -1 53 3 60 10 9 10 13 6 15 -19 2 -17 10 -34 18 -37z
m-1373 32 c-7 -21 -12 -19 -10 4 0 11 5 18 9 15 4 -3 5 -11 1 -19z m1012 -5
c3 -6 -1 -13 -9 -16 -26 -10 -20 -37 6 -31 16 4 32 -3 60 -28 22 -20 49 -35
63 -35 15 0 23 -5 21 -12 -3 -7 -7 -25 -10 -40 -6 -26 -4 -28 26 -28 33 0 33
-1 12 -18 -12 -9 -24 -25 -27 -35 -4 -10 -11 -16 -17 -12 -5 3 -23 -1 -40 -10
-17 -9 -30 -11 -30 -5 0 16 -61 12 -74 -5 -6 -8 -26 -19 -44 -24 -27 -8 -36
-7 -53 10 -11 11 -33 19 -53 19 -47 0 -100 12 -87 19 6 4 -33 6 -87 4 l-97 -3
63 23 c79 28 129 73 138 124 12 67 28 87 80 99 63 15 151 17 159 4z m-2734
-44 c6 3 21 -4 34 -16 16 -15 30 -20 44 -15 12 4 21 2 21 -4 0 -6 11 -11 25
-11 24 0 25 -2 13 -22 -35 -64 -15 -390 28 -455 33 -51 104 -111 167 -141 37
-18 68 -40 72 -51 6 -20 38 -33 90 -36 50 -4 187 -40 240 -64 32 -14 77 -24
124 -26 65 -4 75 -7 85 -27 7 -13 20 -22 31 -21 11 1 23 -4 27 -10 5 -8 15 -3
32 18 22 27 24 28 40 12 21 -21 30 -21 46 -2 7 8 19 15 27 15 7 0 16 7 19 15
4 8 15 15 25 15 14 0 19 -7 19 -25 0 -31 16 -33 24 -2 l6 22 13 -21 c6 -11 22
-36 34 -54 19 -29 20 -37 9 -59 -7 -14 -19 -39 -27 -56 -8 -16 -26 -35 -39
-42 -13 -6 -31 -21 -40 -31 -14 -18 -93 -63 -133 -76 -11 -3 -15 -11 -11 -17
4 -7 3 -9 -3 -6 -6 4 -25 2 -44 -4 -19 -5 -41 -12 -49 -14 -113 -26 -166 -38
-225 -51 -107 -22 -173 -48 -195 -76 -25 -33 -25 -38 0 -38 21 0 27 -15 10
-25 -19 -12 0 -23 48 -29 42 -6 175 4 257 20 23 4 26 3 14 -5 -19 -12 -115
-28 -224 -36 -92 -7 -141 5 -130 32 3 10 3 14 -1 11 -12 -12 -62 21 -66 43 -4
26 -68 50 -203 76 -52 10 -95 20 -95 23 0 3 18 16 40 30 22 14 40 30 40 36 0
6 9 23 21 38 11 14 17 30 14 36 -3 6 1 13 9 16 9 3 16 12 16 20 0 8 5 14 11
14 6 0 9 7 5 15 -3 8 -1 15 3 15 5 0 11 -6 13 -12 3 -9 9 -8 22 5 10 9 14 17
10 17 -3 0 -1 7 6 15 19 23 33 18 28 -10 -6 -28 9 -34 19 -7 6 14 8 13 14 -8
4 -14 7 -44 8 -67 1 -25 6 -43 12 -43 8 0 10 20 7 65 -5 53 -3 67 10 74 15 9
15 11 1 28 -20 22 -30 61 -18 68 4 3 6 12 2 20 -3 8 0 15 6 15 14 0 51 37 51
50 0 6 -10 8 -24 4 -17 -4 -32 0 -47 15 -45 42 -108 37 -314 -23 -49 -14 -111
-25 -137 -24 -44 1 -47 3 -42 23 5 18 0 23 -23 28 -39 8 -75 -20 -91 -71 -14
-42 -23 -47 -70 -43 -13 1 -30 -3 -38 -10 -8 -7 -29 -9 -49 -6 -19 3 -37 1
-41 -4 -3 -6 -12 -8 -19 -5 -7 2 -21 -1 -31 -8 -27 -18 -63 -26 -70 -15 -3 6
-21 1 -40 -11 -20 -11 -43 -20 -53 -20 -9 0 -22 -5 -28 -11 -6 -6 -35 -12 -65
-13 -34 0 -57 -6 -65 -16 -6 -8 -15 -11 -19 -7 -5 4 -2 12 6 17 12 8 11 10 -7
10 -12 0 -24 6 -26 13 -4 8 -8 8 -14 2 -4 -5 -21 -11 -38 -13 -16 -2 -34 -8
-39 -13 -15 -14 -52 -11 -65 5 -6 8 -31 19 -54 25 -68 17 -74 30 -80 160 -3
66 0 129 6 150 6 20 10 39 9 43 -1 4 10 32 23 63 14 30 25 61 25 69 0 7 8 21
19 30 11 10 21 37 25 65 12 94 81 191 182 256 102 66 320 110 499 100 113 -5
217 -5 238 1 12 4 17 16 17 44 0 27 6 42 18 49 13 8 18 6 20 -10 2 -10 8 -17
13 -13z m149 6 c0 -19 -5 -29 -15 -29 -18 0 -18 -1 -5 31 12 34 20 33 20 -2z
m1780 24 c0 -2 -7 -7 -16 -10 -8 -3 -12 -2 -9 4 6 10 25 14 25 6z m444 -97
c-28 -31 -124 -72 -164 -71 -32 1 -33 0 -17 -12 18 -14 17 -15 -3 -21 -25 -8
-90 2 -90 13 0 5 6 14 13 21 10 11 10 14 0 18 -7 3 -13 11 -13 19 0 10 8 12
29 8 16 -4 32 -1 35 5 4 6 30 11 58 11 46 0 83 8 143 30 28 11 31 4 9 -21z
m-323 -13 c-17 -10 -19 -14 -9 -26 7 -8 4 -7 -8 3 -14 12 -38 17 -77 17 -32 0
-57 4 -57 10 0 6 23 10 55 9 30 -1 58 0 60 3 3 3 17 3 32 0 25 -5 25 -5 4 -16z
m-173 -33 c21 -62 25 -83 14 -83 -6 0 -13 9 -17 19 -4 12 -12 18 -21 14 -16
-6 -19 13 -3 23 6 3 9 19 7 35 -6 41 5 36 20 -8z m212 -34 c0 -14 -16 -11 -29
5 -10 12 -8 13 8 9 12 -3 21 -9 21 -14z m990 11 c0 -5 -4 -10 -9 -10 -6 0 -13
5 -16 10 -3 6 1 10 9 10 9 0 16 -4 16 -10z m-1149 -87 c13 -16 12 -17 -3 -4
-10 7 -18 15 -18 17 0 8 8 3 21 -13z m-761 -326 c0 -2 -12 -14 -27 -28 l-28
-24 24 28 c23 25 31 32 31 24z m-758 -412 c-4 -25 -16 -32 -26 -16 -9 13 4 41
19 41 8 0 10 -9 7 -25z m-1248 -106 c-31 -12 -39 -10 -19 5 11 8 24 12 29 8 5
-3 1 -9 -10 -13z m684 -211 c-5 -15 -48 -24 -48 -10 0 14 12 22 33 22 10 0 17
-5 15 -12z m336 -27 c3 -4 -6 -6 -19 -3 -14 2 -25 6 -25 8 0 8 39 4 44 -5z
m169 -38 c20 -8 37 -19 37 -23 0 -10 -141 28 -155 42 -14 14 69 0 118 -19z
m482 -443 c3 -5 1 -10 -4 -10 -6 0 -11 5 -11 10 0 6 2 10 4 10 3 0 8 -4 11
-10z m-315 -25 c-7 -8 -9 -19 -5 -25 4 -6 1 -9 -6 -8 -6 2 -14 -3 -16 -9 -4
-12 21 -18 56 -14 7 2 10 -2 7 -8 -4 -5 -1 -13 5 -17 7 -4 9 -3 6 3 -8 13 63
26 77 14 6 -5 18 -8 26 -8 8 -1 23 -4 33 -8 9 -4 17 -3 17 3 0 5 -13 15 -30
22 -32 13 -40 30 -15 30 8 0 15 -5 15 -11 0 -6 7 -8 16 -5 9 4 22 2 28 -3 6
-5 22 -11 36 -13 14 -1 29 -13 35 -25 10 -23 25 -29 39 -16 9 9 38 13 48 7 4
-3 -13 -32 -37 -65 -25 -34 -45 -68 -45 -76 0 -11 -7 -14 -21 -10 -14 4 -23
-1 -31 -18 -6 -13 -18 -25 -27 -28 -9 -2 -38 -49 -64 -103 -63 -128 -75 -150
-118 -215 -20 -30 -53 -85 -73 -124 -20 -38 -43 -76 -50 -85 -20 -21 -111
-215 -157 -330 -11 -30 -28 -68 -35 -85 -17 -36 -64 -242 -59 -259 2 -6 6 -40
9 -76 3 -45 15 -86 37 -135 39 -81 39 -82 43 -157 2 -31 6 -61 9 -65 3 -5 1
-29 -4 -53 -6 -24 -7 -55 -4 -67 3 -13 1 -23 -5 -23 -6 0 -8 -5 -4 -12 6 -9 9
-9 12 1 3 9 10 7 24 -6 21 -18 21 -18 15 25 -4 31 -1 47 11 58 14 15 14 17 -2
26 -10 6 -15 16 -11 28 3 11 0 20 -10 24 -20 7 -19 20 2 41 14 14 14 18 2 26
-9 5 -14 28 -15 61 -2 83 -3 85 -23 91 -34 9 -51 64 -47 157 2 47 8 105 14
130 16 69 61 198 83 239 10 19 19 44 19 53 0 10 9 26 20 35 11 10 20 23 20 31
0 22 30 72 88 147 32 40 75 99 97 130 22 32 54 77 72 100 17 24 33 51 35 61 2
10 14 24 28 31 14 7 21 13 15 13 -5 0 -2 7 9 15 10 7 16 17 13 22 -3 5 17 35
44 68 27 33 49 65 49 71 0 6 30 45 68 87 37 42 83 98 102 126 19 27 38 48 41
45 4 -2 9 1 11 8 2 6 12 9 21 5 10 -4 14 -12 11 -22 -6 -14 5 -19 34 -16 6 1
12 -3 12 -8 0 -6 7 -8 16 -4 9 3 20 0 25 -8 7 -10 9 -7 8 11 -4 47 12 110 28
110 13 0 14 -9 9 -49 -7 -56 4 -73 24 -36 7 14 19 25 27 25 7 0 13 4 13 10 0
5 7 7 15 4 8 -4 15 -1 15 5 0 6 -7 11 -16 11 -23 0 -14 42 12 55 11 6 19 16
16 23 -2 6 1 12 7 12 6 0 11 -4 11 -9 0 -5 9 -11 20 -14 11 -3 20 -12 20 -21
0 -9 6 -16 14 -16 8 0 16 -8 18 -17 3 -15 5 -15 22 3 18 17 19 17 13 1 -3 -9
-1 -28 5 -42 9 -20 14 -22 25 -13 24 20 40 -7 19 -31 -10 -11 -19 -36 -21 -55
-2 -20 -17 -56 -34 -81 -36 -53 -36 -55 -16 -55 27 0 16 -18 -15 -25 -16 -4
-30 -13 -30 -21 0 -17 5 -17 30 -2 10 7 22 10 25 6 8 -8 -37 -77 -51 -78 -7 0
-14 -9 -17 -20 -6 -22 -27 -28 -27 -7 0 7 5 18 11 24 9 9 7 10 -10 6 -22 -5
-29 -37 -11 -48 22 -14 8 -23 -27 -18 -31 5 -36 3 -25 -8 16 -18 15 -29 -3
-29 -18 0 -18 -1 -5 -34 6 -17 6 -26 0 -26 -6 0 -10 -6 -10 -14 0 -7 -7 -19
-15 -26 -17 -14 -11 -32 9 -24 8 3 17 1 21 -5 3 -6 1 -11 -6 -11 -6 0 -9 -8
-6 -20 3 -11 -1 -27 -9 -34 -18 -18 -18 -36 0 -36 20 0 37 -25 30 -44 -5 -12
-16 -16 -37 -14 -22 2 -30 -1 -33 -15 -2 -15 0 -16 12 -6 12 9 14 5 14 -25 0
-29 -5 -39 -25 -48 -13 -6 -22 -15 -19 -20 10 -16 -35 -98 -50 -92 -8 3 -17 1
-21 -5 -3 -7 3 -11 16 -11 18 0 19 -2 9 -15 -15 -18 1 -20 18 -3 9 9 12 7 12
-10 0 -21 -10 -26 -66 -37 -10 -2 -21 -4 -23 -4 -2 -1 2 -7 8 -15 9 -11 9 -20
2 -35 -15 -28 -14 -31 12 -31 12 0 29 -5 37 -10 13 -8 12 -11 -5 -24 -27 -20
-32 -20 -40 5 -8 25 -25 21 -37 -10 -6 -19 -5 -22 7 -17 24 9 18 -29 -7 -46
-23 -16 -18 -35 13 -46 13 -5 16 -11 9 -22 -7 -12 -12 -12 -29 4 -12 11 -27
16 -36 12 -26 -9 -11 -31 19 -28 15 2 26 -2 26 -9 0 -6 8 -18 18 -25 15 -12
10 -13 -36 -8 -49 6 -54 5 -59 -15 -6 -24 -5 -23 -27 -15 -21 8 -20 22 2 27
16 4 16 4 -1 12 -13 5 -24 1 -38 -13 -23 -25 -24 -33 -4 -26 8 4 15 1 15 -5 0
-6 -6 -11 -12 -11 -8 -1 -5 -6 6 -15 15 -11 16 -19 8 -42 -5 -17 -16 -27 -26
-27 -9 1 -16 -2 -16 -7 0 -5 6 -9 13 -9 8 0 8 -3 -2 -9 -19 -12 -39 8 -33 32
3 14 11 17 28 13 25 -7 29 0 18 28 -7 19 -34 21 -35 4 0 -10 -2 -10 -6 0 -4
10 -8 10 -21 0 -14 -10 -15 -10 -4 2 6 8 12 27 12 42 0 18 5 28 15 28 8 0 15
6 15 14 0 8 8 17 18 19 13 4 12 5 -4 6 -12 0 -24 -5 -27 -13 -3 -8 -16 -16
-29 -18 -18 -2 -22 -9 -20 -28 1 -19 0 -21 -7 -10 -8 12 -11 11 -16 -5 -4 -11
-16 -37 -27 -58 -19 -36 -23 -58 -27 -133 0 -16 -10 -40 -21 -52 -25 -26 -25
-32 -2 -32 13 0 10 -6 -13 -26 -22 -18 -24 -22 -7 -14 12 6 22 7 22 2 0 -22
-23 -72 -33 -72 -9 0 -9 -2 -1 -8 13 -9 3 -102 -11 -103 -13 -1 -35 -19 -35
-30 0 -5 9 -9 20 -9 23 0 23 -10 -1 -221 -9 -89 -2 -150 12 -99 4 15 7 -7 8
-57 1 -68 -2 -84 -16 -93 -14 -9 -15 -11 -2 -7 13 4 18 -5 23 -51 3 -31 9 -76
12 -99 2 -24 1 -43 -4 -43 -13 0 -8 -56 7 -74 9 -11 9 -15 -1 -20 -11 -5 -11
-7 0 -12 9 -4 10 -9 2 -19 -8 -9 -8 -15 0 -20 10 -6 15 -65 4 -65 -19 0 -35
34 -33 69 2 21 -3 46 -10 55 -7 8 -11 30 -10 48 2 18 -2 42 -8 53 -6 12 -11
30 -10 40 1 12 -4 20 -13 20 -22 0 -29 14 -23 50 3 19 -1 44 -11 63 -11 22
-14 48 -11 91 3 33 1 62 -3 65 -19 11 -21 -226 -2 -249 7 -8 9 -23 5 -33 -4
-15 -1 -20 12 -18 9 0 19 -7 21 -17 3 -15 0 -18 -17 -12 -11 3 -27 3 -35 -2
-12 -7 -12 -11 4 -30 17 -22 18 -22 23 -3 3 12 11 18 19 15 14 -6 53 -179 43
-195 -3 -4 -2 -17 3 -29 7 -19 9 -19 35 -6 25 13 28 12 38 -6 18 -34 4 -51
-36 -43 -23 4 -35 2 -35 -5 0 -6 -7 -11 -15 -11 -8 0 -15 7 -15 16 0 22 -44
14 -48 -9 -5 -26 6 -49 19 -41 8 4 7 9 -2 15 -7 4 -10 11 -6 15 3 4 12 2 20
-4 17 -14 100 -13 110 2 6 8 10 8 14 -1 3 -8 14 -11 29 -7 17 4 26 1 30 -10 3
-9 10 -13 16 -10 5 4 5 11 -2 19 -7 8 -7 21 -1 36 l9 24 11 -28 c6 -16 11 -37
11 -48 0 -28 75 -28 90 0 6 13 7 22 0 26 -5 3 -7 12 -3 20 3 8 1 15 -5 15 -6
0 -12 -4 -14 -10 -1 -5 -14 -11 -28 -12 -19 -2 -26 2 -28 20 -4 26 34 72 61
72 10 0 17 8 17 19 0 22 -16 37 -22 21 -1 -5 -15 -11 -30 -12 -16 -1 -28 -6
-28 -11 0 -5 -9 -6 -20 -2 -15 5 -21 1 -25 -17 -4 -13 -17 -31 -31 -41 l-24
-18 0 33 c0 25 3 29 12 20 18 -18 27 -15 21 8 -3 12 -12 19 -21 18 -12 -2 -18
9 -23 46 -4 26 -10 54 -13 62 -3 7 -1 16 4 19 5 3 12 -6 16 -20 5 -20 12 -25
38 -24 28 0 29 1 9 9 -28 12 -29 28 -3 38 20 7 19 9 -10 49 -18 25 -27 44 -20
48 15 9 12 25 -3 19 -8 -3 -20 3 -28 12 -19 23 -19 478 -1 496 7 7 12 8 12 2
0 -10 81 -16 117 -9 14 3 23 14 26 33 3 21 4 19 6 -11 0 -21 -2 -36 -6 -34 -5
3 -7 -36 -5 -86 2 -51 -2 -126 -8 -167 -11 -76 -21 -159 -22 -195 0 -11 4 -44
11 -74 8 -41 8 -56 0 -62 -6 -4 -8 -12 -5 -18 9 -15 -7 -14 -22 1 -9 9 -12 8
-12 -4 0 -15 46 -31 62 -21 11 6 9 90 -2 141 -6 24 -7 48 -3 55 8 12 7 6 18
186 7 114 21 217 24 174 1 -8 17 -13 44 -13 l43 0 0 -45 c1 -25 -2 -45 -5 -45
-8 0 -31 50 -31 68 0 7 -5 10 -11 7 -6 -4 -8 -13 -5 -21 3 -8 -1 -17 -9 -20
-8 -4 -15 -10 -15 -15 0 -4 7 -6 15 -3 8 3 19 3 26 -1 15 -10 -8 -25 -38 -25
-15 0 -23 -6 -23 -17 0 -14 2 -15 9 -5 7 11 9 10 15 -3 3 -9 10 -14 15 -11 14
9 41 -4 41 -19 0 -22 -38 -25 -43 -4 -3 13 -11 17 -21 13 -20 -8 -21 -34 -2
-34 8 0 18 -5 22 -11 4 -7 0 -9 -13 -5 -17 5 -20 2 -20 -24 0 -16 4 -30 9 -30
4 0 8 5 8 10 0 6 11 10 25 10 18 0 25 5 25 20 0 11 4 20 9 20 5 0 4 -19 -2
-42 -6 -25 -13 -36 -15 -25 -2 9 -8 17 -14 17 -14 0 0 -52 18 -66 7 -6 14 -14
14 -18 0 -16 -26 -33 -42 -28 -14 3 -18 13 -16 43 4 46 -14 53 -19 7 -2 -18
-8 -34 -13 -36 -15 -5 -12 -28 5 -42 13 -11 14 -10 9 4 -8 20 19 22 35 2 12
-15 5 -46 -11 -46 -6 0 -7 -7 -4 -16 6 -16 -7 -70 -25 -106 -14 -28 -11 -46
10 -57 15 -8 24 -4 47 19 16 16 32 30 36 30 15 0 -15 -48 -36 -58 -15 -7 -21
-18 -21 -43 0 -23 -5 -34 -15 -35 -38 -3 -42 -5 -36 -19 3 -9 0 -15 -9 -15
-17 0 -20 -16 -5 -25 14 -9 51 18 45 33 -3 8 5 6 20 -5 27 -20 30 -29 15 -38
-5 -3 -10 -12 -10 -19 0 -14 28 -15 50 -1 8 5 26 11 40 13 13 2 29 7 35 12 6
5 18 2 29 -6 10 -7 23 -11 28 -8 4 3 11 -2 14 -10 3 -9 15 -16 25 -16 19 0 34
-35 31 -72 0 -11 4 -15 15 -11 11 4 14 2 11 -8 -3 -8 -14 -13 -25 -11 -10 1
-28 -7 -38 -18 -10 -11 -13 -20 -7 -20 7 0 12 -5 12 -11 0 -6 -9 -8 -20 -4
-16 5 -19 3 -13 -11 5 -14 2 -16 -15 -12 -13 4 -23 0 -26 -9 -3 -8 -11 -11
-17 -7 -8 4 -9 -1 -4 -16 5 -17 3 -21 -12 -20 -34 4 -41 0 -53 -30 -7 -16 -19
-30 -28 -30 -8 0 -71 -56 -139 -125 -68 -68 -129 -124 -136 -122 -7 1 -11 -6
-9 -16 2 -9 -1 -16 -5 -15 -10 4 -67 -39 -158 -117 -39 -33 -102 -81 -140
-107 -82 -54 -243 -216 -238 -238 4 -13 3 -13 -5 -1 -8 11 -20 5 -61 -34 -28
-26 -48 -52 -45 -56 3 -5 17 5 31 21 14 17 34 35 46 42 21 11 0 -22 -95 -148
-21 -28 -38 -57 -38 -65 -1 -10 -5 -8 -15 5 -14 19 -15 19 -15 -7 0 -15 -5
-27 -11 -27 -6 0 -9 -6 -6 -14 3 -8 -1 -20 -9 -26 -8 -7 -14 -19 -14 -26 0 -8
-4 -14 -10 -14 -5 0 -10 14 -10 30 0 17 5 30 10 30 15 0 12 19 -5 36 -13 13
-18 10 -48 -23 -82 -91 -97 -112 -97 -128 0 -15 -3 -15 -15 -5 -13 11 -18 10
-30 -6 -17 -23 -19 -54 -4 -54 6 0 13 9 16 20 7 26 27 21 31 -8 2 -11 11 -24
21 -27 13 -4 16 -13 13 -35 -2 -17 -7 -30 -11 -30 -4 0 -17 -18 -30 -40 -22
-39 -39 -55 -27 -25 9 23 -22 18 -34 -6 -7 -11 -9 -23 -6 -27 3 -3 6 0 6 6 0
7 5 12 10 12 19 0 10 -17 -35 -65 -39 -41 -47 -45 -61 -34 -21 17 -13 68 16
107 13 17 19 35 16 41 -4 6 1 22 10 36 9 14 14 28 11 32 -3 3 0 12 8 20 8 8
15 22 15 31 0 12 -9 6 -29 -18 -16 -19 -29 -42 -28 -50 0 -8 -11 -41 -26 -72
-15 -31 -27 -62 -27 -67 0 -31 -21 -5 -116 144 -20 32 -44 91 -98 241 -18 50
-36 96 -40 103 -4 7 -9 40 -11 74 -1 34 -7 73 -12 87 -20 51 -25 82 -11 78 7
-3 15 -22 18 -44 3 -22 20 -60 37 -84 18 -25 44 -75 58 -111 15 -38 41 -80 60
-99 l35 -34 0 27 c0 15 -4 27 -9 27 -11 0 -49 78 -87 176 -60 158 -58 154 -82
154 -15 0 -26 9 -34 28 -10 26 -12 36 -16 109 -1 19 -7 32 -13 30 -6 -1 -16
12 -21 28 -5 17 -18 51 -28 76 -15 37 -60 212 -60 234 0 3 4 5 8 5 5 0 22 -29
37 -65 35 -84 43 -79 10 6 -14 35 -25 80 -25 99 1 19 -9 62 -21 95 -20 55 -33
135 -22 135 8 0 64 -41 118 -84 48 -40 49 -40 27 -9 -12 17 -22 42 -22 55 0
13 -5 29 -12 36 -9 9 -9 12 -1 12 7 0 19 -10 29 -22 12 -16 15 -18 10 -5 -3
11 0 20 9 24 11 4 13 12 8 27 -11 33 -3 280 13 396 7 58 25 141 39 185 73 236
130 408 156 469 16 37 29 73 29 78 0 5 9 22 19 37 11 15 42 85 70 156 58 144
95 224 253 540 60 121 121 247 135 280 14 33 65 141 113 240 49 99 91 190 95
203 3 12 11 22 16 22 5 0 9 6 9 13 0 7 5 18 11 24 16 16 60 126 52 132 -3 4
-7 2 -10 -4 -2 -5 -14 -32 -28 -60 -18 -38 -23 -43 -18 -20 3 17 12 40 19 52
8 12 14 33 14 46 0 13 7 32 15 43 8 10 15 24 15 31 0 6 5 24 11 40 7 15 13 37
14 48 4 30 56 149 67 154 5 2 13 14 18 27 5 13 14 24 20 24 6 0 6 -9 0 -25 -5
-14 -9 -29 -8 -33 3 -11 -14 -76 -22 -87 -6 -8 -30 -104 -30 -120 0 -3 5 -5
10 -5 6 0 10 8 10 19 0 10 7 24 15 31 8 7 15 21 15 31 0 10 6 36 14 56 7 21
19 60 25 88 7 27 19 58 28 67 18 20 40 13 23 -7z m650 -54 c0 -5 -7 -12 -16
-15 -13 -5 -14 -9 -4 -21 14 -17 5 -49 -11 -39 -6 3 -15 1 -19 -6 -4 -7 -13
-11 -18 -9 -13 5 15 68 38 86 18 15 30 16 30 4z m353 -47 c-19 -30 -22 -28
-16 14 4 26 8 30 19 21 11 -9 11 -15 -3 -35z m-53 6 c0 -5 -4 -10 -10 -10 -5
0 -10 5 -10 10 0 6 5 10 10 10 6 0 10 -4 10 -10z m-270 -960 c0 -5 -4 -10 -10
-10 -5 0 -10 5 -10 10 0 6 5 10 10 10 6 0 10 -4 10 -10z m-890 -50 c0 -5 -5
-10 -11 -10 -5 0 -7 5 -4 10 3 6 8 10 11 10 2 0 4 -4 4 -10z m1140 0 c0 -5 -5
-10 -11 -10 -5 0 -7 5 -4 10 3 6 8 10 11 10 2 0 4 -4 4 -10z m-325 -230 c3 -5
-1 -10 -9 -10 -8 0 -18 5 -21 10 -3 6 1 10 9 10 8 0 18 -4 21 -10z m-5 -64 c0
-3 -4 -8 -10 -11 -5 -3 -10 -1 -10 4 0 6 5 11 10 11 6 0 10 -2 10 -4z m-3629
-123 c14 -16 21 -133 9 -133 -4 0 -15 10 -26 23 -47 54 -61 114 -25 104 14 -3
18 -1 14 9 -7 19 12 18 28 -3z m3475 -10 c-10 -10 -19 5 -10 18 6 11 8 11 12
0 2 -7 1 -15 -2 -18z m98 -18 c-24 -18 -31 -18 -38 0 -4 11 2 15 26 15 30 0
31 -1 12 -15z m61 6 c3 -5 1 -12 -5 -16 -5 -3 -10 1 -10 9 0 18 6 21 15 7z
m-145 -16 c-7 -8 -17 -15 -22 -15 -6 0 -5 7 2 15 7 8 17 15 22 15 6 0 5 -7 -2
-15z m-130 -5 c0 -5 -4 -10 -10 -10 -5 0 -10 5 -10 10 0 6 5 10 10 10 6 0 10
-4 10 -10z m5 -47 c16 -24 16 -26 1 -20 -10 4 -26 2 -37 -4 -15 -8 -24 -7 -35
2 -13 10 -12 14 3 30 26 25 48 23 68 -8z m190 17 c-3 -5 -12 -10 -20 -10 -8 0
-17 5 -20 10 -4 6 5 10 20 10 15 0 24 -4 20 -10z m31 -57 c-11 -11 -17 4 -9
23 7 18 8 18 11 1 2 -10 1 -21 -2 -24z m-51 -3 c3 -5 -3 -10 -15 -10 -12 0
-18 5 -15 10 3 6 10 10 15 10 5 0 12 -4 15 -10z m-225 -4 c0 -11 -19 -15 -25
-6 -3 5 1 10 9 10 9 0 16 -2 16 -4z m-2785 -56 c35 -16 76 -30 90 -30 27 0 75
-26 75 -41 0 -5 -13 -9 -30 -9 -26 0 -30 -4 -30 -28 0 -16 13 -43 31 -65 17
-20 45 -66 64 -101 33 -63 33 -64 30 -192 -3 -154 -3 -153 -15 -134 -8 12 -10
11 -10 -7 0 -12 13 -35 30 -51 27 -27 28 -32 19 -67 -6 -20 -8 -42 -6 -48 3
-7 -7 -12 -23 -13 -27 -1 -27 0 -18 30 11 34 13 74 4 83 -9 10 -76 -27 -76
-42 0 -24 -16 -17 -49 20 -17 20 -31 47 -31 61 0 23 -3 25 -27 19 -23 -5 -25
-4 -14 9 11 14 11 16 -4 16 -11 0 -15 5 -11 16 3 8 2 23 -4 33 -21 40 25 91
62 70 12 -6 26 0 52 24 44 40 41 72 -7 80 -18 3 -40 8 -49 12 -14 6 -17 2 -15
-24 1 -22 7 -31 20 -31 9 0 17 -4 17 -9 0 -15 -30 -22 -50 -11 -13 7 -20 6
-23 -3 -3 -6 -6 -3 -6 9 -1 11 2 24 6 28 14 13 19 187 6 234 -4 18 -31 56 -59
85 -46 47 -56 70 -45 105 3 9 41 -2 96 -28z m2888 13 c7 -6 -21 -32 -36 -33
-4 0 -3 9 3 20 11 21 22 25 33 13z m162 -68 c6 -18 5 -18 -5 -2 -6 9 -17 17
-25 17 -14 0 -14 7 1 48 5 13 8 11 14 -13 4 -16 11 -39 15 -50z m-3394 29 c15
-25 22 -50 21 -83 -3 -103 -56 -207 -90 -179 -11 10 -17 9 -28 -6 -9 -13 -20
-17 -37 -13 -17 5 -35 -3 -73 -33 -27 -21 -61 -49 -76 -60 -25 -19 -28 -28
-28 -76 0 -30 -3 -54 -6 -54 -4 0 -17 11 -30 25 -24 26 -44 33 -44 15 0 -17
-36 -11 -63 10 -14 11 -29 20 -34 20 -4 0 -21 12 -38 27 -22 20 -26 28 -15 31
16 6 113 92 119 107 2 5 23 30 46 55 23 25 45 53 48 63 4 9 13 17 22 17 10 0
15 7 13 18 -2 9 3 16 10 15 6 -2 12 3 12 10 0 6 7 20 14 29 12 17 15 17 47 1
19 -9 51 -31 72 -50 20 -18 41 -33 46 -33 13 0 51 55 51 73 0 42 -24 59 -48
35 -18 -18 -52 -21 -46 -3 7 18 83 75 100 75 7 0 22 -16 35 -36z m3294 6 c3
-5 4 -10 1 -10 -2 0 -12 -3 -20 -6 -12 -5 -15 -2 -10 10 7 18 20 21 29 6z
m-81 -56 c4 -9 13 -13 23 -10 14 4 18 0 18 -19 0 -30 -6 -32 -23 -5 -14 24
-28 25 -64 6 -16 -8 -28 -11 -28 -7 0 13 26 32 33 24 4 -3 9 2 13 11 8 20 20
21 28 0z m-3124 -17 c0 -2 -10 -12 -21 -23 -22 -19 -22 -19 -8 4 12 19 29 30
29 19z m3200 -23 c0 -8 -4 -14 -10 -14 -5 0 -10 9 -10 21 0 11 5 17 10 14 6
-3 10 -13 10 -21z m40 -2 c0 -5 -7 -17 -16 -28 -8 -10 -14 -14 -11 -9 2 6 7
18 10 28 7 17 17 23 17 9z m35 -21 c-3 -10 1 -24 10 -31 21 -17 19 -23 -12
-37 -31 -15 -39 -11 -28 14 9 20 11 30 13 56 1 9 7 17 13 17 6 0 8 -8 4 -19z
m-215 -16 c0 -8 -4 -15 -10 -15 -5 0 -10 7 -10 15 0 8 5 15 10 15 6 0 10 -7
10 -15z m110 -10 c11 -13 10 -14 -4 -9 -9 3 -16 10 -16 15 0 13 6 11 20 -6z
m36 -75 c-9 -34 -16 -70 -16 -80 0 -10 -4 -21 -8 -24 -5 -3 -5 14 -1 37 4 23
10 58 14 77 8 47 14 64 21 57 3 -3 -2 -33 -10 -67z m-155 7 c-6 -6 -11 -24
-11 -39 0 -23 4 -28 24 -28 52 0 43 -37 -9 -44 -47 -6 -65 -17 -65 -37 0 -10
-5 -19 -11 -19 -7 0 -8 7 -3 18 4 9 8 29 8 44 1 23 4 26 24 21 32 -8 29 21 -5
33 -25 8 -26 10 -10 26 9 9 17 24 17 32 0 9 5 16 10 16 6 0 10 8 10 17 0 14 3
13 16 -6 12 -17 13 -26 5 -34z m97 2 c-3 -20 -5 -19 -9 9 -3 20 -2 29 4 23 5
-5 7 -19 5 -32z m-28 21 c0 -5 -2 -10 -4 -10 -3 0 -8 5 -11 10 -3 6 -1 10 4
10 6 0 11 -4 11 -10z m10 -50 c0 -5 -10 -12 -21 -15 -27 -9 -47 17 -21 26 19
7 42 1 42 -11z m89 -42 c0 -7 -4 -22 -9 -33 -7 -17 -9 -15 -9 13 -1 17 4 32 9
32 6 0 10 -6 9 -12z m-69 -15 c0 -5 -5 -15 -10 -23 -8 -12 -10 -11 -10 8 0 12
5 22 10 22 6 0 10 -3 10 -7z m-3406 -75 c6 -24 -36 -117 -59 -131 -8 -4 -17
-21 -20 -38 -6 -28 -9 -30 -22 -16 -17 17 -8 40 34 90 13 16 28 49 34 73 13
49 24 56 33 22z m3354 11 c-2 -6 -8 -10 -13 -10 -5 0 -11 4 -13 10 -2 6 4 11
13 11 9 0 15 -5 13 -11z m123 -1 c27 1 29 -2 29 -37 0 -35 -14 -61 -32 -61 -4
0 -8 7 -8 15 0 8 -4 15 -10 15 -5 0 -10 -9 -10 -20 0 -14 -7 -20 -21 -20 -17
0 -20 5 -16 23 3 12 9 39 12 59 4 22 11 35 18 31 5 -3 23 -6 38 -5z m-3329
-65 c-11 -16 -39 -46 -63 -68 -41 -39 -42 -39 -20 -7 13 18 33 40 46 48 13 8
29 29 36 46 7 17 15 26 17 20 2 -6 -5 -24 -16 -39z m37 -205 c0 -7 -4 -22 -8
-32 -7 -18 -8 -18 -14 -3 -7 20 1 47 14 47 5 0 9 -6 8 -12z m71 -29 c0 -11 -4
-17 -10 -14 -5 3 -10 13 -10 21 0 8 5 14 10 14 6 0 10 -9 10 -21z m3360 -69
c0 -5 -4 -10 -10 -10 -5 0 -10 5 -10 10 0 6 5 10 10 10 6 0 10 -4 10 -10z
m-3334 -27 c-8 -8 -36 5 -36 17 0 7 6 7 21 0 11 -7 18 -14 15 -17z m149 -38
c11 -21 36 -53 55 -70 l34 -33 -38 -10 c-43 -12 -72 -6 -57 12 12 15 3 58 -11
50 -5 -3 -23 0 -39 7 -26 10 -33 10 -47 -5 -15 -15 -15 -16 1 -16 9 0 17 -4
17 -9 0 -5 7 -17 16 -25 14 -15 13 -16 -13 -16 -36 1 -65 18 -93 52 -19 25
-20 30 -7 43 13 13 17 12 28 -6 10 -14 20 -18 33 -13 18 7 18 8 -3 16 -26 9
-18 32 9 23 10 -3 25 2 36 12 17 17 18 17 11 -1 -4 -10 -2 -25 4 -32 15 -19
49 -18 49 1 0 8 -8 15 -17 15 -15 0 -15 2 -4 9 13 8 13 12 0 27 -12 15 -12 17
1 12 8 -2 24 -22 35 -43z m3175 5 c0 -5 -2 -10 -4 -10 -3 0 -8 5 -11 10 -3 6
-1 10 4 10 6 0 11 -4 11 -10z m-2853 -55 c-2 -44 -9 -56 -22 -35 -3 5 -1 19 5
30 9 16 8 22 -5 26 -17 7 -11 24 10 24 10 0 13 -13 12 -45z m2828 5 c3 -5 1
-10 -4 -10 -6 0 -11 5 -11 10 0 6 2 10 4 10 3 0 8 -4 11 -10z m-2934 -44 c5 3
9 1 9 -4 0 -6 -7 -12 -15 -16 -11 -4 -15 1 -14 17 0 12 3 16 6 9 2 -6 9 -10
14 -6z m2969 -1 c0 -8 -4 -15 -9 -15 -13 0 -22 16 -14 24 11 11 23 6 23 -9z
m-3010 -24 c-10 -19 -47 -37 -56 -28 -4 4 54 46 64 47 1 0 -2 -9 -8 -19z m202
-6 c3 -14 1 -25 -3 -25 -5 0 -9 11 -9 25 0 14 2 25 4 25 2 0 6 -11 8 -25z
m2828 0 c0 -8 -4 -15 -10 -15 -5 0 -7 7 -4 15 4 8 8 15 10 15 2 0 4 -7 4 -15z
m-145 -35 c3 -5 1 -10 -4 -10 -6 0 -11 5 -11 10 0 6 2 10 4 10 3 0 8 -4 11
-10z m100 0 c-3 -5 -1 -20 5 -32 11 -23 11 -23 -9 1 -25 28 -27 41 -5 41 8 0
12 -4 9 -10z m-3061 -15 c3 -8 12 -15 20 -15 7 0 17 -7 20 -16 4 -12 2 -15 -9
-10 -8 3 -15 1 -15 -3 0 -5 7 -12 16 -15 10 -4 14 -14 11 -26 -3 -11 2 -34 10
-51 8 -16 12 -37 9 -45 -6 -15 51 -110 60 -101 3 3 18 -8 33 -24 28 -27 29
-30 21 -98 -11 -106 -36 -171 -83 -222 -23 -25 -46 -61 -52 -80 -9 -30 -23
-42 -26 -21 -1 4 -10 18 -20 31 -11 13 -19 29 -19 37 0 7 -6 25 -14 41 -45 95
-68 152 -106 263 -23 69 -48 134 -55 146 -7 11 -27 55 -43 97 -26 66 -28 77
-13 78 9 0 48 3 88 7 40 4 70 6 68 4 -2 -2 8 -20 21 -40 53 -80 82 -105 69
-59 -6 20 -5 21 8 5 19 -24 30 -23 22 3 -4 12 -8 27 -9 33 -4 25 -22 43 -49
50 -26 6 -28 5 -22 -16 6 -17 4 -20 -4 -12 -18 17 -3 62 22 67 12 2 25 5 28 6
4 0 9 -6 13 -14z m3916 -26 c0 -9 7 -22 15 -29 23 -19 19 -42 -7 -38 -16 2
-23 -4 -29 -25 -4 -15 -3 -25 1 -22 14 9 23 -16 24 -69 1 -45 4 -51 26 -57 14
-4 20 -7 14 -8 -6 -1 -22 -10 -35 -22 -16 -14 -32 -19 -50 -15 -15 3 -35 -1
-47 -9 -11 -8 -51 -21 -89 -29 -37 -8 -98 -29 -135 -45 -37 -17 -72 -31 -78
-31 -5 0 9 18 32 40 28 26 37 40 27 40 -9 0 -22 -6 -29 -14 -8 -10 -18 -12
-33 -7 -28 11 -78 -1 -119 -29 -28 -18 -26 -15 11 19 24 23 52 41 63 41 11 0
22 8 24 18 3 9 21 28 41 42 20 14 63 56 96 95 33 38 69 78 81 87 11 10 17 18
12 18 -5 0 -3 7 4 15 7 8 15 13 19 11 3 -2 26 6 51 19 53 26 110 28 110 4z
m-3623 -176 c-2 -46 0 -83 4 -83 5 0 9 -7 9 -15 0 -9 -6 -12 -15 -9 -12 5 -15
-3 -17 -35 -1 -23 -2 -49 -2 -58 -1 -10 5 -17 12 -15 6 1 11 -1 10 -5 -1 -5 4
-21 10 -36 7 -16 10 -33 7 -38 -3 -5 4 -22 16 -38 l22 -30 -17 -273 c-28 -448
-47 -662 -59 -675 -16 -16 -274 -26 -342 -13 -36 7 -57 18 -76 40 -14 16 -31
30 -38 30 -9 0 -11 8 -7 26 6 22 4 25 -14 19 -16 -5 -20 -2 -20 15 0 14 4 19
12 14 8 -5 9 -2 5 10 -4 10 -7 23 -7 29 0 8 -4 7 -9 -2 -5 -8 -9 48 -8 141 0
143 -1 156 -20 175 -17 17 -22 40 -28 114 -4 52 -12 105 -17 119 -10 27 -38
375 -38 478 0 48 3 62 15 62 8 0 16 -8 16 -17 1 -10 3 -32 5 -50 7 -83 147
-428 188 -462 9 -8 16 -18 16 -24 0 -5 -9 -2 -20 8 -20 18 -38 16 -26 -3 14
-23 130 -82 169 -86 56 -5 77 -14 109 -48 22 -24 58 -38 58 -24 0 2 3 12 7 22
5 13 3 16 -10 11 -21 -8 -70 31 -63 50 4 8 1 11 -5 7 -8 -4 -9 1 -4 15 4 13 2
21 -5 21 -15 0 -2 42 16 53 8 4 14 15 14 23 0 8 13 43 29 78 36 76 46 117 66
265 8 62 17 117 20 121 3 4 6 57 7 116 1 60 4 113 7 119 11 21 22 -65 18 -142z
m2806 47 c-8 -19 -14 -52 -15 -73 0 -46 -15 -57 -38 -27 -10 13 -28 23 -43 23
-15 0 -27 5 -27 12 0 20 11 24 36 15 18 -7 24 -6 24 5 0 9 6 12 16 8 14 -5 16
0 12 38 -3 24 0 57 5 72 l9 28 17 -33 c15 -29 16 -37 4 -68z m-89 25 c-4 -8
-10 -15 -15 -15 -5 0 -9 7 -9 15 0 8 7 15 15 15 9 0 12 -6 9 -15z m-2909 -75
c3 -5 1 -10 -4 -10 -6 0 -11 5 -11 10 0 6 2 10 4 10 3 0 8 -4 11 -10z m412
-72 c-2 -13 -4 -5 -4 17 -1 22 1 32 4 23 2 -10 2 -28 0 -40z m3523 28 c0 -2
-7 -7 -16 -10 -8 -3 -12 -2 -9 4 6 10 25 14 25 6z m-1277 -36 c-6 -23 -43 -27
-43 -4 0 8 5 12 10 9 6 -3 10 -1 10 4 0 6 6 11 14 11 9 0 12 -7 9 -20z m-2188
-20 c-3 -5 -15 -10 -26 -10 -10 0 -19 -4 -19 -10 0 -5 4 -10 9 -10 10 0 19
-48 23 -120 2 -30 10 -53 25 -70 23 -25 29 -40 15 -40 -4 0 -12 10 -17 21 -15
32 -30 19 -26 -21 2 -33 21 -69 21 -42 0 7 6 12 14 12 9 0 13 -13 11 -44 -1
-34 -7 -50 -26 -65 -22 -18 -23 -22 -12 -51 12 -32 4 -63 -22 -82 -16 -12 -30
-9 -17 4 16 16 16 71 0 66 -8 -3 -14 -26 -16 -58 -3 -49 -2 -51 13 -36 9 9 23
16 31 16 8 0 23 6 35 13 17 10 22 9 32 -8 11 -18 12 -16 18 20 6 37 6 36 8
-17 1 -45 -2 -58 -13 -58 -22 0 -31 -20 -31 -65 0 -38 -2 -40 -32 -43 -18 -2
-33 -7 -33 -13 0 -5 5 -9 10 -9 6 0 10 -7 10 -15 0 -8 8 -15 18 -15 12 0 18
-9 20 -27 2 -21 -1 -24 -10 -15 -17 17 -28 15 -29 -5 0 -11 -3 -13 -6 -5 -2 6
-14 12 -25 12 -15 0 -19 -5 -15 -20 3 -11 -3 -35 -13 -54 l-17 -35 -6 56 c-3
30 -2 66 3 79 5 13 12 144 14 291 7 315 15 453 29 471 11 14 61 17 52 2z m275
-92 c24 -26 95 -170 105 -213 14 -62 17 -115 6 -115 -6 0 -11 -9 -11 -20 0
-12 5 -17 14 -14 14 5 24 -19 33 -85 3 -19 11 -52 19 -74 19 -55 18 -77 -5
-77 -11 0 -26 -3 -35 -6 -10 -4 -16 -1 -16 10 0 9 -6 13 -14 10 -8 -3 -17 -27
-21 -55 -4 -27 -11 -46 -16 -43 -15 9 -39 -16 -39 -38 0 -13 -5 -18 -14 -15
-11 4 -16 -4 -19 -31 l-4 -37 -1 43 c-1 23 3 42 8 42 6 0 10 6 10 14 0 8 5 16
11 18 29 10 10 138 -25 163 -13 10 -15 32 -13 136 1 68 -2 188 -7 267 -8 150
-5 162 34 120z m-193 -50 c-3 -8 -6 -5 -6 6 -1 11 2 17 5 13 3 -3 4 -12 1 -19z
m2843 7 c-7 -8 -17 -15 -22 -15 -6 0 -5 7 2 15 7 8 17 15 22 15 6 0 5 -7 -2
-15z m935 -75 c3 -5 -1 -10 -9 -10 -9 0 -16 5 -16 10 0 6 4 10 9 10 6 0 13 -4
16 -10z m-3778 -42 c-3 -8 -6 -5 -6 6 -1 11 2 17 5 13 3 -3 4 -12 1 -19z
m-798 -43 c0 -5 -6 -1 -14 9 -8 11 -15 24 -15 30 0 5 7 1 15 -10 8 -10 14 -23
14 -29z m3738 1 c-3 -8 -9 -75 -13 -149 l-7 -134 -27 0 c-22 0 -26 4 -22 19 2
10 8 18 13 18 5 0 9 5 9 11 0 6 -6 9 -14 6 -21 -8 -25 1 -16 34 5 16 6 28 2
25 -4 -2 -13 2 -20 10 -11 12 -9 16 13 24 24 9 27 30 4 30 -6 0 -17 7 -25 15
-9 8 -20 15 -25 15 -12 0 -12 -27 1 -35 12 -8 13 -25 2 -25 -5 0 -14 11 -20
24 -9 20 -7 27 9 42 10 9 19 14 19 9 0 -4 7 -2 15 5 8 7 12 16 9 22 -3 5 5 6
20 2 16 -4 26 -2 26 5 0 6 -6 11 -12 11 -7 1 1 7 17 15 40 18 48 18 42 1z
m-2940 -133 c-3 -10 -5 -2 -5 17 0 19 2 27 5 18 2 -10 2 -26 0 -35z m-67 7 c0
-5 -4 -10 -10 -10 -5 0 -10 5 -10 10 0 6 5 10 10 10 6 0 10 -4 10 -10z m11
-46 c-9 -28 -9 -29 -10 -3 -1 14 2 29 6 32 11 12 13 2 4 -29z m2776 14 c-3 -8
-6 -5 -6 6 -1 11 2 17 5 13 3 -3 4 -12 1 -19z m-16 -51 c-16 -16 -26 0 -10 19
9 11 15 12 17 4 2 -6 -1 -17 -7 -23z m135 6 c-10 -10 -19 5 -10 18 6 11 8 11
12 0 2 -7 1 -15 -2 -18z m-26 -102 c0 -6 -4 -13 -10 -16 -5 -3 -10 1 -10 9 0
9 5 16 10 16 6 0 10 -4 10 -9z m-2820 -73 c0 -34 -3 -58 -7 -55 -9 10 -10 117
0 117 4 0 7 -28 7 -62z m185 -18 c3 -5 1 -10 -4 -10 -6 0 -11 5 -11 10 0 6 2
10 4 10 3 0 8 -4 11 -10z m-245 -30 c0 -5 -2 -10 -4 -10 -3 0 -8 5 -11 10 -3
6 -1 10 4 10 6 0 11 -4 11 -10z m260 -34 c0 -14 -4 -28 -10 -31 -6 -4 -10 7
-10 24 0 17 5 31 10 31 6 0 10 -11 10 -24z m2170 -39 c-44 -99 -60 -215 -56
-400 3 -95 7 -183 11 -197 5 -19 4 -22 -4 -10 -9 13 -11 13 -11 -2 0 -39 -17
-14 -53 80 -44 115 -57 184 -57 312 1 78 4 99 19 118 25 29 31 28 31 -4 0 -16
5 -24 13 -21 7 2 11 17 9 34 -2 23 3 34 23 47 25 16 25 16 25 -11 l1 -28 14
25 c8 14 12 33 9 42 -4 13 34 68 44 63 1 -1 -7 -23 -18 -48z m-2390 33 c0 -5
-2 -10 -4 -10 -3 0 -8 5 -11 10 -3 6 -1 10 4 10 6 0 11 -4 11 -10z m460 -192
c0 -13 -38 -9 -43 5 -3 6 -6 -1 -6 -16 -1 -34 27 -87 46 -87 7 0 13 -10 13
-22 0 -23 56 -144 71 -153 5 -4 9 -19 9 -34 0 -16 7 -34 15 -41 8 -7 15 -19
15 -27 0 -8 18 -68 40 -133 22 -65 40 -123 40 -128 0 -14 -52 -2 -74 17 -23
19 -55 88 -56 116 0 18 -31 55 -46 55 -5 0 -11 4 -66 50 -23 19 -39 27 -43 20
-9 -14 -31 3 -38 30 -3 13 1 24 12 30 28 14 24 65 -10 118 -16 26 -35 61 -43
77 -13 28 -13 30 5 33 22 4 26 37 5 45 -8 3 -17 21 -21 39 -4 18 -12 36 -18
40 -8 4 -7 13 0 30 9 18 12 19 12 6 1 -21 21 -24 21 -4 0 18 58 80 83 89 9 3
17 17 18 29 0 20 59 -163 59 -184z m-103 186 c-3 -3 -12 -4 -19 -1 -8 3 -5 6
6 6 11 1 17 -2 13 -5z m-340 -26 c-3 -8 -6 -5 -6 6 -1 11 2 17 5 13 3 -3 4
-12 1 -19z m283 -9 c0 -20 -21 -49 -35 -49 -8 0 -15 7 -15 15 0 8 8 15 17 15
15 0 14 2 -3 15 -18 14 -18 14 9 15 15 0 27 -5 27 -11z m-273 -46 c-3 -10 -5
-4 -5 12 0 17 2 24 5 18 2 -7 2 -21 0 -30z m-87 8 c0 -12 -42 -42 -49 -36 -5
6 29 45 41 45 4 0 8 -4 8 -9z m30 -1 c0 -5 -2 -10 -4 -10 -3 0 -8 5 -11 10 -3
6 -1 10 4 10 6 0 11 -4 11 -10z m1910 -55 c-23 -27 -111 -98 -116 -93 -4 5
115 108 125 108 2 0 -2 -7 -9 -15z m-1970 -25 c0 -5 -6 -10 -14 -10 -23 0 -46
-29 -46 -57 0 -19 4 -24 16 -19 11 4 18 -1 21 -14 3 -11 12 -20 20 -20 8 0 13
-6 10 -12 -2 -7 -18 -13 -35 -13 -34 0 -43 -11 -14 -18 14 -3 12 -6 -8 -14
-14 -6 -27 -9 -29 -7 -2 1 0 43 4 93 7 87 8 90 34 94 14 2 29 5 34 6 4 0 7 -3
7 -9z m40 1 c0 -5 -7 -11 -15 -15 -15 -5 -20 5 -8 17 9 10 23 9 23 -2z m50 -1
c0 -5 -4 -10 -10 -10 -5 0 -10 5 -10 10 0 6 5 10 10 10 6 0 10 -4 10 -10z m27
-37 c-3 -10 -5 -4 -5 12 0 17 2 24 5 18 2 -7 2 -21 0 -30z m-97 -42 c0 -6 -4
-13 -10 -16 -5 -3 -10 1 -10 9 0 9 5 16 10 16 6 0 10 -4 10 -9z m80 -11 c0 -5
-5 -10 -11 -10 -5 0 -7 5 -4 10 3 6 8 10 11 10 2 0 4 -4 4 -10z m210 -21 c0
-6 -4 -7 -10 -4 -5 3 -10 11 -10 16 0 6 5 7 10 4 6 -3 10 -11 10 -16z m1596
-84 c-3 -36 -10 -85 -15 -108 -11 -50 -25 -178 -22 -191 1 -6 4 -26 5 -45 3
-26 9 -37 22 -39 11 -2 36 -8 58 -14 l39 -9 -6 -55 c-4 -34 -2 -54 5 -54 7 0
8 -16 3 -46 -7 -52 -1 -65 77 -151 103 -114 116 -220 36 -302 -47 -48 -72 -62
-135 -77 l-56 -13 -37 32 c-32 26 -39 39 -44 82 -8 73 17 164 74 270 43 79 76
172 65 183 -2 2 -11 -22 -20 -54 -12 -41 -30 -71 -64 -108 -81 -85 -101 -122
-101 -181 0 -28 7 -75 16 -104 16 -56 14 -71 -10 -52 -25 21 -56 98 -61 153
-7 72 13 108 104 184 68 57 100 94 101 118 0 5 -12 -4 -27 -19 -16 -15 -46
-39 -68 -53 -71 -44 -137 -105 -151 -139 -30 -70 -6 -170 52 -225 27 -27 30
-38 9 -38 -23 0 -104 78 -126 122 -34 66 -19 183 29 228 30 28 105 68 162 86
70 22 107 55 115 105 4 24 12 39 21 39 8 0 14 3 14 8 0 4 3 17 6 30 6 19 2 22
-22 22 -15 0 -76 -11 -134 -26 -105 -25 -108 -26 -173 -87 -86 -81 -109 -131
-115 -257 -5 -112 14 -172 79 -254 58 -72 119 -112 199 -130 86 -20 130 -20
204 -1 145 38 256 168 275 323 20 168 -59 320 -209 398 -41 22 -54 32 -35 28
196 -42 323 -324 238 -532 -37 -89 -125 -177 -225 -225 l-71 -35 -3 -58 c-1
-33 2 -64 7 -71 20 -23 29 -76 17 -91 -22 -26 -35 -78 -26 -103 5 -13 7 -52 5
-87 -2 -34 0 -65 5 -68 5 -3 7 -13 4 -21 -3 -8 -3 -20 1 -26 4 -7 9 -31 10
-54 1 -23 7 -52 14 -64 9 -17 9 -24 0 -27 -17 -6 -13 -40 7 -51 9 -6 12 -11 6
-11 -11 0 -7 -58 6 -75 9 -11 6 -58 -5 -92 -9 -27 -68 -48 -178 -63 -45 -6
-97 -16 -115 -22 -19 -5 -98 -12 -175 -14 -78 -2 -171 -7 -207 -11 -36 -3
-105 -6 -155 -5 -79 2 -92 5 -109 25 -11 13 -21 17 -23 11 -6 -18 -153 21
-167 45 -3 5 -8 54 -11 108 -2 54 -13 161 -25 238 -11 77 -20 160 -20 186 0
25 -4 49 -8 55 -9 9 -27 108 -36 195 -3 25 4 149 14 275 11 126 20 277 20 336
0 58 3 113 6 122 4 11 23 -6 70 -60 35 -42 64 -79 64 -82 0 -12 53 -32 82 -32
20 0 45 17 98 68 39 38 86 90 104 117 32 45 59 67 99 81 9 3 17 15 17 26 0 10
-4 16 -10 13 -6 -4 -7 1 -3 11 4 11 8 13 11 6 6 -20 23 -13 59 26 83 90 -68
-131 -183 -268 -69 -81 -89 -101 -101 -99 -19 3 -33 -2 -33 -12 0 -8 16 -10
51 -6 57 7 81 22 180 118 75 72 94 99 279 395 122 195 197 300 227 319 19 12
32 29 33 41 0 19 8 34 18 34 2 0 1 -29 -2 -65z m-1879 27 c7 -4 8 -13 4 -20
-6 -9 -12 -7 -26 8 -14 15 -15 20 -4 20 8 0 19 -4 26 -8z m-79 -107 c7 0 12
-3 12 -7 0 -5 0 -14 0 -22 0 -7 -12 -16 -26 -19 -19 -3 -24 -1 -20 10 3 8 6
31 7 51 1 32 2 34 8 12 4 -14 12 -25 19 -25z m79 23 c-3 -8 -6 -5 -6 6 -1 11
2 17 5 13 3 -3 4 -12 1 -19z m-103 -133 c-4 -8 -8 -15 -10 -15 -2 0 -4 7 -4
15 0 8 4 15 10 15 5 0 7 -7 4 -15z m6286 -41 c7 -7 -8 -10 -52 -8 l-63 3 54
-10 c63 -11 60 -9 64 -36 1 -12 8 -28 15 -36 10 -12 10 -16 -3 -21 -19 -7 -19
-30 0 -46 10 -8 12 -17 6 -24 -5 -6 -12 -28 -16 -49 -11 -57 -44 -77 -121 -75
-35 1 -67 -2 -71 -5 -14 -15 17 -29 56 -25 23 2 41 0 41 -4 0 -3 26 -12 58
-18 31 -7 73 -21 92 -31 47 -24 23 -24 -31 1 -24 11 -62 20 -85 20 -22 0 -63
7 -90 15 -63 19 -145 19 -219 0 -59 -16 -125 -47 -348 -164 -65 -34 -123 -58
-129 -55 -6 4 -8 2 -5 -3 4 -6 -7 -16 -24 -23 -26 -11 -33 -11 -41 1 -8 11 -9
11 -4 -3 4 -13 -4 -20 -32 -29 -20 -7 -43 -12 -49 -11 -19 4 -74 -28 -68 -38
3 -5 -13 -18 -36 -29 -38 -19 -44 -19 -79 -5 -36 15 -62 44 -39 44 11 0 8 29
-5 60 -7 18 51 100 71 100 7 0 19 13 28 29 8 16 23 32 33 35 10 4 54 47 97 97
43 50 107 112 142 139 46 35 59 49 46 52 -10 2 16 20 67 46 47 24 90 47 95 51
15 12 144 38 270 55 124 16 358 17 375 0z m80 -24 c8 -5 11 -10 5 -10 -5 0
-17 5 -25 10 -8 5 -10 10 -5 10 6 0 17 -5 25 -10z m-6603 -22 c11 -18 13 -41
7 -58 -3 -8 -7 -35 -9 -60 -7 -80 -16 -134 -24 -144 -4 -6 -6 -32 -5 -58 2
-26 -1 -50 -6 -53 -6 -3 -10 -14 -10 -24 0 -22 -36 -65 -44 -53 -6 9 11 129
20 144 3 4 8 54 11 110 2 57 9 109 13 117 5 9 2 24 -7 38 -8 12 -13 30 -9 38
7 18 52 20 63 3z m303 -42 c0 -3 -4 -8 -10 -11 -5 -3 -10 -1 -10 4 0 6 5 11
10 11 6 0 10 -2 10 -4z m1300 -26 c-6 -11 -12 -20 -14 -20 -2 0 -2 9 1 20 3
11 9 20 15 20 5 0 4 -9 -2 -20z m-56 -51 c-7 -11 -34 -12 -34 -1 0 5 3 12 8
16 4 4 8 12 8 17 3 22 6 23 15 1 5 -13 7 -28 3 -33z m2796 11 c0 -5 -2 -10 -4
-10 -3 0 -8 5 -11 10 -3 6 -1 10 4 10 6 0 11 -4 11 -10z m-2530 -60 c-12 -16
-24 -30 -26 -30 -3 0 3 14 13 30 9 17 21 30 26 30 5 0 -1 -13 -13 -30z m2908
-32 c11 -14 10 -16 -7 -11 -12 3 -21 9 -21 12 0 8 12 23 14 19 1 -2 7 -11 14
-20z m-3077 -61 c-10 -9 -11 -8 -5 6 3 10 9 15 12 12 3 -3 0 -11 -7 -18z
m3279 -32 c0 -7 6 -16 13 -18 7 -4 6 -6 -4 -6 -9 -1 -19 6 -23 14 -3 8 -9 15
-13 14 -20 -3 -43 2 -43 9 0 4 16 6 35 4 20 -2 35 -10 35 -17z m-1045 -135
c-3 -5 -12 -10 -18 -10 -7 0 -6 4 3 10 19 12 23 12 15 0z m2449 -7 c38 -18 52
-39 37 -57 -10 -12 6 -83 29 -125 6 -12 7 -21 2 -21 -12 0 -111 36 -119 43 -3
4 -18 7 -32 7 -35 0 -144 34 -172 53 l-22 16 26 10 c15 6 27 15 27 21 0 5 8
10 18 10 23 0 42 19 42 42 0 15 9 18 65 18 39 0 78 -6 99 -17z m-2469 -43 c-3
-5 -11 -10 -16 -10 -6 0 -7 5 -4 10 3 6 11 10 16 10 6 0 7 -4 4 -10z m2194
-21 c-25 -16 -32 -9 -13 12 12 13 20 16 22 9 3 -7 -2 -16 -9 -21z m-101 -113
c77 -31 134 -65 127 -77 -4 -5 2 -6 11 -2 11 4 15 2 11 -4 -6 -10 105 -123
122 -123 17 0 92 -61 86 -70 -3 -5 0 -7 8 -4 9 3 17 -3 20 -16 3 -12 10 -19
16 -16 6 4 37 -18 69 -48 33 -29 69 -57 81 -61 11 -3 21 -11 21 -16 0 -6 12
-21 28 -34 26 -24 26 -24 5 -25 -14 0 -23 -6 -23 -15 0 -19 -17 -19 -54 0 -15
8 -42 15 -60 15 -28 -1 -29 -2 -13 -14 10 -8 15 -20 11 -29 -4 -11 -1 -14 13
-11 19 5 62 -31 50 -42 -3 -4 -2 -15 4 -26 10 -18 8 -18 -20 3 -17 12 -31 27
-31 31 0 5 -11 14 -25 20 -14 6 -25 17 -25 24 0 8 -13 20 -30 29 -16 9 -30 20
-30 25 0 10 -124 71 -185 90 -79 25 -130 44 -140 50 -5 4 -23 10 -39 14 -17 4
-42 16 -56 26 -14 10 -38 22 -53 25 -37 10 -135 87 -158 125 -13 21 -17 40
-12 62 8 42 21 68 34 68 6 0 25 6 42 14 99 42 116 43 195 12z m607 -36 c-3 -5
-11 -10 -16 -10 -6 0 -7 5 -4 10 3 6 11 10 16 10 6 0 7 -4 4 -10z m-2001 -24
c27 -8 87 -37 135 -65 47 -27 106 -56 131 -64 70 -24 247 -41 305 -30 28 5 57
7 66 5 24 -5 12 -40 -20 -56 -14 -8 -37 -27 -51 -42 -14 -15 -19 -24 -13 -20
9 5 11 2 7 -9 -4 -9 -12 -14 -20 -11 -7 3 -31 -16 -54 -42 -65 -73 -144 -152
-153 -152 -11 0 -99 -81 -208 -191 -47 -48 -104 -100 -127 -116 -48 -35 -137
-111 -198 -169 -41 -40 -99 -63 -116 -46 -5 5 -3 22 3 40 8 23 18 32 37 34 24
3 27 7 30 48 6 110 34 361 48 426 8 39 18 126 24 193 10 133 33 202 85 254 32
32 28 31 89 13z m496 -350 c0 -2 -8 -10 -17 -17 -16 -13 -17 -12 -4 4 13 16
21 21 21 13z m700 -6 c0 -5 -5 -10 -11 -10 -5 0 -7 5 -4 10 3 6 8 10 11 10 2
0 4 -4 4 -10z m-2391 -115 c0 -5 -6 1 -14 15 -8 14 -14 30 -14 35 0 6 6 -1 14
-15 8 -14 14 -29 14 -35z m3340 -21 c27 -45 26 -62 -2 -97 -17 -21 -36 -30
-82 -38 -33 -6 -77 -20 -98 -30 -25 -13 -43 -17 -53 -11 -14 8 -12 12 13 30
16 11 47 22 69 25 32 3 35 5 17 11 -28 10 -38 35 -15 42 40 13 58 27 70 52 6
15 22 32 34 38 13 6 24 12 25 13 0 0 10 -15 22 -35z m-99 6 c0 -5 -4 -10 -10
-10 -5 0 -10 5 -10 10 0 6 5 10 10 10 6 0 10 -4 10 -10z m-449 -123 c-13 -13
-26 -3 -16 12 3 6 11 8 17 5 6 -4 6 -10 -1 -17z m449 -87 c0 -5 -4 -10 -10
-10 -5 0 -10 5 -10 10 0 6 5 10 10 10 6 0 10 -4 10 -10z m-955 -10 c-3 -5 -10
-10 -16 -10 -5 0 -9 5 -9 10 0 6 7 10 16 10 8 0 12 -4 9 -10z m25 -20 c-20
-13 -33 -13 -25 0 3 6 14 10 23 10 15 0 15 -2 2 -10z m-170 -36 c0 -8 -4 -12
-10 -9 -5 3 -10 10 -10 16 0 5 5 9 10 9 6 0 10 -7 10 -16z m90 -4 c8 -5 11
-12 7 -16 -3 -4 -13 -2 -20 4 -8 7 -18 8 -22 4 -5 -4 -5 -1 -1 6 9 14 16 15
36 2z m-139 -20 c-13 -11 -28 -20 -35 -20 -6 1 0 10 13 20 13 11 28 20 35 20
6 -1 0 -10 -13 -20z m79 5 c-7 -9 -15 -13 -17 -11 -7 7 7 26 19 26 6 0 6 -6
-2 -15z m-60 -40 c0 -6 -57 -35 -70 -35 -20 0 -9 19 18 28 30 12 52 14 52 7z
m-100 -59 c0 -3 -4 -8 -10 -11 -5 -3 -10 -1 -10 4 0 6 5 11 10 11 6 0 10 -2
10 -4z m60 0 c0 -3 -4 -8 -10 -11 -5 -3 -10 -1 -10 4 0 6 5 11 10 11 6 0 10
-2 10 -4z m-1250 -143 c0 -5 -8 -17 -17 -28 -14 -18 -15 -18 -9 -2 3 10 6 23
6 28 0 5 5 9 10 9 6 0 10 -3 10 -7z m184 -751 c3 -5 37 -21 77 -37 57 -22 68
-30 55 -37 -13 -7 -16 -17 -11 -38 6 -28 5 -29 -47 -35 -45 -5 -61 -2 -105 19
-29 15 -53 33 -53 41 0 8 3 14 8 14 34 -6 39 12 17 64 -6 14 -2 17 23 17 17 0
33 -4 36 -8z"/>
<path d="M7070 8889 c0 -5 5 -7 10 -4 6 3 10 8 10 11 0 2 -4 4 -10 4 -5 0 -10
-5 -10 -11z"/>
<path d="M7025 8810 c-3 -5 -2 -10 4 -10 5 0 13 5 16 10 3 6 2 10 -4 10 -5 0
-13 -4 -16 -10z"/>
<path d="M6838 8743 c7 -3 16 -2 19 1 4 3 -2 6 -13 5 -11 0 -14 -3 -6 -6z"/>
<path d="M3651 8559 c-74 -7 -214 -51 -240 -74 -11 -11 -8 -15 15 -27 33 -15
42 -50 22 -84 -40 -66 -59 -107 -55 -117 2 -7 10 0 17 16 9 17 21 27 35 27 13
0 48 15 79 34 30 18 75 37 98 41 24 4 48 9 53 11 69 20 135 21 135 3 0 -5 4
-9 10 -9 5 0 7 7 4 15 -4 10 0 15 15 15 14 0 19 -5 15 -15 -7 -18 0 -19 25 -3
15 9 24 8 46 -6 29 -19 45 -15 27 7 -16 18 1 40 32 40 14 0 26 4 26 9 0 5 5 6
11 2 19 -11 0 69 -19 84 -41 31 -206 46 -351 31z"/>
<path d="M4060 8524 c-16 -8 -19 -14 -9 -14 8 0 24 7 35 15 24 18 7 18 -26 -1z"/>
<path d="M4210 8350 c0 -5 5 -10 11 -10 5 0 7 5 4 10 -3 6 -8 10 -11 10 -2 0
-4 -4 -4 -10z"/>
<path d="M4072 8291 c-33 -27 -42 -44 -18 -35 7 3 21 -2 29 -11 28 -27 97 4
84 39 -3 7 -18 18 -34 24 -25 8 -34 6 -61 -17z"/>
<path d="M3250 7988 c0 -4 7 -8 15 -8 8 0 15 -7 15 -15 0 -8 7 -15 15 -15 8 0
15 8 15 19 0 13 -9 20 -30 23 -16 3 -30 1 -30 -4z"/>
<path d="M3356 7935 c4 -8 18 -15 32 -15 20 0 23 3 14 12 -18 18 -52 21 -46 3z"/>
<path d="M6478 8793 c7 -3 16 -2 19 1 4 3 -2 6 -13 5 -11 0 -14 -3 -6 -6z"/>
<path d="M5616 6964 c-9 -22 3 -32 14 -14 12 19 12 30 1 30 -5 0 -12 -7 -15
-16z"/>
<path d="M5375 6950 c-3 -5 -1 -10 4 -10 6 0 11 5 11 10 0 6 -2 10 -4 10 -3 0
-8 -4 -11 -10z"/>
<path d="M5455 6920 c-3 -5 -1 -10 4 -10 6 0 11 5 11 10 0 6 -2 10 -4 10 -3 0
-8 -4 -11 -10z"/>
<path d="M5715 6890 c3 -5 8 -10 11 -10 2 0 4 5 4 10 0 6 -5 10 -11 10 -5 0
-7 -4 -4 -10z"/>
<path d="M5275 6810 c-4 -6 -4 -10 -1 -10 2 0 11 -3 20 -6 9 -3 16 -2 16 4 0
14 -28 23 -35 12z"/>
<path d="M4673 6788 c-15 -20 -25 -38 -20 -38 3 0 12 11 21 25 17 26 16 35 -1
13z"/>
<path d="M5338 6110 c-3 -16 -1 -30 4 -30 4 0 8 14 8 30 0 17 -2 30 -4 30 -2
0 -6 -13 -8 -30z"/>
<path d="M5447 6103 c-7 -7 3 -33 13 -33 14 0 19 28 5 33 -7 3 -15 3 -18 0z"/>
<path d="M5284 5979 c-4 -7 -7 -26 -6 -42 2 -17 -2 -26 -8 -22 -5 3 -10 0 -10
-7 0 -18 -58 -139 -76 -159 -13 -15 -11 -17 18 -23 19 -4 34 -2 36 4 5 15 22
12 22 -4 0 -8 5 -18 11 -22 8 -4 9 0 4 15 -5 15 -2 21 10 21 10 0 13 5 9 11
-4 7 3 19 16 29 l23 18 -21 11 c-26 14 -62 -1 -62 -24 0 -8 -9 -19 -20 -25
-31 -16 -24 4 14 41 24 23 31 36 23 41 -8 5 -5 14 11 29 22 20 24 20 43 3 11
-10 19 -12 19 -6 0 7 -9 17 -20 24 -11 7 -20 17 -20 21 0 5 9 5 20 2 11 -4 20
-2 20 4 0 6 10 11 23 11 21 1 22 1 3 15 -22 17 -50 20 -41 5 3 -5 -4 -10 -16
-10 -16 0 -19 3 -11 13 6 7 7 18 3 26 -7 11 -10 11 -17 0z m9 -186 c-7 -2 -13
-11 -13 -19 0 -8 -4 -14 -10 -14 -5 0 -10 9 -10 20 0 14 6 20 23 19 12 0 16
-3 10 -6z"/>
<path d="M5355 5890 c3 -5 10 -10 16 -10 5 0 9 5 9 10 0 6 -7 10 -16 10 -8 0
-12 -4 -9 -10z"/>
<path d="M5295 5720 c3 -5 8 -10 11 -10 2 0 4 5 4 10 0 6 -5 10 -11 10 -5 0
-7 -4 -4 -10z"/>
<path d="M4758 5623 c6 -2 18 -2 25 0 6 3 1 5 -13 5 -14 0 -19 -2 -12 -5z"/>
<path d="M4756 5575 c4 -8 10 -15 15 -15 5 0 9 7 9 15 0 8 -7 15 -15 15 -9 0
-12 -6 -9 -15z"/>
<path d="M4778 5476 c-4 -19 0 -27 14 -32 23 -7 38 4 20 15 -7 4 -12 14 -10
21 2 7 -2 14 -8 17 -6 2 -14 -8 -16 -21z"/>
<path d="M4690 5404 c15 -17 30 -18 30 -1 0 7 -9 13 -21 14 -17 2 -18 -1 -9
-13z"/>
<path d="M4789 5398 c-5 -10 -17 -18 -26 -18 -25 0 -3 -18 27 -22 19 -2 26
-10 28 -30 4 -32 32 -28 32 5 0 11 -3 17 -7 14 -3 -4 -12 1 -19 11 -17 21 -18
40 -2 24 17 -17 23 -15 36 13 11 24 11 25 -24 22 -22 -1 -40 -9 -45 -19z"/>
<path d="M4935 5390 c3 -5 8 -10 11 -10 2 0 4 5 4 10 0 6 -5 10 -11 10 -5 0
-7 -4 -4 -10z"/>
<path d="M4714 5294 c-5 -26 -3 -39 7 -45 7 -4 16 -5 19 -2 3 3 0 8 -7 10 -9
3 -9 12 -2 29 12 32 12 44 -1 44 -5 0 -12 -16 -16 -36z"/>
<path d="M4630 5220 c0 -5 5 -10 11 -10 5 0 7 5 4 10 -3 6 -8 10 -11 10 -2 0
-4 -4 -4 -10z"/>
<path d="M4800 5210 c0 -5 5 -10 10 -10 6 0 10 5 10 10 0 6 -4 10 -10 10 -5 0
-10 -4 -10 -10z"/>
<path d="M4870 5183 c0 -13 27 -49 33 -43 3 3 -3 16 -14 29 -10 13 -19 19 -19
14z"/>
<path d="M4790 5171 c0 -6 6 -11 14 -11 16 0 29 -27 19 -43 -7 -12 -11 -68 -5
-80 2 -4 10 -3 17 3 10 8 16 7 24 -7 10 -17 10 -17 11 0 0 10 -7 20 -15 23
-11 5 -15 21 -15 60 0 30 -4 54 -9 54 -5 0 -16 3 -25 6 -9 3 -16 1 -16 -5z"/>
<path d="M4730 5161 c0 -5 -12 -12 -27 -16 -19 -5 -23 -9 -13 -13 8 -3 25 -16
38 -30 22 -23 25 -24 40 -8 15 15 15 16 -1 16 -15 0 -21 13 -20 48 1 6 -3 12
-8 12 -5 0 -9 -4 -9 -9z"/>
<path d="M4890 5094 c0 -8 5 -12 10 -9 6 3 10 10 10 16 0 5 -4 9 -10 9 -5 0
-10 -7 -10 -16z"/>
<path d="M4780 5080 c0 -5 5 -10 10 -10 6 0 10 5 10 10 0 6 -4 10 -10 10 -5 0
-10 -4 -10 -10z"/>
<path d="M4896 5055 c4 -8 11 -15 16 -15 6 0 5 6 -2 15 -7 8 -14 15 -16 15 -2
0 -1 -7 2 -15z"/>
<path d="M4901 5014 c0 -11 3 -14 6 -6 3 7 2 16 -1 19 -3 4 -6 -2 -5 -13z"/>
<path d="M4624 5011 c3 -5 -1 -15 -10 -22 -14 -12 -14 -14 2 -19 16 -6 16 -8
-3 -26 -41 -39 -64 -54 -73 -49 -6 4 -10 2 -10 -3 0 -17 44 -22 53 -7 12 22
29 18 22 -4 -3 -11 -1 -22 5 -26 7 -5 8 -11 1 -19 -7 -8 -6 -32 3 -74 13 -66
36 -106 36 -64 0 12 4 22 10 22 5 0 9 -12 9 -27 1 -63 3 -72 17 -84 8 -6 14
-24 14 -40 0 -16 4 -29 8 -29 5 0 14 -22 21 -49 7 -28 16 -51 20 -53 4 -2 11
-18 14 -37 5 -25 4 -32 -6 -28 -10 4 -13 -2 -9 -19 2 -13 10 -24 16 -24 12 0
68 -100 65 -117 -3 -19 14 -53 27 -53 11 0 12 12 8 53 -3 28 -10 58 -16 64
-12 15 -2 67 11 59 8 -5 16 -42 24 -109 2 -16 13 -37 24 -48 20 -20 20 -20 44
0 l24 20 -27 1 c-16 0 -28 5 -28 11 0 5 -3 8 -7 6 -5 -3 -8 10 -9 29 0 28 3
34 20 35 17 0 16 2 -7 11 -17 6 -29 19 -33 36 -3 15 -10 36 -16 47 -10 18 -19
96 -19 152 1 12 -4 34 -9 47 -14 37 -24 272 -12 280 7 4 6 15 -1 31 -12 25
-27 34 -27 16 0 -5 -3 -16 -6 -25 -4 -11 0 -16 12 -16 20 0 8 -16 -16 -22 -10
-2 -14 8 -15 37 -1 49 -13 87 -26 80 -11 -7 -12 -59 -1 -69 4 -4 7 -26 8 -49
1 -58 11 -115 32 -184 10 -32 19 -91 20 -132 1 -42 8 -87 17 -104 18 -35 20
-77 4 -77 -7 0 -9 10 -7 24 3 16 -2 28 -13 37 -10 7 -15 16 -10 19 5 3 -4 43
-20 90 -17 47 -31 92 -32 100 -4 32 -62 120 -79 120 -10 0 -18 7 -18 16 0 14
2 15 17 3 15 -12 16 -12 10 4 -4 10 -7 26 -7 35 0 15 -2 15 -10 2 -8 -13 -11
-11 -16 8 -4 12 -11 22 -16 22 -6 0 -5 7 3 16 16 19 19 53 7 77 -5 11 -5 25 2
38 13 23 5 69 -11 69 -6 0 -8 -4 -5 -9z m86 -363 c0 -6 8 -17 18 -24 14 -11
15 -13 2 -14 -9 0 -21 5 -28 12 -14 14 -16 52 -2 43 6 -3 10 -11 10 -17z m50
-119 c0 -6 -4 -7 -10 -4 -5 3 -10 11 -10 16 0 6 5 7 10 4 6 -3 10 -11 10 -16z
m30 -90 c0 -6 -4 -7 -10 -4 -5 3 -10 11 -10 16 0 6 5 7 10 4 6 -3 10 -11 10
-16z"/>
<path d="M4680 5011 c0 -5 5 -13 10 -16 6 -3 10 -2 10 4 0 5 -4 13 -10 16 -5
3 -10 2 -10 -4z"/>
<path d="M4740 4995 c0 -25 14 -34 24 -16 8 12 -3 41 -15 41 -5 0 -9 -11 -9
-25z"/>
<path d="M4816 5012 c-6 -10 51 -62 67 -62 14 0 6 21 -10 27 -10 4 -25 16 -34
27 -10 12 -18 15 -23 8z"/>
<path d="M4790 4992 c0 -10 6 -26 13 -37 21 -28 31 -1 11 30 -19 30 -24 31
-24 7z"/>
<path d="M4575 4980 c-3 -5 -1 -10 4 -10 6 0 11 5 11 10 0 6 -2 10 -4 10 -3 0
-8 -4 -11 -10z"/>
<path d="M5143 4945 c-17 -19 -16 -25 2 -25 8 0 15 -3 15 -7 0 -14 -17 -35
-26 -33 -21 4 -13 -21 10 -31 42 -20 57 -6 52 47 -5 58 -28 78 -53 49z"/>
<path d="M4690 4905 c0 -8 5 -15 10 -15 6 0 10 7 10 15 0 8 -4 15 -10 15 -5 0
-10 -7 -10 -15z"/>
<path d="M5090 4870 c0 -5 5 -10 10 -10 6 0 10 5 10 10 0 6 -4 10 -10 10 -5 0
-10 -4 -10 -10z"/>
<path d="M4520 4826 c0 -2 7 -6 15 -10 8 -3 15 -1 15 4 0 6 -7 10 -15 10 -8 0
-15 -2 -15 -4z"/>
<path d="M4893 4806 c4 -10 -4 -18 -24 -25 -16 -5 -29 -14 -29 -20 0 -5 18 -2
40 7 40 17 56 52 24 52 -10 0 -14 -6 -11 -14z"/>
<path d="M4469 4793 c-8 -9 -9 -14 -2 -10 21 13 60 -10 66 -40 3 -15 1 -32 -4
-37 -14 -15 -11 -29 5 -23 16 6 30 -19 20 -35 -3 -5 1 -17 9 -26 9 -9 19 -29
22 -44 4 -16 11 -28 15 -28 8 0 -15 84 -33 115 -6 11 -14 41 -18 68 -11 70
-49 98 -80 60z"/>
<path d="M4418 4774 c-30 -16 -35 -24 -15 -24 16 0 54 27 47 33 -3 3 -17 -1
-32 -9z"/>
<path d="M4990 4720 c0 -5 5 -10 11 -10 5 0 7 5 4 10 -3 6 -8 10 -11 10 -2 0
-4 -4 -4 -10z"/>
<path d="M5130 4679 c0 -5 5 -7 10 -4 6 3 10 8 10 11 0 2 -4 4 -10 4 -5 0 -10
-5 -10 -11z"/>
<path d="M4430 4670 c0 -5 5 -10 10 -10 6 0 10 5 10 10 0 6 -4 10 -10 10 -5 0
-10 -4 -10 -10z"/>
<path d="M4480 4646 c0 -15 37 -29 45 -17 2 5 -7 13 -20 19 -20 9 -25 9 -25
-2z"/>
<path d="M5104 4590 c0 -24 11 -26 20 -4 8 22 8 24 -7 24 -7 0 -13 -9 -13 -20z"/>
<path d="M4522 4547 c1 -18 4 -34 9 -37 4 -3 11 -19 15 -35 7 -27 6 -29 -9
-16 -19 15 -23 1 -5 -17 8 -8 9 -12 1 -12 -6 0 2 -26 18 -57 28 -55 40 -121
19 -108 -5 3 -10 -3 -10 -14 0 -12 6 -21 14 -21 15 0 31 -63 21 -80 -10 -16
21 -12 34 4 9 11 9 20 2 35 -16 29 -14 64 3 58 9 -4 15 0 15 11 0 9 1 24 2 32
5 36 -2 90 -12 90 -6 0 -9 -7 -6 -15 4 -8 2 -17 -3 -20 -5 -3 -8 29 -7 76 1
44 -1 83 -5 85 -5 3 -8 -7 -8 -21 0 -33 -24 -28 -29 6 -1 13 -8 27 -15 32 -8
5 -8 9 2 15 14 10 3 23 -30 35 -13 5 -16 0 -16 -26z m67 -184 c1 -7 -4 -13
-10 -13 -5 0 -7 5 -4 10 4 6 -1 22 -10 36 -9 13 -13 30 -9 36 7 11 31 -40 33
-69z"/>
<path d="M4475 4510 c-3 -5 -16 -10 -28 -10 -16 0 -18 -3 -8 -9 18 -12 51 -2
51 15 0 16 -6 18 -15 4z"/>
<path d="M5126 4478 c-10 -36 8 -68 34 -61 13 4 19 11 16 20 -3 8 -6 19 -6 24
0 5 -6 9 -14 9 -8 0 -16 8 -19 18 -3 13 -6 11 -11 -10z"/>
<path d="M4927 4320 c3 -11 12 -20 19 -20 12 0 12 4 2 20 -7 11 -16 20 -19 20
-4 0 -5 -9 -2 -20z"/>
<path d="M4745 4310 c3 -5 8 -10 11 -10 2 0 4 5 4 10 0 6 -5 10 -11 10 -5 0
-7 -4 -4 -10z"/>
<path d="M5161 4304 c0 -11 3 -14 6 -6 3 7 2 16 -1 19 -3 4 -6 -2 -5 -13z"/>
<path d="M5110 4300 c0 -12 26 -31 33 -23 12 11 7 21 -13 26 -11 3 -20 2 -20
-3z"/>
<path d="M4540 4284 c0 -8 5 -12 10 -9 6 3 10 10 10 16 0 5 -4 9 -10 9 -5 0
-10 -7 -10 -16z"/>
<path d="M5087 4279 c4 -13 8 -18 11 -10 2 7 -1 18 -6 23 -8 8 -9 4 -5 -13z"/>
<path d="M4761 4265 c-1 -6 5 -17 12 -24 10 -10 9 -15 -5 -25 -22 -16 -23 -26
-3 -26 8 0 15 5 15 10 0 6 9 10 20 10 11 0 20 5 20 10 0 6 -6 10 -14 10 -7 0
-21 10 -29 23 -9 12 -16 17 -16 12z"/>
<path d="M4536 4198 c12 -174 32 -248 64 -228 8 5 23 1 41 -12 25 -18 30 -19
45 -7 9 8 19 13 21 11 2 -2 17 0 34 3 21 5 29 11 25 21 -3 8 -1 14 4 14 6 0
10 -4 10 -10 0 -5 5 -10 11 -10 8 0 8 4 0 14 -9 11 -7 15 8 19 11 3 19 0 18
-5 -1 -6 4 -13 11 -15 6 -3 12 3 12 12 0 10 5 13 12 9 6 -4 8 -3 5 3 -12 18
-57 21 -74 5 -13 -13 -20 -13 -50 -3 -44 16 -55 8 -14 -10 17 -8 31 -17 31
-21 0 -12 -13 -9 -34 7 -25 19 -42 20 -27 2 7 -10 7 -17 0 -24 -14 -14 -49 4
-84 41 -27 29 -32 51 -13 62 7 5 10 2 6 -7 -2 -8 3 -22 13 -31 17 -16 18 -16
24 2 4 12 -3 27 -20 44 -30 30 -35 32 -35 9 0 -9 -3 -14 -6 -10 -4 3 -10 41
-14 82 -9 96 -30 125 -24 33z"/>
<path d="M4683 4246 c4 -10 7 -22 7 -27 0 -5 5 -9 11 -9 15 0 7 43 -10 48 -10
3 -12 0 -8 -12z"/>
<path d="M4655 4190 c-3 -5 1 -13 10 -16 22 -9 29 1 11 15 -10 8 -16 9 -21 1z"/>
<path d="M4705 4180 c-8 -13 3 -30 21 -30 18 0 18 14 0 29 -10 8 -16 9 -21 1z"/>
<path d="M4790 4181 c0 -6 4 -12 10 -16 22 -14 -3 -36 -39 -34 -59 3 -81 0
-81 -13 0 -9 21 -14 65 -15 55 -2 66 1 75 17 7 13 7 27 -2 44 -11 26 -28 35
-28 17z"/>
<path d="M4837 4136 c-4 -10 -1 -13 9 -9 15 6 19 23 5 23 -5 0 -11 -7 -14 -14z"/>
<path d="M5345 4100 c-3 -5 -1 -10 4 -10 6 0 11 5 11 10 0 6 -2 10 -4 10 -3 0
-8 -4 -11 -10z"/>
<path d="M4828 4083 c-10 -2 -18 -8 -18 -13 0 -13 53 -5 58 9 4 11 -8 12 -40
4z"/>
<path d="M5240 4056 c-182 -93 -244 -127 -259 -140 -9 -7 -34 -23 -56 -34 -22
-11 -51 -31 -65 -44 -31 -28 -87 -68 -95 -68 -4 0 -34 -20 -68 -44 -118 -83
-277 -174 -319 -181 -54 -9 -159 -46 -226 -78 -29 -14 -66 -28 -82 -32 -16 -3
-34 -13 -41 -21 -7 -9 -26 -22 -42 -31 -29 -14 -31 -14 -48 8 -10 13 -19 29
-19 35 0 6 -9 22 -20 35 -39 45 -120 160 -120 169 0 5 -6 13 -13 17 -7 4 -29
31 -50 59 -34 47 -87 94 -87 78 0 -4 19 -28 43 -54 44 -49 105 -129 195 -258
42 -59 53 -82 50 -104 -3 -16 -1 -31 4 -34 4 -3 1 -15 -7 -27 -20 -29 -19 -48
3 -40 9 3 48 31 86 62 38 31 72 56 75 57 3 0 38 15 76 34 39 18 95 39 125 45
57 13 163 47 215 71 93 41 245 116 276 136 21 13 84 51 140 85 57 34 122 75
144 91 22 16 63 42 90 57 28 14 59 35 70 46 19 19 19 19 0 34 -20 15 -20 15
-1 30 26 20 42 19 22 -1 -9 -8 -16 -17 -16 -20 0 -9 27 -3 45 10 16 11 17 17
7 29 -10 12 -10 16 2 20 12 5 30 -24 27 -45 0 -4 13 -2 29 3 36 13 31 44 -6
35 -29 -8 -32 11 -6 30 34 26 -11 14 -78 -20z m-50 -81 c0 -28 -19 -35 -21 -7
-1 16 -2 16 -6 0 -2 -10 -12 -18 -21 -18 -13 1 -10 7 11 25 35 31 37 31 37 0z
m-95 -35 c-10 -11 -23 -20 -29 -20 -6 1 0 10 13 20 30 26 39 26 16 0z"/>
<path d="M4692 4068 c7 -19 31 -21 53 -4 19 15 18 15 -18 16 -27 0 -37 -4 -35
-12z"/>
<path d="M4883 4055 c-8 -22 0 -27 29 -16 18 7 29 6 37 -2 8 -8 11 -7 11 5 0
29 -66 40 -77 13z"/>
<path d="M5111 4063 c-13 -3 -37 -13 -55 -24 -34 -21 -66 -25 -66 -9 0 6 -4
10 -9 10 -13 0 21 -68 36 -75 19 -7 52 16 46 32 -4 9 6 13 33 13 28 0 45 7 62
24 19 20 20 25 6 30 -9 3 -19 5 -22 5 -4 -1 -18 -4 -31 -6z"/>
<path d="M5410 4050 c-13 -8 -13 -10 2 -10 9 0 20 5 23 10 8 13 -5 13 -25 0z"/>
<path d="M4768 4043 c7 -3 16 -2 19 1 4 3 -2 6 -13 5 -11 0 -14 -3 -6 -6z"/>
<path d="M4861 3959 c-17 -16 -29 -19 -54 -14 -30 7 -31 6 -12 -8 11 -8 23
-13 26 -11 4 2 10 -6 14 -19 l7 -22 6 22 c4 13 15 32 25 44 25 28 16 34 -12 8z"/>
<path d="M4940 3951 c0 -16 33 -22 47 -8 11 10 8 13 -17 15 -16 1 -30 -2 -30
-7z"/>
<path d="M4610 3940 c-12 -8 -11 -10 8 -10 12 0 22 5 22 10 0 13 -11 13 -30 0z"/>
<path d="M4900 3941 c0 -4 5 -12 12 -19 15 -15 3 -16 -23 -2 -24 13 -25 -2 -1
-23 16 -14 19 -13 44 7 l28 22 -30 11 c-17 6 -30 8 -30 4z"/>
<path d="M4757 3894 c3 -8 -2 -14 -11 -14 -9 0 -16 5 -16 10 0 6 -5 10 -11 10
-5 0 -7 -4 -4 -10 3 -5 1 -10 -5 -10 -6 0 -9 -4 -6 -9 8 -12 76 6 95 24 12 12
9 14 -17 13 -21 -1 -29 -5 -25 -14z"/>
<path d="M5300 3860 c-9 -6 -10 -10 -3 -10 6 0 15 5 18 10 8 12 4 12 -15 0z"/>
<path d="M4795 3850 c-3 -5 -1 -10 4 -10 6 0 11 5 11 10 0 6 -2 10 -4 10 -3 0
-8 -4 -11 -10z"/>
<path d="M5252 3838 c-18 -18 -14 -27 8 -21 21 6 26 18 12 27 -5 3 -14 0 -20
-6z"/>
<path d="M3892 3228 c-11 -15 -62 -115 -62 -123 0 -3 6 -5 14 -5 19 0 52 56
60 103 7 39 5 45 -12 25z"/>
<path d="M4034 3153 l-18 -28 24 16 c26 17 38 39 22 39 -5 0 -18 -12 -28 -27z"/>
<path d="M3939 3054 c-23 -25 -23 -26 -2 -13 13 7 25 19 27 26 8 19 2 16 -25
-13z"/>
<path d="M4280 2900 c0 -5 5 -10 11 -10 5 0 7 5 4 10 -3 6 -8 10 -11 10 -2 0
-4 -4 -4 -10z"/>
<path d="M4240 2845 c7 -9 15 -13 17 -11 7 7 -7 26 -19 26 -6 0 -6 -6 2 -15z"/>
<path d="M4070 2576 c0 -8 -7 -16 -15 -20 -8 -3 -15 -12 -15 -21 0 -12 4 -11
20 5 11 11 25 20 30 20 15 0 12 17 -5 24 -9 3 -15 0 -15 -8z"/>
<path d="M4056 2516 c-16 -14 -24 -26 -18 -30 6 -3 22 5 36 19 42 42 30 49
-18 11z"/>
<path d="M2411 5303 c7 -12 15 -20 18 -17 3 2 -3 12 -13 22 -17 16 -18 16 -5
-5z"/>
<path d="M1645 5010 c-3 -5 -1 -10 4 -10 6 0 11 5 11 10 0 6 -2 10 -4 10 -3 0
-8 -4 -11 -10z"/>
<path d="M5282 4996 c1 -10 8 -17 13 -17 15 1 12 24 -3 29 -9 3 -13 -2 -10
-12z"/>
<path d="M2510 4086 c0 -8 5 -18 10 -21 6 -3 10 1 10 9 0 8 -4 18 -10 21 -5 3
-10 -1 -10 -9z"/>
<path d="M2525 3520 c10 -11 20 -20 23 -20 3 0 -3 9 -13 20 -10 11 -20 20 -23
20 -3 0 3 -9 13 -20z"/>
<path d="M2888 4064 c-5 -4 -8 -21 -7 -38 0 -30 0 -30 10 -7 11 27 8 57 -3 45z"/>
<path d="M2876 3861 c-4 -5 -2 -12 3 -15 5 -4 12 -2 15 3 4 5 2 12 -3 15 -5 4
-12 2 -15 -3z"/>
<path d="M2912 3769 c-16 -24 -12 -32 12 -23 9 3 16 15 16 25 0 25 -12 24 -28
-2z"/>
<path d="M3200 3593 c0 -41 3 -54 10 -43 13 20 13 87 0 95 -6 4 -10 -16 -10
-52z"/>
<path d="M3310 3585 c25 -26 25 -36 3 -28 -14 5 -15 3 -6 -7 6 -7 9 -19 6 -26
-3 -8 1 -14 10 -14 18 0 30 41 21 75 -4 18 -12 24 -30 23 -23 -2 -23 -2 -4
-23z"/>
<path d="M3335 3499 c-10 -15 1 -23 20 -15 9 3 13 10 10 16 -8 13 -22 13 -30
-1z"/>
<path d="M5931 3794 c0 -11 3 -14 6 -6 3 7 2 16 -1 19 -3 4 -6 -2 -5 -13z"/>
<path d="M3355 3149 c-10 -15 1 -23 20 -15 9 3 13 10 10 16 -8 13 -22 13 -30
-1z"/>
<path d="M3298 3043 c6 -11 18 -25 26 -33 13 -10 16 -10 16 1 0 8 -12 22 -26
33 -26 18 -26 18 -16 -1z"/>
<path d="M4881 2355 c0 -5 20 -44 44 -85 39 -64 45 -81 45 -130 0 -70 -27
-129 -74 -165 -48 -37 -46 -52 4 -24 58 33 87 68 101 122 17 63 2 119 -54 196
-23 33 -47 68 -54 78 -6 10 -12 14 -12 8z"/>
<path d="M4870 1600 c0 -5 7 -10 16 -10 8 0 12 5 9 10 -3 6 -10 10 -16 10 -5
0 -9 -4 -9 -10z"/>
<path d="M4820 1270 c0 -5 5 -10 10 -10 6 0 10 5 10 10 0 6 -4 10 -10 10 -5 0
-10 -4 -10 -10z"/>
<path d="M4788 1263 c-10 -2 -18 -9 -18 -14 0 -14 16 -11 30 6 7 8 11 14 9 14
-2 -1 -12 -3 -21 -6z"/>
<path d="M8893 2773 c9 -2 23 -2 30 0 6 3 -1 5 -18 5 -16 0 -22 -2 -12 -5z"/>
<path d="M2510 2320 c0 -5 5 -10 10 -10 6 0 10 5 10 10 0 6 -4 10 -10 10 -5 0
-10 -4 -10 -10z"/>
<path d="M8330 2004 c0 -8 5 -12 10 -9 6 4 8 11 5 16 -9 14 -15 11 -15 -7z"/>
<path d="M8340 1972 c0 -5 14 -9 30 -10 17 0 30 4 30 9 0 5 -13 9 -30 9 -16 0
-30 -4 -30 -8z"/>
<path d="M5690 3506 c0 -2 8 -10 18 -17 15 -13 16 -12 3 4 -13 16 -21 21 -21
13z"/>
<path d="M6236 3358 c-30 -48 -18 -88 17 -54 11 12 16 13 20 3 2 -6 4 6 3 27
-1 46 -19 57 -40 24z m21 -24 c-3 -3 -12 -4 -19 -1 -8 3 -5 6 6 6 11 1 17 -2
13 -5z"/>
<path d="M6031 3093 c-7 -16 -12 -29 -12 -31 1 -1 -5 -10 -14 -18 -19 -19 -19
-34 -1 -34 8 0 17 15 20 34 4 19 14 40 23 47 15 13 15 12 4 -11 -11 -24 -11
-24 4 -5 16 20 16 36 -1 42 -6 2 -16 -9 -23 -24z"/>
<path d="M8800 3020 c0 -5 5 -10 11 -10 5 0 7 5 4 10 -3 6 -8 10 -11 10 -2 0
-4 -4 -4 -10z"/>
<path d="M9617 2566 c3 -15 10 -29 15 -32 6 -4 7 2 3 17 -10 35 -23 45 -18 15z"/>
<path d="M8060 1846 c0 -21 36 -63 65 -76 l37 -17 -35 -29 c-19 -16 -37 -39
-41 -50 -4 -12 -14 -21 -23 -20 -10 0 -19 -7 -21 -18 -2 -10 -16 -29 -30 -41
-15 -13 -25 -26 -21 -29 7 -7 87 69 123 118 16 21 46 46 67 55 l39 18 -39 31
c-22 18 -46 32 -53 32 -7 0 -22 7 -32 15 -19 14 -36 19 -36 11z"/>
<path d="M8440 1641 c0 -5 -3 -16 -6 -24 -4 -12 0 -14 15 -10 30 8 33 17 10
31 -10 7 -19 8 -19 3z"/>
<path d="M7947 1541 c-15 -29 -14 -30 3 -21 25 13 30 23 21 39 -6 9 -13 5 -24
-18z"/>
<path d="M8380 1470 c0 -13 11 -13 30 0 12 8 11 10 -7 10 -13 0 -23 -4 -23
-10z"/>
<path d="M8275 1390 c3 -5 8 -10 11 -10 2 0 4 5 4 10 0 6 -5 10 -11 10 -5 0
-7 -4 -4 -10z"/>
<path d="M7700 1320 c-21 -7 -21 -8 -5 -9 11 0 27 4 35 9 18 11 5 11 -30 0z"/>
<path d="M7605 1280 c-16 -11 -23 -20 -16 -24 6 -4 11 -2 11 4 0 6 5 8 10 5 6
-3 10 -2 10 4 0 5 10 11 23 13 17 2 19 5 6 10 -9 3 -28 -2 -44 -12z"/>
<path d="M7475 1180 c-3 -5 -2 -10 4 -10 5 0 13 5 16 10 3 6 2 10 -4 10 -5 0
-13 -4 -16 -10z"/>
<path d="M7685 1140 c-3 -5 1 -10 10 -10 9 0 13 5 10 10 -3 6 -8 10 -10 10 -2
0 -7 -4 -10 -10z"/>
<path d="M7755 1092 c-11 -2 -24 -8 -30 -12 -9 -7 -63 -38 -110 -64 -11 -6
-19 -18 -18 -26 2 -8 -13 -26 -32 -39 -19 -13 -35 -28 -35 -34 0 -5 8 -3 18 6
10 10 25 17 33 17 21 1 52 27 45 39 -4 5 4 13 16 16 13 4 37 18 55 31 17 13
34 24 37 24 8 0 49 41 44 44 -1 1 -12 0 -23 -2z"/>
<path d="M7407 789 c-21 -11 -40 -26 -43 -34 -3 -7 -12 -11 -20 -8 -8 3 -14 0
-14 -7 0 -6 -4 -9 -9 -6 -5 3 -14 0 -20 -8 -7 -8 -22 -17 -35 -20 -13 -3 -26
-16 -29 -28 -8 -27 -3 -33 20 -23 10 5 23 9 28 10 20 3 123 54 129 64 4 5 2
12 -4 16 -5 3 -10 1 -10 -6 0 -7 -3 -9 -7 -6 -9 9 37 57 54 57 7 0 13 5 13 10
0 13 -8 12 -53 -11z"/>
<path d="M7193 664 c-10 -22 -9 -25 5 -22 9 2 18 13 20 26 5 30 -10 28 -25 -4z"/>
<path d="M7309 654 c-12 -14 -11 -16 5 -13 11 2 21 10 24 17 5 17 -13 15 -29
-4z"/>
<path d="M7243 607 c-17 -7 -35 -16 -40 -20 -10 -11 42 1 82 19 40 16 3 17
-42 1z"/>
<path d="M7150 458 c11 -24 20 -49 20 -57 0 -7 16 -31 35 -52 19 -22 35 -44
35 -50 0 -15 61 -101 67 -95 3 3 1 11 -5 18 -5 7 -22 36 -37 63 -15 28 -35 59
-45 70 -10 11 -32 48 -49 83 -35 70 -50 84 -21 20z"/>
</g>
</svg>
