<svg xmlns="http://www.w3.org/2000/svg" version="1.0" width="230" height="250">
    <path d="M 93.035919,12.9298 C 105.82234,5.81604 120.33511,1.7411 134.95119,1.13774 142.6497,1.5097 150.39426,2.37196 157.63268,5.46 c 14.27507,5.34614 26.08657,16.28205 33.47027,29.51693 8.17992,13.53419 11.80069,29.27488 13.51557,44.84356 3.78038,51.55484 -15.3129,103.33382 -47.88361,142.96314 -12.81362,12.79645 -28.59325,23.6672 -46.69515,26.99803 -14.978176,2.14404 -31.19569,-1.06154 -43.241084,-10.51166 -7.460419,-5.64074 -10.478394,-15.43199 -9.852524,-24.49249 6.622238,9.35092 17.456009,15.82846 29.033432,16.09088 10.482223,0.50025 20.894376,-4.28937 27.950636,-11.93358 11.84444,-12.7875 13.03389,-34.36049 1.91654,-47.96585 -5.08524,-5.90526 -11,-11.20161 -17.878025,-14.9364 -6.903687,-4.07287 -14.879578,-5.84799 -22.742722,-6.90381 -14.547149,-0.93083 -29.625397,1.70596 -42.434097,8.86221 C 20.375305,165.02291 11.25116,177.55054 8.407715,191.53576 5.486984,202.39462 6.548477,213.75497 7.702728,224.78628 2.939728,212.17037 1.02951,198.75602 0,185.38122 l 0,-9.75518 C 1.675018,126.72758 22.040985,79.02405 54.811737,42.87649 66.07251,31.20949 78.635376,20.52531 93.035919,12.9298 z"/>
</svg>
