<svg aria-hidden="true" version="1.1" xmlns="http://www.w3.org/2000/svg" xmlns:xlink="http://www.w3.org/1999/xlink" x="0px" y="0px" viewBox="0 0 170.08 121.89" enable-background="new 0 0 170.08 121.89" xml:space="preserve" fill="#002855">
        <title>National Library of Finland</title>
        <path d="M0.83,71.78c0.39,0,1.32,0,2.18,0c0.143,0.034,0.272,0.111,0.37,0.22c0.25,0.3,0.68,0.83,1.34,1.67s4.4,4.89,5.49,6.08
            c0.1,0.1,0.16-0.07,0.16-0.12c0.09-0.53,0-2.37,0-4.6c0-0.58,0-1.2-0.09-1.71c0-0.36-0.15-0.76-1.06-1
            c-0.34-0.1-0.47-0.22-0.47-0.37s0.22-0.17,0.45-0.17h1.39c0.64,0,1.21-0.07,1.65-0.07s0.39,0.07,0.39,0.19s-0.1,0.27-0.4,0.34
            c-0.75,0.2-1,0.39-1.07,1.25c0,0.59-0.18,4.14-0.18,6.73c0,0.71,0.11,2,0.11,2.33s-0.11,0.36-0.25,0.36s-0.62-0.37-0.79-0.58
            c-0.29-0.37-0.61-0.79-1.07-1.35c-1.58-1.89-4.46-5.12-6-6.93c-0.07-0.09-0.2,0-0.2,0c0,0.46-0.07,0.93-0.07,2.25
            c0,1.69-0.07,4,0,4.6s0.24,1,1.07,1.24c0.33,0.08,0.42,0.2,0.42,0.3s-0.22,0.24-0.54,0.24c-0.49,0-1.13-0.09-1.74-0.09
            c-0.37,0-0.91,0-1.2,0s-0.44,0-0.44-0.19s0.17-0.25,0.34-0.3c0.79-0.26,1.13-0.33,1.2-1.59c0.08-1.48,0.32-5.37,0.32-6.74
            c0-0.62-0.09-0.79-0.14-0.84c-0.323-0.45-0.828-0.735-1.38-0.78C0.43,72.1,0.25,72,0.25,71.88S0.48,71.78,0.83,71.78z"></path>
        <path d="M19.53,71.95c0.16,0.45,0.44,1.23,0.75,2.06c0.89,2.5,2.14,5.8,2.43,6.53c0.56,1.37,0.85,1.51,1.57,1.71
            c0.27,0.07,0.42,0.15,0.42,0.27s-0.13,0.24-0.55,0.24s-1.46-0.09-2.15-0.09s-0.86,0-1.3,0s-0.52-0.12-0.52-0.22s0.1-0.22,0.42-0.27
            c0.78-0.16,0.73-0.5,0.67-0.83c-0.247-0.955-0.554-1.894-0.92-2.81c0-0.07-0.11-0.19-0.53-0.19c-1.11,0-2.45,0-2.79,0.07
            c-0.06,0-0.15,0.1-0.18,0.15c-0.402,0.908-0.691,1.862-0.86,2.84c0,0.22,0.1,0.51,0.84,0.73c0.29,0.09,0.46,0.19,0.46,0.32
            s-0.26,0.22-0.49,0.22s-0.71,0-1.34,0s-1.48,0.09-1.74,0.09s-0.4-0.09-0.4-0.19s0.1-0.25,0.39-0.34c0.84-0.27,1.06-0.35,1.53-1.44
            c0.41-0.86,2.3-5.92,3-7.61c0.08-0.22,0.12-0.32,0.15-0.42c0.021-0.099,0.051-0.196,0.09-0.29c0.12-0.19,0.36-0.54,0.47-0.73
            s0.21-0.22,0.29-0.22S19.42,71.59,19.53,71.95z M19.97,77.48c-0.27-0.83-1.11-3.28-1.28-3.59c-0.05-0.1-0.1-0.1-0.15,0
            c-0.31,0.81-1.17,3.13-1.3,3.64c0,0.06,0,0.11,0.1,0.11c0.66,0,2,0,2.6,0C19.96,77.63,19.99,77.55,19.97,77.48z"></path>
        <path d="M33.04,71.8c0.412,0.01,0.819-0.09,1.18-0.29c0.12-0.07,0.18-0.12,0.25-0.12s0.17,0.15,0.09,0.39
            c-0.188,0.653-0.315,1.323-0.38,2c0,0.15-0.15,0.34-0.28,0.34s-0.21-0.12-0.26-0.54c-0.11-0.9-0.33-1-1.33-1c-0.3,0-2.06,0-2.32,0
            c-0.06,0-0.13,0.17-0.13,0.22c0,0.79,0,2.55,0,4c0,2,0,3.6,0.09,4.28s0.15,1,1.23,1.18c0.22,0,0.44,0.2,0.44,0.31
            s-0.29,0.22-0.47,0.22s-1.35-0.09-2-0.09s-1.74,0.12-2,0.12s-0.5-0.1-0.5-0.2s0.17-0.26,0.33-0.31c1.15-0.27,1.2-0.54,1.25-1.79
            c0-1,0.12-4.43,0.12-5.73v-2c0.002-0.098-0.058-0.186-0.15-0.22c-0.32-0.05-1.76-0.08-2-0.08c-0.438-0.05-0.875,0.092-1.2,0.39
            c-0.214,0.271-0.395,0.567-0.54,0.88c-0.17,0.35-0.27,0.37-0.34,0.37s-0.2-0.2-0.2-0.37c0.134-0.754,0.221-1.515,0.26-2.28
            c0-0.1,0.14-0.29,0.26-0.29s0.12,0.12,0.27,0.27c0.165,0.16,0.374,0.268,0.6,0.31c0.43,0,2,0.1,3.91,0.1L33.04,71.8z"></path>
        <path d="M37.62,73.48c0-0.79,0-1.05-1-1.22c-0.38-0.08-0.49-0.2-0.49-0.3s0.19-0.22,0.46-0.22c0.44,0,1.3,0,1.86,0
            c0.83,0,1.25,0,1.84,0c0.29,0,0.46,0.07,0.46,0.22s-0.19,0.24-0.46,0.29c-1,0.18-1,0.61-1,1.06c-0.117,1.587-0.154,3.179-0.11,4.77
            c0,1.15,0,2.13,0.06,2.67c0.06,0.93,0.13,1.24,1.19,1.46c0.31,0.07,0.46,0.17,0.46,0.3s-0.27,0.22-0.47,0.22c-0.83,0-2-0.1-2.52-0.1
            s-0.73,0-1.35,0c-0.34,0-0.46-0.12-0.46-0.26s0.16-0.22,0.51-0.29c0.83-0.18,0.9-0.45,1-1.23c0.05-0.61,0.09-2.37,0.09-3.81
            C37.67,76.13,37.65,74.1,37.62,73.48z"></path>
        <path d="M54.41,77.11c0.058,1.898-0.821,3.704-2.35,4.83c-1.008,0.657-2.187,1.004-3.39,1c-1.672,0.011-3.271-0.686-4.4-1.92
            c-0.935-1.054-1.439-2.421-1.41-3.83c-0.033-1.764,0.782-3.437,2.19-4.5c1.015-0.75,2.238-1.166,3.5-1.19
            c3.107-0.127,5.728,2.289,5.855,5.395C54.408,76.967,54.41,77.038,54.41,77.11z M45.93,73.03c-0.959,1.1-1.422,2.547-1.28,4
            c0,2.52,1.79,5.39,4.42,5.39c0.787,0.06,1.563-0.22,2.13-0.77c0.988-1.091,1.499-2.531,1.42-4c0.015-1.747-0.712-3.419-2-4.6
            c-0.706-0.558-1.571-0.876-2.47-0.91C47.329,72.168,46.543,72.483,45.93,73.03z"></path>
        <path d="M56.71,71.78c0.39,0,1.32,0,2.18,0c0.143,0.034,0.272,0.111,0.37,0.22c0.26,0.3,0.68,0.83,1.34,1.67s4.41,4.89,5.49,6.08
            c0.1,0.1,0.17-0.07,0.17-0.12c0.08-0.53,0-2.37,0-4.6c0-0.58,0-1.2-0.08-1.71c0-0.36-0.16-0.76-1.07-1
            c-0.34-0.1-0.47-0.22-0.47-0.37s0.22-0.17,0.45-0.17h1.39c0.64,0,1.22-0.07,1.66-0.07c0.28,0,0.38,0.07,0.38,0.19
            s-0.1,0.27-0.4,0.34c-0.74,0.2-1,0.39-1.07,1.25c0,0.59-0.18,4.14-0.18,6.73c0,0.71,0.12,2,0.12,2.33s-0.12,0.36-0.26,0.36
            s-0.62-0.37-0.79-0.58c-0.29-0.37-0.61-0.79-1.06-1.35c-1.59-1.89-4.46-5.12-6-6.93c-0.07-0.09-0.21,0-0.21,0
            c0,0.46-0.07,0.93-0.07,2.25c0,1.69-0.06,4,0,4.6s0.24,1,1.07,1.24c0.34,0.08,0.42,0.2,0.42,0.3s-0.22,0.24-0.54,0.24
            c-0.49,0-1.13-0.09-1.74-0.09c-0.37,0-0.91,0-1.2,0s-0.44,0-0.44-0.19s0.17-0.25,0.34-0.3c0.79-0.26,1.13-0.33,1.2-1.59
            c0.08-1.48,0.32-5.37,0.32-6.74c0-0.62-0.08-0.79-0.13-0.84c-0.33-0.447-0.836-0.731-1.39-0.78c-0.19-0.05-0.37-0.15-0.37-0.27
            S56.36,71.78,56.71,71.78z"></path>
        <path d="M75.42,71.95c0.15,0.45,0.44,1.23,0.74,2.06c0.89,2.5,2.14,5.8,2.43,6.53c0.56,1.37,0.85,1.51,1.57,1.71
            c0.27,0.07,0.43,0.15,0.43,0.27s-0.14,0.24-0.56,0.24s-1.45-0.09-2.15-0.09c-0.7,0-0.86,0-1.3,0s-0.52-0.12-0.52-0.22
            s0.1-0.22,0.42-0.27c0.78-0.16,0.73-0.5,0.68-0.83c-0.251-0.955-0.562-1.894-0.93-2.81c0-0.07-0.1-0.19-0.53-0.19
            c-1.11,0-2.45,0-2.78,0.07c-0.07,0-0.16,0.1-0.19,0.15c-0.402,0.908-0.691,1.862-0.86,2.84c0,0.22,0.1,0.51,0.84,0.73
            c0.29,0.09,0.46,0.19,0.46,0.32s-0.25,0.22-0.49,0.22c-0.24,0-0.71,0-1.33,0c-0.62,0-1.49,0.09-1.75,0.09c-0.26,0-0.4-0.09-0.4-0.19
            s0.1-0.25,0.39-0.34c0.84-0.27,1.06-0.35,1.54-1.44c0.4-0.86,2.29-5.92,3-7.61c0.058-0.137,0.108-0.277,0.15-0.42
            c0,0,0.06-0.15,0.12-0.27l0.48-0.73c0.11-0.15,0.2-0.22,0.28-0.22S75.3,71.59,75.42,71.95z M75.86,77.48
            c-0.27-0.83-1.12-3.28-1.29-3.59c0-0.1-0.1-0.1-0.15,0c-0.3,0.81-1.17,3.13-1.3,3.64c0,0.06,0,0.11,0.1,0.11c0.66,0,2,0,2.6,0
            C75.84,77.63,75.87,77.55,75.86,77.48z"></path>
        <path d="M82.55,71.8c0.46,0,0.86,0,1.35,0c0.66,0,1.81,0,2.21,0s0.44,0.07,0.44,0.18s-0.13,0.24-0.37,0.29
            c-1,0.22-1.08,0.43-1.11,0.66c-0.11,0.8-0.12,2.51-0.12,5c0,1.28,0,2.86,0.12,3.42c0.089,0.292,0.306,0.528,0.59,0.64
            c0.514,0.07,1.032,0.096,1.55,0.08c0.406,0.024,0.814,0.024,1.22,0c0.238-0.015,0.461-0.123,0.62-0.3
            c0.384-0.351,0.721-0.751,1-1.19c0.18-0.27,0.34-0.35,0.42-0.35s0.14,0.18,0.07,0.46c-0.205,0.61-0.376,1.231-0.51,1.86
            c0,0.16-0.35,0.28-0.42,0.28s-1.72-0.1-5.17-0.1c-1.08,0-1.94,0.09-2.25,0.09s-0.49,0-0.49-0.19s0.14-0.27,0.41-0.32
            c0.93-0.17,1.15-0.49,1.23-1.17c0-0.42,0.09-2.92,0.09-5.36c0-0.88,0-1.95,0-2.5s-0.1-0.73-0.9-0.9c-0.33-0.07-0.47-0.19-0.47-0.3
            S82.19,71.8,82.55,71.8z"></path>
        <path d="M96.48,71.8c0.46,0,0.87,0,1.35,0c0.66,0,1.81,0,2.22,0s0.44,0.07,0.44,0.18s-0.14,0.24-0.37,0.29
            c-1,0.22-1.09,0.43-1.12,0.66c-0.1,0.8-0.12,2.51-0.12,5c0,1.28,0.05,2.86,0.12,3.42c0.098,0.287,0.312,0.519,0.59,0.64
            c0.517,0.07,1.039,0.096,1.56,0.08c0.403,0.024,0.807,0.024,1.21,0c0.241-0.013,0.468-0.121,0.63-0.3c0.384-0.352,0.72-0.752,1-1.19
            c0.19-0.27,0.34-0.35,0.43-0.35s0.13,0.18,0.06,0.46c-0.198,0.611-0.365,1.232-0.5,1.86c0,0.16-0.36,0.28-0.42,0.28
            c-0.21,0-1.73-0.1-5.17-0.1c-1.09,0-1.95,0.09-2.25,0.09s-0.49,0-0.49-0.19s0.13-0.27,0.4-0.32c0.93-0.17,1.15-0.49,1.24-1.17
            c0-0.42,0.08-2.92,0.08-5.36c0-0.88,0-1.95,0-2.5s-0.11-0.73-0.9-0.9c-0.34-0.07-0.47-0.19-0.47-0.3S96.17,71.8,96.48,71.8z"></path>
        <path d="M107.88,73.48c-0.05-0.79-0.05-1.05-1-1.22c-0.39-0.08-0.49-0.2-0.49-0.3s0.18-0.22,0.45-0.22c0.44,0,1.3,0,1.86,0
            c0.83,0,1.25,0,1.84,0c0.29,0,0.46,0.07,0.46,0.22s-0.19,0.24-0.46,0.29c-0.94,0.18-1,0.61-1,1.06s-0.1,1.52-0.1,4.77
            c0,1.15,0,2.13,0,2.67c0.07,0.93,0.13,1.24,1.2,1.46c0.3,0.073,0.45,0.173,0.45,0.3c0,0.14-0.27,0.22-0.47,0.22
            c-0.83,0-2-0.1-2.52-0.1s-0.72,0-1.35,0c-0.34,0-0.45-0.12-0.45-0.26s0.15-0.22,0.5-0.29c0.83-0.18,0.9-0.45,1-1.23
            c0-0.61,0.08-2.37,0.08-3.81C107.93,76.13,107.91,74.1,107.88,73.48z"></path>
        <path d="M119.76,76.55c-0.05,0,0,0.12,0,0.13c1.22,0.393,2.056,1.518,2.08,2.8c0.017,1.022-0.513,1.975-1.39,2.5
            c-0.913,0.522-1.948,0.791-3,0.78c-0.47,0-2.13-0.07-2.91-0.07h-1.11c-0.27,0-0.51-0.09-0.51-0.24s0.26-0.22,0.44-0.25
            c1.15-0.24,1.18-0.46,1.25-1c0-0.35,0.12-2.18,0.12-5.53c0.032-0.885-0.002-1.77-0.1-2.65c-0.09-0.38-0.15-0.54-1-0.66
            c-0.24,0-0.45-0.16-0.45-0.29s0.21-0.22,0.45-0.22h1.13c0.56,0,2.13-0.12,2.82-0.12c0.83-0.038,1.657,0.138,2.4,0.51
            c1.169,0.704,1.545,2.222,0.841,3.39c-0.244,0.404-0.598,0.73-1.021,0.94L119.76,76.55z M118.76,77.45
            c-0.543-0.246-1.135-0.362-1.73-0.34c-0.24-0.003-0.477,0.042-0.7,0.13c0,0-0.11,0.12-0.12,0.56s0,2.74,0.06,3.3
            c0.04,0.208,0.13,0.403,0.26,0.57c0.304,0.311,0.7,0.515,1.13,0.58c1.37-0.004,2.477-1.117,2.473-2.487
            c0-0.041-0.001-0.082-0.003-0.123c-0.004-0.918-0.527-1.754-1.35-2.16L118.76,77.45z M117.17,72.25
            c-0.241,0.022-0.479,0.069-0.71,0.14c-0.085,0.073-0.15,0.166-0.19,0.27c0,0.27-0.08,1-0.08,3.72
            c-0.006,0.112,0.078,0.209,0.19,0.22c0.784,0.018,1.563-0.125,2.29-0.42c0.972-0.71,1.185-2.074,0.475-3.046
            C118.69,72.51,117.938,72.174,117.17,72.25L117.17,72.25z"></path>
        <path d="M130.64,76.87c-0.08,0.07-0.42,0.22-0.56,0.3c-0.07,0.067-0.097,0.167-0.07,0.26c0.754,1.365,1.627,2.66,2.61,3.87
            c0.399,0.521,0.975,0.877,1.62,1c0.15,0,0.28,0.17,0.28,0.24s-0.15,0.17-0.25,0.2c-0.323,0.105-0.661,0.152-1,0.14
            c-0.89-0.015-1.73-0.416-2.3-1.1c-0.57-0.78-1.43-2.1-2.11-3.2c-0.18-0.294-0.395-0.566-0.64-0.81
            c-0.356-0.155-0.742-0.23-1.13-0.22c-0.098,0.016-0.174,0.092-0.19,0.19c0,0.3,0,2.47,0.05,3.4c0,0.72,0.21,0.94,1,1.15
            c0.28,0.06,0.4,0.2,0.4,0.27s-0.32,0.23-0.44,0.23c-0.67,0-1.09-0.1-2.18-0.1c-0.35,0-1.23,0.07-1.41,0.07s-0.46-0.09-0.46-0.25
            s0.15-0.17,0.37-0.26c0.76-0.23,1-0.35,1.08-1s0.1-2.38,0.1-3.5c0-2.44,0-4-0.1-4.58s-0.2-0.66-1-0.85c-0.25,0-0.4-0.15-0.4-0.29
            s0.12-0.2,0.45-0.2h1c0.62,0,1.85-0.08,2.77-0.08c0.988-0.09,1.977,0.165,2.8,0.72c0.593,0.53,0.938,1.284,0.95,2.08
            C131.878,75.481,131.413,76.351,130.64,76.87z M129.64,72.87c-0.449-0.396-1.022-0.623-1.62-0.64
            c-0.264,0.004-0.527,0.044-0.78,0.12c-0.08,0-0.18,0.3-0.2,0.35c0,0.61-0.1,3.79,0,4.13c0.035,0.119,0.13,0.21,0.25,0.24
            c0.71,0.01,1.413-0.137,2.06-0.43c0.682-0.464,1.09-1.235,1.09-2.06c-0.078-0.639-0.379-1.231-0.85-1.67L129.64,72.87z"></path>
        <path d="M141.17,71.95c0.15,0.45,0.44,1.23,0.74,2.06c0.9,2.5,2.15,5.8,2.43,6.53c0.56,1.37,0.85,1.51,1.57,1.71
            c0.27,0.07,0.43,0.15,0.43,0.27s-0.14,0.24-0.56,0.24s-1.45-0.09-2.15-0.09s-0.86,0-1.3,0s-0.52-0.12-0.52-0.22s0.1-0.22,0.42-0.27
            c0.78-0.16,0.73-0.5,0.68-0.83c-0.251-0.955-0.562-1.894-0.93-2.81c0-0.07-0.1-0.19-0.53-0.19c-1.11,0-2.45,0-2.78,0.07
            c-0.07,0-0.16,0.1-0.19,0.15c-0.402,0.908-0.691,1.862-0.86,2.84c0,0.22,0.1,0.51,0.84,0.73c0.29,0.09,0.46,0.19,0.46,0.32
            s-0.25,0.22-0.49,0.22s-0.71,0-1.33,0s-1.49,0.09-1.74,0.09s-0.41-0.09-0.41-0.19s0.1-0.25,0.39-0.34c0.84-0.27,1.06-0.35,1.54-1.44
            c0.4-0.86,2.29-5.92,3-7.61c0.09-0.22,0.12-0.32,0.16-0.42c0.027-0.094,0.064-0.184,0.11-0.27l0.48-0.73
            c0.11-0.15,0.2-0.22,0.28-0.22S141.05,71.59,141.17,71.95z M141.61,77.48c-0.27-0.83-1.12-3.28-1.29-3.59c-0.05-0.1-0.1-0.1-0.15,0
            c-0.3,0.81-1.17,3.13-1.3,3.64c0,0.06,0,0.11,0.1,0.11c0.66,0,2,0,2.6,0C141.59,77.63,141.62,77.55,141.61,77.48z"></path>
        <path d="M154.38,76.87c-0.08,0.07-0.42,0.22-0.56,0.3c-0.066,0.069-0.089,0.169-0.06,0.26c0.746,1.367,1.616,2.663,2.6,3.87
            c0.401,0.519,0.976,0.874,1.62,1c0.15,0,0.29,0.17,0.29,0.24s-0.16,0.17-0.26,0.2c-0.323,0.105-0.661,0.152-1,0.14
            c-0.889-0.009-1.727-0.412-2.29-1.1c-0.58-0.78-1.44-2.1-2.12-3.2c-0.18-0.294-0.395-0.566-0.64-0.81
            c-0.356-0.155-0.742-0.23-1.13-0.22c-0.098,0.016-0.174,0.092-0.19,0.19c0,0.3,0,2.47,0,3.4c0.06,0.72,0.21,0.94,1,1.15
            c0.29,0.06,0.4,0.2,0.4,0.27s-0.32,0.23-0.44,0.23c-0.67,0-1.09-0.1-2.17-0.1c-0.36,0-1.24,0.07-1.42,0.07s-0.46-0.09-0.46-0.25
            s0.15-0.17,0.37-0.26c0.76-0.23,1-0.35,1.08-1s0.1-2.38,0.1-3.5c0-2.44,0-4-0.1-4.58s-0.2-0.66-1-0.85c-0.25,0-0.4-0.15-0.4-0.29
            s0.12-0.2,0.45-0.2h1c0.62,0,1.86-0.08,2.77-0.08c0.988-0.09,1.977,0.165,2.8,0.72c0.593,0.53,0.938,1.284,0.95,2.08
            C155.58,75.472,155.134,76.34,154.38,76.87z M153.33,72.87c-0.448-0.398-1.021-0.624-1.62-0.64c-0.264,0.004-0.527,0.044-0.78,0.12
            c-0.08,0-0.18,0.3-0.2,0.35c-0.05,0.61-0.1,3.79-0.05,4.13c0.035,0.119,0.13,0.21,0.25,0.24c0.713,0.01,1.42-0.137,2.07-0.43
            c0.676-0.468,1.079-1.238,1.08-2.06c-0.051-0.626-0.316-1.216-0.75-1.67L153.33,72.87z"></path>
        <path d="M158.17,71.75c0.29,0,1.2,0.08,2,0.08c0.48,0,0.7,0,1.37,0c0.27,0,0.38,0.08,0.38,0.18s-0.12,0.27-0.38,0.32
            c-0.59,0.14-0.5,0.36-0.28,0.8s1.42,2.4,2.16,3.63c0,0.06,0.15,0,0.18,0c0.43-0.62,1.69-2.69,2.12-3.42s0.2-0.81-0.49-1
            c-0.26-0.06-0.39-0.22-0.39-0.34s0.22-0.15,0.39-0.15h1.11c0.59,0,1.64-0.07,1.91-0.07s0.35,0.07,0.35,0.17s-0.16,0.24-0.43,0.32
            c-0.745,0.203-1.393,0.664-1.83,1.3c-0.78,1-1.69,2.49-2.25,3.32c-0.187,0.306-0.312,0.646-0.37,1c0,1,0,3,0.1,3.55
            c0.07,0.37,0.24,0.58,1.19,0.81c0.32,0.09,0.44,0.19,0.44,0.31s-0.17,0.2-0.51,0.2s-1.17-0.07-1.56-0.07c-1,0-2.14,0.1-2.38,0.1
            s-0.42-0.06-0.42-0.18s0.12-0.26,0.47-0.32c0.92-0.21,1.08-0.56,1.1-0.8c0.05-0.71,0-2.55,0-3.45c-0.02-0.227-0.074-0.449-0.16-0.66
            c-0.28-0.61-1.31-2.3-2.09-3.52s-1-1.42-1.73-1.59c-0.32-0.07-0.47-0.2-0.47-0.32S157.88,71.75,158.17,71.75z"></path>
        <path d="M41.88,99.67c0.043,1.889-0.833,3.682-2.35,4.81c-1.013,0.654-2.194,1.002-3.4,1c-1.668,0.015-3.264-0.679-4.39-1.91
            c-0.94-1.055-1.447-2.427-1.42-3.84c-0.027-1.765,0.79-3.437,2.2-4.5c1.011-0.75,2.232-1.162,3.49-1.18
            c3.107-0.133,5.732,2.278,5.865,5.385C41.878,99.513,41.88,99.592,41.88,99.67z M33.4,95.59c-0.96,1.1-1.426,2.546-1.29,4
            c0,2.52,1.79,5.4,4.43,5.4c0.789,0.059,1.565-0.226,2.13-0.78c0.991-1.088,1.503-2.53,1.42-4c0.017-1.748-0.71-3.421-2-4.6
            c-0.7-0.562-1.563-0.885-2.46-0.92C34.804,94.718,34.014,95.037,33.4,95.59z"></path>
        <path d="M48.62,94.39c1.22,0,2.59,0,2.72,0c0.109,0.003,0.201,0.082,0.22,0.19c0,0.49,0,1.11,0,1.69c0,0.22-0.08,0.46-0.22,0.46
            s-0.27-0.17-0.38-0.53c-0.26-0.79-0.46-1-1-1.1c-0.853-0.043-1.707-0.043-2.56,0c-0.125,0.016-0.229,0.101-0.27,0.22
            c-0.05,0.44-0.08,2.61-0.08,3.72c0,0.43,0.08,0.63,0.17,0.63c0.64,0,1.94,0,2.35,0s0.67-0.21,0.89-0.78
            c0.1-0.24,0.19-0.41,0.34-0.41s0.17,0.17,0.17,0.37s-0.1,0.78-0.1,1.09c0,0.74,0,1,0,1.32c0,0.21-0.08,0.42-0.25,0.42
            s-0.19-0.12-0.26-0.39c-0.16-0.63-0.38-0.71-0.69-0.8c-0.375-0.047-0.752-0.073-1.13-0.08c-0.466-0.024-0.934-0.024-1.4,0
            c0,0-0.12,0.14-0.12,0.2c0,0.48,0.05,2.71,0.07,3.17s0.06,0.84,1.09,1.06c0.28,0.05,0.44,0.17,0.44,0.31s-0.16,0.22-0.5,0.22
            s-1-0.05-1.62-0.05s-1.69,0.1-2.1,0.1s-0.46-0.09-0.46-0.19s0.17-0.27,0.44-0.34c0.88-0.22,0.95-0.59,1-0.83
            c0-0.52,0.12-1.72,0.12-5.07c0-1.59,0-2.57,0-3s-0.31-0.86-1-1c-0.34-0.09-0.44-0.17-0.44-0.3s0.22-0.21,0.47-0.21
            c0.74,0,1.39,0,1.94,0L48.62,94.39z"></path>
        <path d="M61.99,94.39c1.21,0,2.58,0,2.72,0c0.109,0.003,0.201,0.082,0.22,0.19c-0.029,0.563-0.029,1.127,0,1.69
            c0,0.22-0.08,0.46-0.22,0.46s-0.27-0.17-0.39-0.53c-0.25-0.79-0.45-1-1-1.1c-0.849-0.043-1.701-0.043-2.55,0
            c-0.126,0.014-0.231,0.1-0.27,0.22c0,0.44-0.08,2.61-0.08,3.72c0,0.43,0.08,0.63,0.16,0.63c0.65,0,2,0,2.35,0s0.68-0.21,0.9-0.78
            c0.1-0.24,0.18-0.41,0.34-0.41c0.16,0,0.17,0.17,0.17,0.37s-0.11,0.78-0.11,1.09c0,0.74,0,1,0,1.32c0,0.21-0.09,0.42-0.26,0.42
            c-0.17,0-0.18-0.12-0.25-0.39c-0.17-0.63-0.39-0.71-0.69-0.8c-0.375-0.046-0.752-0.073-1.13-0.08c-0.47-0.024-0.94-0.024-1.41,0
            c0,0-0.11,0.14-0.11,0.2c0,0.48,0,2.71,0.06,3.17s0.07,0.84,1.1,1.06c0.27,0.05,0.44,0.17,0.44,0.31s-0.17,0.22-0.51,0.22
            s-1-0.05-1.62-0.05s-1.69,0.1-2.09,0.1s-0.46-0.09-0.46-0.19s0.17-0.27,0.44-0.34c0.88-0.22,1-0.59,1-0.83
            c0-0.52,0.12-1.72,0.12-5.07c0-1.59,0-2.57,0-3s-0.31-0.86-1-1c-0.33-0.09-0.43-0.17-0.43-0.3s0.22-0.21,0.47-0.21
            c0.74,0,1.38,0,1.94,0L61.99,94.39z"></path>
        <path d="M68.75,96.08c0-0.79,0-1-1-1.21c-0.38-0.09-0.49-0.21-0.49-0.31s0.19-0.22,0.46-0.22c0.44,0,1.3,0,1.86,0
            c0.83,0,1.25,0,1.84,0c0.29,0,0.46,0.07,0.46,0.22s-0.19,0.24-0.46,0.29c-1,0.19-1,0.61-1,1.07c-0.117,1.587-0.154,3.179-0.11,4.77
            c0,1.15,0,2.13,0.05,2.67c0.07,0.93,0.14,1.23,1.2,1.45c0.31,0.07,0.46,0.17,0.46,0.31s-0.27,0.22-0.47,0.22c-0.83,0-2-0.1-2.52-0.1
            c-0.52,0-0.73,0-1.35,0c-0.34,0-0.46-0.12-0.46-0.25s0.16-0.22,0.51-0.29c0.83-0.19,0.9-0.46,1-1.24c0-0.61,0.09-2.36,0.09-3.8
            C68.8,98.69,68.78,96.66,68.75,96.08z"></path>
        <path d="M73.95,94.34c0.39,0,1.32,0,2.18,0c0.143,0.034,0.272,0.111,0.37,0.22c0.26,0.31,0.68,0.83,1.34,1.68
            c0.66,0.85,4.41,4.89,5.49,6.07c0.1,0.1,0.17-0.07,0.17-0.12c0.08-0.52,0-2.37,0-4.6c0-0.57,0-1.2-0.08-1.71
            c0-0.35-0.16-0.76-1.07-1c-0.34-0.1-0.47-0.22-0.47-0.37s0.22-0.17,0.45-0.17h1.39c0.64,0,1.22-0.06,1.66-0.06
            c0.28,0,0.38,0.06,0.38,0.18s-0.1,0.27-0.4,0.34c-0.74,0.2-1,0.39-1.07,1.25c0,0.59-0.18,4.15-0.18,6.73c0,0.71,0.12,2,0.12,2.34
            s-0.12,0.35-0.26,0.35s-0.62-0.37-0.79-0.57c-0.29-0.37-0.61-0.8-1.07-1.36c-1.58-1.89-4.46-5.12-6-6.93c-0.06-0.08-0.2,0-0.2,0
            c0,0.46-0.07,0.93-0.07,2.25c0,1.69-0.06,4,0,4.6s0.24,1,1.07,1.24c0.34,0.08,0.42,0.2,0.42,0.3s-0.22,0.24-0.54,0.24
            c-0.49,0-1.13-0.08-1.74-0.08h-1.2c-0.24,0-0.44,0-0.44-0.19s0.17-0.25,0.34-0.3c0.79-0.25,1.13-0.32,1.2-1.59
            c0.08-1.47,0.32-5.36,0.32-6.73c0-0.63-0.08-0.8-0.13-0.85c-0.33-0.447-0.836-0.731-1.39-0.78c-0.19,0-0.37-0.15-0.37-0.27
            S73.6,94.34,73.95,94.34z"></path>
        <path d="M88.1,94.36c0.45,0,0.86,0,1.35,0c0.66,0,1.8,0,2.21,0s0.44,0.07,0.44,0.19s-0.14,0.23-0.37,0.29
            c-1,0.22-1.08,0.42-1.12,0.66c-0.1,0.79-0.12,2.5-0.12,5c0,1.29,0.06,2.86,0.12,3.42c0.098,0.287,0.312,0.519,0.59,0.64
            c0.516,0.078,1.038,0.109,1.56,0.09c0.45,0,0.94,0,1.21-0.05c0.241-0.024,0.464-0.134,0.63-0.31c0.382-0.349,0.718-0.746,1-1.18
            c0.18-0.27,0.33-0.36,0.42-0.36s0.13,0.19,0.07,0.46c-0.204,0.61-0.374,1.231-0.51,1.86c0,0.17-0.36,0.29-0.42,0.29
            c-0.21,0-1.73-0.1-5.17-0.1c-1.08,0-1.94,0.08-2.25,0.08s-0.49,0-0.49-0.19s0.14-0.27,0.41-0.32c0.93-0.17,1.15-0.49,1.23-1.16
            c0.05-0.43,0.08-2.93,0.08-5.37c0-0.88,0-1.94,0-2.5s-0.1-0.73-0.9-0.9c-0.34-0.06-0.47-0.18-0.47-0.3S87.74,94.36,88.1,94.36z"></path>
        <path d="M103.54,94.48c0.15,0.46,0.44,1.24,0.74,2.07c0.9,2.5,2.15,5.8,2.44,6.52c0.55,1.37,0.84,1.51,1.57,1.71
            c0.27,0.07,0.42,0.15,0.42,0.27s-0.14,0.24-0.56,0.24s-1.45-0.08-2.14-0.08s-0.87,0-1.31,0s-0.52-0.12-0.52-0.22s0.1-0.22,0.42-0.27
            c0.78-0.15,0.73-0.49,0.68-0.83c-0.253-0.955-0.563-1.893-0.93-2.81c0-0.07-0.1-0.18-0.52-0.18c-1.12,0-2.45,0-2.79,0.06
            c-0.07,0-0.15,0.11-0.19,0.16c-0.403,0.907-0.692,1.861-0.86,2.84c0,0.22,0.1,0.51,0.85,0.72c0.28,0.09,0.45,0.19,0.45,0.33
            s-0.25,0.22-0.49,0.22s-0.71-0.05-1.33-0.05s-1.49,0.08-1.74,0.08s-0.41-0.08-0.41-0.19s0.1-0.25,0.39-0.33
            c0.85-0.27,1.07-0.36,1.54-1.44c0.4-0.86,2.3-5.92,3-7.61l0.15-0.43c0.027-0.095,0.067-0.186,0.12-0.27
            c0.11-0.18,0.35-0.54,0.47-0.72s0.2-0.22,0.29-0.22S103.42,94.16,103.54,94.48z M103.98,100.01c-0.27-0.83-1.12-3.28-1.29-3.58
            c-0.05-0.1-0.1-0.1-0.15,0c-0.3,0.82-1.16,3.13-1.3,3.64c-0.011,0.054,0.024,0.107,0.078,0.118c0.007,0.001,0.015,0.002,0.022,0.002
            c0.66,0,2,0,2.6,0c0.02,0,0.06-0.08,0.04-0.15V100.01z"></path>
        <path d="M110.21,94.34c0.39,0,1.32,0,2.18,0c0.146,0.034,0.278,0.11,0.38,0.22c0.25,0.31,0.67,0.83,1.33,1.68s4.41,4.89,5.49,6.07
            c0.1,0.1,0.17-0.07,0.17-0.12c0.08-0.52,0-2.37,0-4.6c0-0.57-0.05-1.2-0.08-1.71c0-0.35-0.15-0.76-1.07-1
            c-0.33-0.1-0.47-0.22-0.47-0.37s0.22-0.17,0.46-0.17h1.38c0.64,0,1.22-0.06,1.66-0.06c0.29,0,0.39,0.06,0.39,0.18
            s-0.1,0.27-0.41,0.34c-0.74,0.2-1,0.39-1.06,1.25c-0.05,0.59-0.19,4.15-0.19,6.73c0,0.71,0.12,2,0.12,2.34s-0.12,0.35-0.25,0.35
            s-0.63-0.37-0.8-0.57c-0.29-0.37-0.61-0.8-1.06-1.36c-1.59-1.89-4.46-5.12-6-6.93c-0.07-0.08-0.2,0-0.2,0
            c0,0.46-0.07,0.93-0.07,2.25c0,1.69-0.07,4,0,4.6s0.23,1,1.06,1.24c0.34,0.08,0.42,0.2,0.42,0.3s-0.22,0.24-0.54,0.24
            c-0.49,0-1.13-0.08-1.74-0.08h-1.2c-0.23,0-0.44,0-0.44-0.19s0.17-0.25,0.34-0.3c0.8-0.25,1.13-0.32,1.2-1.59
            c0.09-1.47,0.32-5.36,0.32-6.73c0-0.63-0.08-0.8-0.13-0.85c-0.327-0.451-0.835-0.736-1.39-0.78c-0.18,0-0.37-0.15-0.37-0.27
            S109.86,94.34,110.21,94.34z"></path>
        <path d="M133.48,95.88c0.966,1.001,1.52,2.329,1.55,3.72c0.007,1.977-1.006,3.818-2.68,4.87c-1.232,0.646-2.609,0.966-4,0.93
            c-0.69,0-2.23,0-3.33-0.11c-0.35,0-0.67,0-0.94,0s-0.54-0.12-0.54-0.25s0.17-0.24,0.39-0.26c1.13-0.13,1.21-0.44,1.26-1.82
            c0-0.82,0.05-1.38,0.05-2.31s0-2.92-0.08-4.26c0-1.08-0.05-1.33-1.06-1.49c-0.19,0-0.39-0.13-0.39-0.25s0.17-0.24,0.42-0.24h0.56
            c0.84,0,2.75-0.13,4.15-0.13C130.529,94.236,132.177,94.804,133.48,95.88z M126.99,94.88c-0.084,0.048-0.145,0.127-0.17,0.22
            c0,0.26-0.07,1.66-0.07,3.17v2.45c0,1.17,0,2.17,0.07,2.91c0.029,0.295,0.16,0.571,0.37,0.78c0.405,0.251,0.865,0.402,1.34,0.44
            c1.091-0.032,2.143-0.414,3-1.09c1.154-1.08,1.778-2.611,1.71-4.19c-0.013-1.455-0.637-2.838-1.72-3.81
            c-1.021-0.678-2.225-1.027-3.45-1c-0.361-0.02-0.723,0.038-1.06,0.17L126.99,94.88z"></path>
        <rect y="116.7" width="168.06" height="5.19"></rect>
        <path d="M109.71,10.03l-4-0.07c1.127,0.582,2.033,1.516,2.58,2.66c2.1,3.39,0.91,8.76-3.23,10
            C113.42,25.95,116.8,13.64,109.71,10.03z"></path>
        <path d="M63.2,22.66c-4.13-1.26-5.32-6.63-3.22-10c0.547-1.166,1.49-2.101,2.66-2.64h-4C51.54,13.58,54.81,25.97,63.2,22.66z"></path>
        <path d="M0,0v3.21l48.24,0.68c0.15,0.65,0.426,1.265,0.81,1.81c0.86,1.11,1.43,1.15,1.43,1.15h25.91
            c0.066,0.419,0.16,0.833,0.28,1.24h-22l0,0c0.439,1.217,1.64,1.988,2.93,1.88h4.94c1.689-0.867,3.691-0.867,5.38,0l0,0
            c0.156,0.079,0.307,0.169,0.45,0.27c0.677,0.43,1.267,0.983,1.74,1.63l0.07,0.09c3.12,3.55,4.36,8.31,5.28,12.91
            c0.42-4.1,0.25-7.92,3-10.58c1.48-1.45,3.34-0.06,3.59,1.93c0.33,1.4,0.29,5.42-1.62,5.4c-1.21-0.79-1.58-3-1.18-4.31
            c0.4-1.31,1.48-1.31,1.52,0.21c0.1,1.74-0.52,1.78-1,0.26c-0.32,0.94,0.41,3.26,1.29,2.06c1.25-2.5-0.7-7.15-2.86-3.25
            c-2.86,5.87-1.79,13.18-2,19.71c-1.72-6.22-2.02-12.74-5.06-18.82c0.005,0.067,0.005,0.133,0,0.2c0-0.08,0-0.16,0-0.24
            c-0.749-1.46-1.64-2.844-2.66-4.13c-1.606-1.904-4.451-2.145-6.355-0.539c-0.237,0.2-0.453,0.424-0.645,0.669
            c-1.71,2.57-0.88,7.74,2.84,7.66c3.21-0.24,4.21-7,0.22-6.79c-1.6,0.17-2.13,3.44-0.13,4c-0.75-0.2-0.93-2.4,0.13-2.58
            c2.1-0.35,1.57,4.2-0.09,4c-3.55-0.36-2.8-6.12,0-6.65c5.32-0.65,5.32,9.82-0.06,9.6c3.1,0.11,5.73,1.55,6.47,4.71
            c-2.71-3.9-9.62-5.41-12-0.46c-0.49,0.69-0.92,3.7,0.74,1.84c5.57-5.62,11.5,1.3,12.59,7.27c-0.91-1.28-1.64-2.69-2.59-3.93
            c-5.41-7.3-11.9,1.51-8.71,3.56c1.17-0.24,1.21-1.6,3-2c3.35-0.7,5.79,2.64,6.82,5.65c-1.17-0.75-2-1.45-3.61-1.3
            c-1.681,0.284-3.148,1.304-4,2.78c-0.32,0.66-0.69,2,0.3,2.08c1.58-0.07,2.38-1.74,3.91-2c2.297-0.666,4.698,0.657,5.364,2.954
            c0.025,0.085,0.047,0.17,0.066,0.256c0.54,2.4,0.4,5.24,1.62,7.37c-4.85-1.52-0.48-12.25-7.82-9.61c-0.67,0.24,1,1.26,1.33,2.34
            c0.247,0.92,0.431,1.855,0.55,2.8c0.22,2,0.58,3.33,2.11,4.54c0.18,0.13,0.11,0.26,0.11,0.26h-1.51
            c-1.045,0.016-1.881,0.874-1.87,1.92v0.77c-0.055,1.048,0.749,1.942,1.797,1.997c0.038,0.002,0.075,0.003,0.113,0.003h29.71
            c1.049-0.015,1.888-0.878,1.872-1.927c0-0.024-0.001-0.049-0.002-0.073v-0.82c0.011-1.046-0.825-1.904-1.87-1.92h-1.51
            c0,0-0.06-0.13,0.11-0.26c1.53-1.21,1.9-2.58,2.11-4.54c0.119-0.945,0.303-1.88,0.55-2.8c0.32-1.08,2-2.1,1.33-2.34
            c-7.33-2.64-3,8.09-7.81,9.61c1.22-2.13,1.08-5,1.61-7.37c0.523-2.334,2.838-3.802,5.172-3.279c0.09,0.02,0.18,0.043,0.268,0.069
            c1.52,0.3,2.32,2,3.9,2c1-0.11,0.63-1.42,0.3-2.08c-0.85-1.478-2.318-2.498-4-2.78c-1.63-0.15-2.44,0.55-3.61,1.3
            c1-3,3.47-6.35,6.81-5.65c1.83,0.39,1.88,1.75,3,2c3.2-2-3.3-10.86-8.7-3.56c-1,1.24-1.69,2.65-2.6,3.93c1.09-6,7-12.89,12.6-7.27
            c1.66,1.86,1.23-1.15,0.74-1.84c-2.4-5-9.31-3.44-12,0.46c0.74-3.16,3.37-4.6,6.48-4.71c-5.38,0.22-5.38-10.25-0.07-9.6
            c2.8,0.53,3.56,6.29,0,6.65c-1.66,0.17-2.18-4.38-0.08-4c1,0.18,0.87,2.38,0.13,2.58c2-0.55,1.46-3.82-0.13-4
            c-4-0.19-3,6.55,0.21,6.79c3.72,0.08,4.56-5.09,2.85-7.66c-1.534-1.962-4.369-2.309-6.331-0.775
            c-0.245,0.191-0.469,0.407-0.669,0.645c-5.6,7.18-5.6,15.3-7.74,23c-0.17-6.53,0.9-13.84-2-19.71c-2.17-3.9-4.12,0.75-2.87,3.25
            c0.89,1.2,1.62-1.12,1.3-2.06c-0.45,1.52-1.08,1.48-1-0.26c0-1.52,1.16-1.42,1.53-0.21s0,3.52-1.19,4.31c-1.9,0-1.94-4-1.61-5.4
            c0.25-2,2.1-3.38,3.59-1.93c2.7,2.66,2.53,6.48,2.95,10.58c0.92-4.6,2.16-9.36,5.27-12.91c0.361-0.418,0.76-0.803,1.19-1.15
            c1.088-0.954,2.483-1.483,3.93-1.49c1.053-0.01,2.089,0.263,3,0.79h4.6c1.291-0.005,2.449-0.798,2.92-2l0,0H91.38
            c0.125-0.406,0.219-0.82,0.28-1.24h25.91c0,0,0.58,0,1.44-1.15c0.384-0.545,0.66-1.16,0.81-1.81l48.24-0.68V0H0z M89,3.82
            c-0.118,0.593-0.571,1.062-1.16,1.2l-1.59,0.34l0,0l0.87-1.4c0.212-0.32,0.526-0.559,0.89-0.68c0.54-0.17,0.99,0.07,0.97,0.54H89z
             M85.24,4.34c0.11-0.54,0.21-1.08,0.32-1.62c0.082-0.391,0.293-0.743,0.6-1c0.46-0.36,1-0.3,1.11,0.14
            c0.129,0.631-0.146,1.276-0.69,1.62c-0.45,0.31-0.9,0.6-1.36,0.9L85.24,4.34z M85.59,6.75c-0.012,0.776-0.56,1.441-1.32,1.6
            c-2,0.37-2.55-2.61-0.7-2.76c0,0.5-0.66,1-0.25,1.54c0.254,0.348,0.742,0.424,1.09,0.17c0.291-0.213,0.399-0.597,0.26-0.93
            c-0.16-0.63-1.13-1.07-0.63-1.87c0.908,0.385,1.506,1.265,1.53,2.25H85.59z M84.05,13.6c0.507-0.002,1.013-0.056,1.51-0.16
            c-0.697,1.174-1.207,2.449-1.51,3.78l0,0c-0.326-1.321-0.856-2.582-1.57-3.74c0.511,0.093,1.031,0.133,1.55,0.12H84.05z
             M83.42,10.72c0.2-0.52,0.42-1,0.63-1.53l0,0l0.63,1.53c0.125,0.366,0.125,0.764,0,1.13c-0.18,0.57-0.63,0.81-1,0.52
            c-0.41-0.447-0.52-1.093-0.28-1.65L83.42,10.72z M83.42,2.28c0.2-0.52,0.42-1,0.63-1.53l0,0l0.63,1.53
            c0.125,0.366,0.125,0.764,0,1.13c-0.18,0.56-0.63,0.8-1,0.52c-0.41-0.447-0.52-1.093-0.28-1.65H83.42z M80.83,1.93
            c0.14-0.44,0.65-0.51,1.11-0.14c0.298,0.242,0.505,0.576,0.59,0.95c0.11,0.54,0.22,1.09,0.32,1.63l0,0c-0.45-0.3-0.91-0.59-1.36-0.9
            c-0.514-0.331-0.781-0.937-0.68-1.54H80.83z M80.09,3.31c0.36,0.118,0.67,0.354,0.88,0.67c0.3,0.47,0.58,0.94,0.87,1.4l0,0
            c-0.53-0.11-1.06-0.21-1.59-0.34c-0.589-0.134-1.041-0.606-1.15-1.2c-0.04-0.46,0.38-0.7,0.97-0.53H80.09z M72.2,11.09l-0.61-1.08
            h6.08c0.199,0.415,0.462,0.797,0.78,1.13L72.2,11.09z M78.48,6.92c-0.28-0.37,0-0.83,0.51-1c0.359-0.13,0.751-0.13,1.11,0l1.5,0.65
            l0,0l-1.5,0.64C79.551,7.45,78.912,7.336,78.48,6.92z M79.13,9.38c0.114-0.591,0.564-1.061,1.15-1.2l1.59-0.34l0,0
            C81.58,8.31,81.3,8.78,81,9.24c-0.206,0.321-0.517,0.561-0.88,0.68c-0.64,0.17-1.06-0.07-1.04-0.54L79.13,9.38z M81.92,11.48
            c-0.46,0.36-1,0.3-1.11-0.14c-0.108-0.599,0.151-1.205,0.66-1.54c0.45-0.31,0.91-0.6,1.36-0.9l0,0c-0.1,0.54-0.21,1.08-0.32,1.63
            C82.425,10.904,82.218,11.238,81.92,11.48z M74.02,40.48c-0.71,0-0.43,1.22-1.45,0.22c-0.82-0.52-0.25-1.55,0.24-2
            c1.75-2.15,6.19-2.55,8-0.67c2.61,3.13,1.42,8.44,2.63,12.27c0.13,0.3,0.35,0.44,0.41,0.81c-2.37-0.89-2.91-3.63-3.06-6.63
            c0.028-1.207-0.073-2.414-0.3-3.6c-0.28-1.55-1-1.25-1.93-0.45c-0.93,0.64-3,1.43-4.12,0.69C74.31,41.01,74.26,40.54,74.02,40.48z
             M78.24,34.02c0.25-2.32,0.66-4.69,2.44-6.22c1.63-1,2.17-0.6,3.35-0.42c1.18-0.18,1.71-0.61,3.35,0.42
            c1.78,1.53,2.18,3.9,2.44,6.22c0.051,0.331,0.075,0.665,0.07,1h-0.33c-0.034-0.135-0.061-0.272-0.08-0.41
            c-0.167-1.03-0.67-1.976-1.43-2.69c-1-1-2.29,0.59-3.33-0.35c-0.192-0.268-0.425-0.504-0.69-0.7c-0.269,0.195-0.505,0.431-0.7,0.7
            c-1,0.94-2.29-0.61-3.33,0.35c-0.757,0.715-1.256,1.661-1.42,2.69c0,0.07,0,0.26-0.08,0.41h-0.33c-0.013-0.328,0.01-0.657,0.07-0.98
            V34.02z M77.14,45.6c0.122,1.07,0.384,2.119,0.78,3.12c0.386,0.862,0.848,1.689,1.38,2.47c-1,0.14-1.57-0.8-2-1.43
            c-1.156-1.421-1.835-3.171-1.94-5c-0.069-0.367-0.069-0.743,0-1.11c0.16-0.42,1.5-0.44,1.79-0.1c0.29,0.34-0.07,1.57-0.01,2.07V45.6
            z M94.84,52.4c0.526-0.031,1.054-0.031,1.58,0l0,0c0.487,0.144,0.765,0.656,0.62,1.144c-0.039,0.132-0.108,0.254-0.2,0.356
            c-0.23,0.21-0.85,0.19-1.38,0.19h-23c-0.52,0-1.15,0-1.38-0.19c-0.34-0.378-0.31-0.959,0.068-1.299
            c0.104-0.094,0.228-0.162,0.362-0.201l0,0c0.523-0.031,1.047-0.031,1.57,0h21.63H94.84z M90.98,43.59c0.28-0.34,1.63-0.32,1.78,0.1
            c0.069,0.367,0.069,0.743,0,1.11c-0.106,1.827-0.781,3.575-1.93,5c-0.49,0.63-1,1.57-2.06,1.43c0.54-0.776,1.002-1.603,1.38-2.47
            c0.404-0.999,0.669-2.049,0.79-3.12c0.03-0.52-0.21-1.74,0.04-2.03V43.59z M95.25,38.68c0.48,0.47,1.06,1.5,0.23,2
            c-1,1-0.74-0.17-1.44-0.22c-0.25,0-0.29,0.51-0.43,0.63c-1.15,0.74-3.19-0.05-4.12-0.69c-0.94-0.8-1.64-1.1-1.93,0.45
            c-0.219,1.187-0.316,2.393-0.29,3.6c-0.16,3-0.69,5.73-3.06,6.62c0-0.37,0.28-0.51,0.4-0.81c1.22-3.83,0-9.14,2.63-12.27
            c1.81-1.84,6.24-1.44,8.01,0.71V38.68z M86.48,22.55c2.66,0.65,3.59,3.25,3.63,6c-0.119,0.025-0.241,0.025-0.36,0
            c-0.22-1.57-0.66-3.45-2.55-3.57c-1.12,0-2.33,0.5-3.15-0.46c-0.83,1-2,0.46-3.16,0.46c-1.89,0.12-2.32,2-2.55,3.57
            c-0.115,0.025-0.235,0.025-0.35,0c0-2.72,1-5.32,3.62-6c0.816-0.129,1.651-0.067,2.44,0.18C84.835,22.483,85.667,22.422,86.48,22.55
            z M87.27,11.27c-0.15,0.44-0.65,0.5-1.11,0.14c-0.307-0.257-0.518-0.609-0.6-1c-0.11-0.54-0.21-1.08-0.32-1.62l0,0
            c0.46,0.3,0.91,0.59,1.36,0.9c0.516,0.347,0.772,0.97,0.65,1.58H87.27z M88.01,9.89c-0.362-0.12-0.674-0.356-0.89-0.67l-0.87-1.4
            l0,0l1.59,0.34c0.59,0.135,1.045,0.606,1.16,1.2c0,0.46-0.45,0.7-1.01,0.53H88.01z M88.01,7.21l-1.53-0.65l0,0l1.49-0.64
            c0.359-0.125,0.751-0.125,1.11,0c0.56,0.19,0.79,0.65,0.51,1C89.163,7.321,88.541,7.434,88,7.21H88.01z M96.48,10.15l-0.6,0.94
            h-6.26c0.288-0.31,0.549-0.645,0.78-1L96.48,10.15z"></path>
        <polygon points="98.38,58.69 98.06,57.47 69.99,57.47 69.67,58.69 0,58.69 0,59.89 168.06,59.89 168.06,58.69 "></polygon>
        <path d="M17.48,28.42c0-2.85-0.16-3.18-2.26-3.68c-0.56-0.14-0.82-0.47-0.82-0.78s0.58-0.48,1.08-0.48s1.84,0.1,3.28,0.1
            c2,0,2.86-0.13,3.81-0.13c0.39,0,0.79,0.27,0.79,0.6s-0.43,0.54-0.69,0.6c-1.91,0.51-2,0.88-2.1,2.59
            c-0.09,1.35-0.09,5.01-0.09,7.24c0,3.66,0,5.54,0,6c0.07,1.58,0.5,1.88,2.47,2.38c0.62,0.17,0.85,0.41,0.85,0.67
            c0,0.44-0.69,0.64-1.08,0.64s-2.69-0.13-3.81-0.13s-3.09,0.2-3.68,0.2c-0.43,0-0.88-0.24-0.88-0.51s0.39-0.6,0.82-0.77
            c1.7-0.6,2-0.9,2.06-1.57s0.23-5.63,0.23-8.38L17.48,28.42z"></path>
        <path d="M47.6,35.48c-0.46-4.35-2.73-7.61-7.34-8.08c-2.22-0.37-5.65,0.25-6.41,2.57c3.55-2.78,8.16-1.22,9.35,3.48
            c1.71,5.06-2.57,12.15-7.66,8.35c-3.87-3.39-3.65-10.44-2.28-14.73c1.89-5.585,6.497-9.822,12.22-11.24
            c-10.81,0.44-20.51,12.18-15.85,23c2.28,5,8.31,7.92,13.52,5.27C46.226,42.378,47.977,38.985,47.6,35.48z"></path>
        <path d="M146.1,22.64c-3.107,0.094-6.054,1.401-8.21,3.64c-1.937,2.124-3.007,4.896-3,7.77v0.1h-4.78v-15.2l-16.23,18.84l12.72,0.07
            v15.77l3.46-2.77V38h5.49c0.546,1.502,1.413,2.867,2.54,4c2.116,2.13,4.998,3.322,8,3.31c6.18,0.062,11.24-4.898,11.302-11.077
            c0.001-0.111,0.001-0.222-0.002-0.333c0.146-6.073-4.66-11.115-10.733-11.261C146.471,22.635,146.286,22.635,146.1,22.64z
             M119.94,34.08l6.46-7.53l0.07,7.6L119.94,34.08z M150.94,41.96c-1.084,1.012-2.517,1.568-4,1.55
            c-2.371-0.027-4.582-1.197-5.94-3.14c-1.417-1.961-2.176-4.321-2.17-6.74c-0.151-2.656,0.722-5.269,2.44-7.3
            c1.148-1.16,2.674-1.869,4.3-2c3.9,0,7.93,3.61,7.93,9.64c-0.02,4.79-1.66,7.06-2.6,7.99L150.94,41.96z"></path>
    </svg>
